<?xml version="1.0" encoding="UTF-8" standalone="no"?>
<!DOCTYPE svg PUBLIC "-//W3C//DTD SVG 1.1//EN" "http://www.w3.org/Graphics/SVG/1.1/DTD/svg11.dtd">
<svg
    xmlns="http://www.w3.org/2000/svg"
    version="1.1"
    viewBox="0.00 0.00 1024.00 1024.00"
>
<style>
path{
  cursor: pointer;
}
</style>
<path id="africa" stroke="#000" stroke-width="3" fill="#ffffff" d="
  M 604.19 715.81
  Q 601.58 713.53 600.57 710.85
  A 3.05 2.91 15.6 0 0 600.06 709.99
  Q 598.25 707.85 599.38 705.16
  Q 599.55 704.75 599.32 704.36
  Q 597.05 700.56 595.40 696.46
  A 1.02 0.97 11.1 0 0 595.11 696.05
  Q 589.73 691.43 593.06 684.80
  Q 593.30 684.32 593.11 683.83
  C 590.86 678.21 595.72 678.70 596.41 674.85
  A 1.37 1.35 -14.5 0 1 596.90 674.03
  C 600.78 671.01 600.03 665.69 601.43 661.83
  Q 601.60 661.36 601.42 660.89
  C 600.26 657.82 600.69 655.53 603.06 653.05
  Q 608.27 647.60 611.56 644.57
  Q 611.79 644.35 612.28 644.27
  Q 612.78 644.19 613.00 643.74
  L 614.68 640.39
  Q 614.93 639.89 615.44 639.65
  Q 620.13 637.39 623.58 633.53
  A 1.19 1.16 18.5 0 1 624.39 633.14
  Q 628.62 632.90 631.25 631.79
  C 633.10 631.01 633.03 628.72 633.84 627.37
  Q 636.66 622.66 641.13 619.55
  C 644.63 617.11 647.67 618.11 650.89 614.22
  C 653.14 611.50 655.91 610.97 658.86 612.79
  A 1.47 1.47 0.0 0 1 659.48 613.60
  Q 660.12 615.64 662.45 614.93
  A 1.22 1.20 -33.7 0 1 663.55 615.14
  Q 665.02 616.30 666.61 615.17
  Q 667.02 614.88 667.53 614.90
  Q 669.41 614.98 671.20 614.48
  C 674.10 613.66 677.00 614.06 679.84 614.58
  Q 680.42 614.68 680.96 614.44
  Q 683.23 613.43 685.22 615.05
  A 1.19 1.19 0.0 0 0 686.24 615.29
  C 689.10 614.61 692.25 616.12 695.12 616.66
  Q 695.61 616.76 696.03 616.50
  C 698.23 615.15 701.95 617.85 704.29 619.56
  C 707.70 622.07 705.24 626.06 704.96 629.26
  C 704.81 630.98 704.31 631.75 703.17 632.86
  A 0.69 0.69 0.0 0 0 703.68 634.04
  L 704.98 633.99
  A 1.35 1.32 60.2 0 1 705.79 634.22
  C 709.56 636.70 714.03 635.96 714.28 641.91
  A 0.57 0.57 0.0 0 0 714.61 642.41
  L 718.77 644.37
  Q 719.14 644.54 719.33 644.18
  C 722.45 638.39 729.38 637.04 734.44 640.78
  C 738.11 643.48 740.55 644.68 744.09 646.37
  C 745.64 647.10 747.64 647.19 749.17 649.06
  A 0.62 0.61 -34.6 0 0 749.96 649.20
  L 753.41 647.17
  A 1.38 1.34 -53.7 0 1 754.36 647.01
  Q 758.25 647.81 761.76 649.57
  Q 762.20 649.79 762.68 649.75
  Q 765.56 649.53 767.97 651.01
  A 1.51 1.48 9.6 0 1 768.65 651.95
  L 770.90 662.21
  Q 771.02 662.71 770.90 663.22
  Q 770.57 664.58 769.41 665.43
  A 1.04 1.03 72.9 0 0 768.98 666.25
  Q 768.97 668.07 767.66 669.23
  Q 767.26 669.59 767.38 670.12
  L 768.89 676.61
  A 1.27 1.27 0.0 0 0 769.24 677.21
  Q 771.82 679.70 771.23 683.25
  Q 771.15 683.73 771.58 683.96
  C 774.54 685.59 775.29 691.72 774.98 694.75
  Q 774.46 699.95 778.48 703.60
  A 1.28 1.26 21.4 0 1 778.90 704.54
  L 778.99 710.62
  A 1.15 1.13 -68.0 0 0 779.31 711.39
  C 781.77 713.99 784.29 715.92 786.13 719.16
  Q 787.17 720.99 788.99 722.13
  A 1.30 1.25 -84.6 0 1 789.50 722.77
  Q 790.77 726.35 790.22 730.08
  A 0.70 0.70 0.0 0 0 791.35 730.73
  Q 793.09 729.37 795.02 730.46
  A 1.09 1.08 47.2 0 0 796.02 730.50
  C 798.51 729.30 800.57 730.26 802.75 729.93
  C 806.45 729.37 812.15 727.12 814.49 731.03
  C 815.75 733.12 814.98 736.81 814.97 739.40
  A 0.71 0.65 -27.7 0 1 814.82 739.82
  L 813.35 741.64
  Q 813.06 742.01 813.06 742.47
  C 813.08 745.85 810.59 746.99 809.30 748.97
  C 807.19 752.21 806.24 755.84 803.45 758.52
  Q 800.27 761.57 797.32 764.83
  C 796.13 766.14 794.12 766.86 793.09 768.70
  Q 792.81 769.19 792.28 769.38
  Q 788.34 770.74 785.02 773.31
  Q 784.61 773.62 784.50 774.13
  Q 784.26 775.19 783.45 775.45
  C 780.45 776.41 775.91 779.82 774.07 782.11
  Q 773.77 782.48 773.32 782.59
  Q 771.30 783.12 770.54 785.01
  Q 770.34 785.52 769.94 785.89
  Q 767.06 788.63 765.09 792.15
  Q 764.86 792.54 765.09 792.94
  Q 767.41 797.04 764.46 800.62
  Q 764.11 801.04 764.16 801.59
  C 764.54 805.45 767.00 808.30 765.73 812.73
  Q 765.59 813.20 765.23 813.53
  Q 764.03 814.65 763.95 816.98
  Q 763.81 821.23 760.37 830.33
  Q 760.20 830.78 759.80 831.04
  C 755.96 833.59 751.10 836.42 746.50 837.00
  C 744.94 837.20 744.76 838.93 743.32 839.63
  C 741.57 840.49 739.16 839.98 738.95 842.78
  C 738.70 846.13 741.69 849.40 738.03 851.73
  Q 737.62 851.99 737.74 852.46
  Q 738.72 856.19 735.90 857.61
  C 732.97 859.10 731.10 860.40 728.22 860.46
  Q 727.71 860.47 727.40 860.88
  Q 725.92 862.82 725.85 865.23
  Q 725.84 865.78 725.48 866.21
  Q 721.32 871.15 719.82 872.06
  Q 712.62 876.40 710.29 878.53
  Q 708.77 879.92 707.36 880.43
  A 1.30 1.25 -83.3 0 0 706.69 880.98
  Q 705.46 882.99 703.03 883.15
  A 1.22 1.20 15.6 0 0 702.13 883.65
  C 699.60 887.16 695.85 885.59 692.02 886.31
  A 1.56 1.52 -36.5 0 1 691.07 886.18
  Q 689.28 885.32 687.39 884.95
  C 685.18 884.51 683.26 885.72 680.71 884.68
  Q 680.27 884.50 679.83 884.67
  C 676.15 886.16 673.68 882.64 670.94 880.87
  Q 670.51 880.59 670.41 880.08
  C 669.76 876.56 667.36 872.43 670.68 869.47
  A 0.92 0.89 -27.1 0 0 670.97 868.62
  Q 670.65 867.02 670.18 865.53
  C 669.65 863.87 670.08 862.00 668.62 860.41
  Q 668.29 860.05 668.20 859.58
  L 667.67 856.95
  Q 667.58 856.51 667.26 856.19
  C 665.06 854.00 665.67 848.97 665.75 844.71
  C 665.81 842.02 664.35 839.66 666.00 836.52
  A 1.63 1.59 56.0 0 0 666.17 835.58
  Q 665.69 831.81 664.14 828.52
  C 662.70 825.47 663.14 822.84 661.29 819.81
  Q 661.03 819.38 661.02 818.87
  C 660.95 815.51 660.37 810.55 662.50 807.75
  C 664.53 805.09 665.21 802.00 667.22 799.19
  C 669.78 795.60 672.80 794.57 670.99 789.20
  A 1.70 1.68 44.7 0 1 670.98 788.20
  C 672.66 782.77 670.67 779.37 670.82 773.74
  Q 670.86 772.41 669.63 771.56
  A 0.99 0.98 17.8 0 1 669.20 770.73
  Q 669.20 768.76 667.67 767.56
  A 1.17 1.13 -74.6 0 1 667.23 766.76
  Q 666.88 763.50 664.50 761.36
  A 1.39 1.39 0.0 0 1 664.06 760.47
  C 663.70 756.05 661.85 754.35 665.57 750.49
  Q 665.95 750.10 666.03 749.56
  Q 666.65 745.26 669.17 741.71
  Q 669.48 741.28 669.10 740.91
  Q 666.86 738.71 665.22 738.99
  C 659.13 740.07 656.98 735.41 655.67 730.59
  A 0.76 0.76 0.0 0 0 654.95 730.03
  C 652.56 729.98 650.85 729.42 648.47 729.96
  C 645.54 730.63 643.31 730.90 639.67 731.81
  Q 635.02 732.96 630.96 729.80
  Q 630.58 729.50 630.11 729.61
  C 627.63 730.20 625.55 729.68 622.99 730.09
  Q 619.02 730.73 615.48 728.92
  C 610.11 726.16 608.33 719.44 604.19 715.81
  Z"
/>
<path id="mato" stroke="#000" stroke-width="3" fill="#ffffff" d="
  M 393.24 519.68
  A 1.39 1.38 59.2 0 0 391.82 519.31
  Q 386.42 520.97 380.49 520.43
  C 378.46 520.25 372.82 521.89 371.78 523.94
  C 370.08 527.30 367.97 530.36 366.42 533.82
  Q 366.23 534.26 365.76 534.33
  L 362.59 534.77
  A 1.02 1.00 -74.1 0 0 361.99 535.11
  L 354.74 543.69
  Q 354.39 544.11 354.47 544.64
  Q 355.07 548.80 351.42 550.83
  Q 350.92 551.11 350.37 550.96
  L 348.39 550.43
  Q 347.81 550.28 347.39 550.72
  Q 346.44 551.71 345.38 550.76
  Q 344.99 550.40 344.46 550.48
  C 340.31 551.10 337.77 547.27 337.34 543.59
  Q 337.28 543.03 336.75 542.85
  Q 328.53 539.90 320.99 535.50
  Q 320.60 535.27 320.56 534.81
  L 319.22 517.79
  Q 319.17 517.21 319.67 516.90
  Q 321.21 515.92 322.30 514.45
  A 0.40 0.39 -30.3 0 0 322.38 514.16
  L 322.22 512.01
  A 1.07 1.07 0.0 0 0 321.15 511.02
  C 306.84 510.99 292.36 511.54 278.15 510.44
  Q 277.56 510.40 277.55 509.80
  Q 277.51 508.14 275.98 507.24
  A 2.98 2.97 -63.8 0 1 274.73 503.55
  Q 275.67 501.26 274.82 499.01
  A 2.11 2.03 -53.8 0 1 274.69 498.05
  Q 275.11 493.78 273.73 489.75
  A 1.43 1.43 0.0 0 0 273.04 488.93
  Q 272.05 488.38 271.78 487.24
  Q 271.66 486.73 271.28 486.36
  Q 268.33 483.47 270.30 479.76
  Q 270.57 479.23 271.14 479.08
  L 272.28 478.79
  Q 272.81 478.65 272.80 478.11
  C 272.69 474.67 273.44 470.31 271.83 467.19
  C 269.11 461.96 265.94 457.47 268.81 451.35
  A 1.97 1.97 0.0 0 0 267.91 448.75
  L 263.39 446.49
  A 1.01 0.98 -87.8 0 1 262.91 445.96
  Q 260.87 440.64 265.44 438.01
  C 266.59 437.34 267.67 436.14 269.10 435.73
  Q 269.59 435.59 269.64 435.09
  Q 270.37 427.71 275.83 423.04
  C 278.78 420.51 277.93 418.77 279.67 416.10
  Q 281.68 413.01 282.04 409.44
  C 282.91 400.74 269.48 393.79 278.91 385.03
  A 0.96 0.95 -31.4 0 0 279.16 384.01
  L 277.36 379.03
  A 0.86 0.86 0.0 0 0 276.51 378.47
  C 273.12 378.63 269.67 379.11 267.20 376.31
  A 0.87 0.87 0.0 0 0 266.55 376.02
  L 243.62 375.96
  A 3.89 3.89 0.0 0 1 239.74 372.03
  Q 239.78 367.21 239.73 361.52
  C 239.71 358.81 237.77 357.53 237.76 355.22
  Q 237.73 343.62 237.76 332.02
  C 237.77 328.56 236.60 325.72 238.74 321.95
  A 1.26 1.25 55.0 0 0 238.88 321.14
  Q 237.73 314.66 244.00 314.59
  Q 279.64 314.18 314.92 313.03
  A 1.59 1.58 0.2 0 0 316.45 311.52
  Q 316.64 307.03 318.29 302.82
  C 320.39 297.48 317.22 294.34 318.52 289.70
  C 319.44 286.45 321.92 285.78 321.87 281.52
  A 0.98 0.96 -19.0 0 1 322.27 280.72
  C 327.36 276.91 328.94 280.93 332.56 283.40
  A 1.10 1.10 0.0 0 1 333.01 284.08
  L 333.47 286.37
  Q 333.57 286.89 333.89 287.31
  C 335.44 289.37 335.06 291.49 336.02 293.46
  Q 337.55 296.55 339.16 299.61
  A 1.54 1.53 35.4 0 1 339.32 300.54
  C 338.84 303.87 340.21 306.36 340.25 309.62
  A 0.50 0.47 -63.5 0 0 340.33 309.89
  L 343.08 314.25
  A 0.65 0.63 -9.1 0 0 343.48 314.53
  Q 344.85 314.83 345.69 315.80
  Q 348.97 319.58 353.56 321.51
  Q 354.07 321.73 354.33 322.23
  Q 355.09 323.67 356.75 324.00
  A 1.32 1.32 0.0 0 1 357.51 324.45
  C 359.35 326.65 360.68 328.14 363.52 329.17
  C 366.24 330.15 368.22 331.23 371.20 331.43
  Q 450.43 336.82 529.25 341.78
  A 0.96 0.96 0.0 0 1 530.08 343.09
  C 526.62 351.80 522.08 360.70 520.21 369.72
  C 517.46 382.96 515.64 397.11 519.55 410.37
  A 1.68 1.67 71.4 0 1 518.54 412.41
  C 513.72 414.22 511.05 418.17 505.71 418.58
  A 1.47 1.47 0.0 0 0 504.46 419.50
  C 501.97 425.81 497.58 423.25 492.84 425.17
  A 0.82 0.82 0.0 0 1 491.93 424.98
  C 489.81 422.74 491.56 417.14 488.02 417.47
  Q 485.84 417.67 484.26 417.47
  A 0.89 0.88 -8.1 0 1 483.55 416.94
  Q 482.35 414.07 479.44 413.05
  A 1.07 1.06 -80.1 0 0 478.02 414.05
  L 477.98 418.68
  A 1.58 1.58 0.0 0 1 476.26 420.25
  Q 472.44 419.92 469.14 421.78
  Q 468.75 421.99 468.62 422.42
  Q 467.83 424.94 469.87 426.19
  A 1.26 1.26 0.0 0 1 470.07 428.17
  C 467.68 430.44 468.42 432.44 469.60 435.50
  Q 471.09 439.37 469.68 443.51
  Q 469.52 443.99 469.06 444.18
  C 465.31 445.80 462.49 444.94 459.09 447.77
  C 455.67 450.60 454.60 456.60 453.38 461.02
  A 0.86 0.86 0.0 0 0 453.66 461.90
  C 458.41 465.87 463.00 474.03 456.84 478.81
  Q 453.35 481.52 450.51 485.04
  A 1.32 1.32 0.0 0 0 450.91 487.03
  L 455.34 489.43
  Q 455.75 489.64 455.75 490.11
  L 455.75 493.48
  Q 455.75 493.94 455.46 494.29
  C 453.78 496.31 454.82 502.20 454.74 504.89
  Q 454.72 505.40 454.29 505.67
  Q 448.72 509.20 443.05 512.56
  C 441.47 513.50 439.84 515.44 437.57 516.01
  C 434.01 516.91 430.61 514.04 426.83 514.02
  C 416.74 513.96 407.74 513.01 398.87 519.59
  C 397.08 520.92 394.81 521.37 393.24 519.68
  Z"
/>
<path id="minas" stroke="#000" stroke-width="3" fill="#ffffff" d="
  M 554.52 625.02
  C 550.14 624.97 543.54 624.22 539.03 626.65
  Q 536.85 627.83 535.55 628.08
  Q 520.66 630.93 506.37 636.00
  C 501.45 637.75 497.21 637.85 492.22 637.75
  Q 491.72 637.73 491.70 638.23
  C 491.28 646.54 477.60 645.04 472.85 643.44
  Q 472.32 643.26 472.13 642.73
  C 470.00 636.93 470.95 633.54 464.84 630.17
  Q 463.58 629.48 463.67 627.75
  Q 464.24 616.49 467.63 605.79
  C 469.31 600.48 461.67 600.51 458.50 600.22
  C 452.37 599.66 451.23 587.75 451.42 583.40
  C 451.64 578.64 451.11 564.34 444.88 562.89
  Q 443.95 562.67 439.14 562.94
  Q 424.14 563.77 409.44 566.77
  C 406.26 567.41 403.71 567.49 400.57 567.52
  Q 399.24 567.53 398.71 566.31
  L 395.99 560.11
  Q 395.63 559.28 394.74 559.12
  Q 382.93 556.92 370.81 555.45
  C 369.22 555.26 366.74 553.79 364.70 555.10
  C 360.42 557.84 349.18 561.15 350.20 551.43
  Q 351.23 541.67 357.67 534.41
  C 359.43 532.42 361.33 531.97 363.67 530.77
  A 1.60 1.57 89.6 0 0 364.36 530.06
  C 366.65 525.30 368.70 519.89 374.01 519.09
  Q 383.16 517.71 392.35 516.72
  C 393.67 516.58 394.96 516.78 396.28 516.98
  A 1.15 1.15 0.0 0 0 397.19 516.73
  C 405.90 509.60 421.59 510.57 432.11 511.85
  C 438.76 512.67 445.19 508.18 450.38 504.57
  Q 450.80 504.28 450.91 503.78
  Q 451.54 500.95 451.66 498.12
  C 451.84 493.88 452.57 491.27 448.82 489.49
  A 1.49 1.47 0.8 0 1 448.13 488.79
  C 445.07 482.13 452.42 478.15 456.70 474.62
  A 2.02 2.02 0.0 0 0 456.96 471.76
  C 451.74 465.58 449.45 463.24 451.35 454.58
  C 452.99 447.11 458.17 442.40 466.07 442.31
  A 1.40 1.39 -7.5 0 0 467.41 440.57
  Q 465.35 432.62 465.33 424.81
  C 465.32 417.74 469.07 418.08 474.58 417.19
  Q 475.08 417.11 475.15 416.61
  L 475.76 411.75
  A 0.82 0.80 -11.1 0 1 476.18 411.14
  Q 480.06 409.03 482.54 411.20
  Q 487.60 415.60 492.57 415.87
  A 0.88 0.88 0.0 0 1 493.41 416.72
  L 493.55 420.69
  Q 493.57 421.31 494.19 421.29
  L 499.35 421.14
  A 0.86 0.86 0.0 0 0 500.09 420.69
  C 501.12 418.85 501.92 417.54 503.89 416.57
  Q 513.30 411.98 522.19 406.45
  Q 530.41 401.34 533.27 400.30
  C 541.06 397.47 557.98 394.92 554.32 409.81
  A 1.15 1.15 0.0 0 0 555.11 411.19
  L 561.67 413.09
  A 0.92 0.88 -56.0 0 0 562.51 412.91
  C 566.63 409.44 572.32 409.59 577.30 410.64
  Q 577.77 410.74 577.97 411.17
  C 582.61 421.07 595.69 425.39 605.69 426.67
  C 614.88 427.85 618.53 434.69 621.88 442.83
  Q 622.17 443.55 623.66 445.47
  Q 623.97 445.88 624.47 445.76
  C 635.35 443.27 644.05 445.34 653.55 451.48
  Q 661.61 456.68 657.44 465.02
  C 656.70 466.52 656.83 468.45 654.40 468.77
  A 0.65 0.59 -69.2 0 0 654.08 468.93
  L 647.69 474.75
  A 0.57 0.57 0.0 0 0 647.50 475.10
  L 646.62 480.46
  A 1.49 1.49 0.0 0 1 645.24 481.71
  C 642.34 481.87 639.05 482.12 639.78 486.18
  Q 639.89 486.77 639.51 487.24
  Q 638.36 488.65 638.81 490.55
  A 0.86 0.85 -23.0 0 1 638.43 491.47
  L 637.47 492.09
  A 0.63 0.63 0.0 0 0 637.50 493.16
  L 638.30 493.63
  Q 638.71 493.86 638.93 494.27
  Q 641.55 499.21 645.65 503.01
  C 647.52 504.75 648.47 506.67 647.79 509.04
  C 646.11 514.80 641.04 512.51 637.25 510.70
  Q 636.80 510.49 636.31 510.59
  Q 632.46 511.35 629.56 513.79
  C 627.40 515.61 625.03 516.56 623.08 518.51
  Q 622.74 518.85 622.87 519.32
  Q 624.37 524.41 624.70 529.72
  C 624.87 532.38 626.10 534.79 622.79 536.18
  Q 622.30 536.38 622.59 536.82
  C 627.86 545.03 625.93 553.99 618.25 559.87
  Q 617.80 560.21 617.96 560.75
  Q 618.34 562.10 617.23 562.87
  A 1.81 1.73 -4.6 0 0 616.67 563.50
  C 615.19 566.33 614.31 569.93 612.16 572.16
  Q 610.91 573.45 609.60 574.67
  A 1.19 1.17 24.2 0 1 608.74 574.99
  Q 604.58 574.79 600.75 576.52
  Q 600.27 576.74 600.20 577.27
  Q 599.55 582.28 598.40 587.16
  C 597.74 590.00 596.14 591.15 594.24 593.13
  C 592.52 594.92 589.94 595.25 589.22 598.50
  Q 588.04 603.86 584.77 607.79
  C 582.11 610.99 581.69 612.28 582.06 616.23
  Q 582.29 618.63 579.73 618.95
  Q 573.61 619.72 568.33 622.85
  A 2.16 2.05 -88.5 0 0 567.59 623.59
  Q 566.73 625.05 564.99 625.00
  Q 564.46 624.99 564.09 625.38
  C 562.45 627.16 556.89 628.29 555.37 625.54
  A 1.00 0.98 75.8 0 0 554.52 625.02
  Z"
/>
<path id="nlogonia" stroke="#000" stroke-width="3" fill="#ffffff" d="
  M 750.33 541.25
  Q 753.17 541.16 755.74 542.42
  Q 756.18 542.64 756.64 542.45
  C 762.35 540.18 766.18 539.35 771.25 543.30
  Q 771.68 543.64 771.74 544.18
  Q 772.03 546.72 774.17 548.01
  A 1.20 1.15 -84.8 0 1 774.68 548.65
  C 775.80 552.11 775.66 554.77 773.16 557.74
  Q 769.27 562.37 766.27 567.67
  Q 765.99 568.16 765.67 568.32
  Q 765.44 568.44 765.18 568.48
  Q 764.65 568.56 764.27 568.93
  L 754.49 578.30
  Q 754.12 578.65 754.02 579.16
  Q 753.74 580.55 752.53 581.31
  A 0.70 0.69 -21.1 0 0 752.21 582.02
  Q 752.67 584.85 750.51 586.61
  A 0.96 0.95 66.3 0 0 750.16 587.53
  Q 750.79 591.44 747.97 593.94
  A 1.33 1.31 68.6 0 0 747.54 594.94
  C 747.76 605.29 734.34 603.45 729.04 599.20
  Q 726.82 597.42 725.03 599.63
  C 722.86 602.30 717.01 599.32 714.32 598.65
  C 713.20 598.38 712.65 598.07 712.46 596.94
  A 0.90 0.89 89.5 0 0 711.72 596.21
  Q 709.47 595.83 708.11 593.99
  A 1.19 1.18 72.3 0 0 707.21 593.52
  Q 705.02 593.45 703.27 592.17
  Q 702.83 591.84 702.28 591.80
  Q 695.88 591.28 689.50 591.24
  C 686.92 591.22 683.55 586.49 681.68 584.62
  C 678.93 581.87 673.45 573.43 677.49 569.89
  Q 678.11 569.34 677.29 569.39
  C 673.45 569.59 663.81 570.35 661.22 567.10
  A 1.04 1.04 0.0 0 0 660.28 566.71
  Q 656.46 567.15 653.14 565.30
  A 1.37 1.35 6.2 0 1 652.48 564.49
  Q 652.00 562.96 650.35 562.99
  Q 649.80 563.00 649.42 562.60
  Q 646.63 559.62 644.22 556.38
  C 643.32 555.16 642.85 553.17 641.15 552.12
  Q 640.72 551.86 640.60 551.37
  C 640.19 549.73 638.65 549.59 637.69 548.71
  Q 635.76 546.93 634.36 544.75
  C 631.56 540.41 628.38 540.42 628.93 534.18
  Q 628.97 533.71 628.61 533.40
  L 625.57 530.84
  Q 625.23 530.56 624.80 530.50
  Q 622.39 530.16 620.71 528.39
  Q 620.35 528.00 620.53 527.50
  Q 622.18 522.86 618.59 519.58
  A 0.96 0.93 -62.7 0 1 618.31 518.66
  C 619.13 515.01 622.64 514.35 625.57 513.25
  A 0.91 0.90 84.9 0 0 626.14 512.56
  C 626.76 509.30 629.07 509.85 631.15 508.47
  Q 631.62 508.15 632.15 508.36
  Q 633.21 508.78 633.83 508.10
  Q 634.15 507.74 634.62 507.59
  Q 639.24 506.06 642.11 509.45
  A 1.37 1.37 0.0 0 0 643.81 509.77
  C 645.44 508.90 644.85 506.87 643.67 505.80
  C 640.73 503.13 633.31 495.02 634.34 491.16
  Q 635.82 485.58 637.67 480.11
  Q 637.87 479.50 638.52 479.50
  L 643.32 479.50
  Q 643.94 479.50 644.13 478.92
  Q 644.87 476.70 644.27 474.39
  Q 644.13 473.86 644.49 473.44
  C 648.91 468.25 655.00 465.60 656.39 458.69
  A 0.96 0.95 24.6 0 0 656.04 457.76
  Q 645.59 449.68 632.66 447.39
  C 630.16 446.94 628.78 447.76 626.91 449.20
  A 1.14 1.10 -56.7 0 1 625.99 449.41
  C 622.02 448.55 617.51 445.31 617.42 440.79
  Q 617.42 440.32 617.14 439.94
  L 612.27 433.27
  A 1.01 1.01 0.0 0 1 612.10 432.52
  Q 612.97 427.59 616.68 424.82
  C 619.42 422.79 623.63 422.90 627.11 422.33
  Q 627.63 422.24 627.89 421.79
  C 629.71 418.70 627.69 416.74 625.61 414.73
  Q 625.23 414.37 625.17 413.85
  C 624.69 410.00 624.14 404.53 628.10 402.33
  A 1.47 1.46 -48.1 0 0 627.96 399.70
  Q 626.86 399.24 627.20 397.68
  C 627.54 396.09 629.57 394.64 630.36 393.01
  A 0.76 0.76 0.0 0 0 629.83 391.93
  C 622.88 390.50 617.50 388.69 622.31 380.36
  Q 624.82 376.02 627.06 371.53
  C 629.28 367.05 633.89 364.65 638.25 362.62
  Q 640.44 361.61 638.36 360.38
  C 634.82 358.29 626.81 356.44 624.90 352.58
  Q 622.37 347.47 618.67 343.15
  Q 618.27 342.68 618.67 342.21
  L 620.88 339.68
  Q 621.99 338.39 620.54 337.50
  L 615.84 334.62
  Q 615.29 334.28 615.17 333.64
  L 614.10 328.03
  A 0.53 0.51 89.8 0 0 613.70 327.62
  Q 612.34 327.31 612.87 325.59
  A 0.84 0.80 -15.1 0 1 613.10 325.21
  Q 614.38 323.98 616.75 322.54
  Q 680.82 283.56 727.26 257.27
  C 733.88 253.52 736.14 251.68 743.72 256.05
  C 749.55 259.41 757.89 261.89 757.22 270.48
  C 756.90 274.68 754.95 279.28 755.09 284.04
  Q 755.16 286.66 754.74 289.23
  C 753.92 294.25 754.84 298.55 751.74 303.03
  Q 750.18 305.27 749.60 306.92
  C 749.27 307.87 749.12 308.20 748.22 308.51
  Q 747.76 308.67 747.83 309.15
  C 748.82 315.12 745.03 319.02 741.11 322.79
  A 0.76 0.75 -41.8 0 0 741.05 323.82
  L 742.84 325.99
  A 1.00 0.99 -64.3 0 1 743.08 326.69
  Q 742.96 329.61 744.60 331.95
  Q 744.89 332.37 744.93 332.88
  C 745.17 336.16 746.13 339.09 745.98 342.38
  C 745.62 349.74 747.33 357.92 747.63 363.75
  Q 748.38 378.34 748.26 392.93
  Q 748.25 393.43 748.62 393.76
  C 748.96 394.06 749.29 394.32 749.45 394.75
  Q 750.38 397.24 753.02 400.23
  Q 763.82 412.45 773.96 428.98
  C 776.05 432.37 778.17 436.27 779.65 440.96
  C 780.82 444.67 783.31 446.95 782.75 451.65
  C 781.92 458.52 775.05 453.37 772.10 458.61
  Q 771.87 459.03 771.96 459.50
  C 772.88 464.15 774.16 470.42 768.83 472.74
  C 765.85 474.03 760.75 473.22 756.97 473.55
  Q 756.45 473.60 756.12 474.01
  Q 755.10 475.31 753.33 475.21
  A 1.34 1.33 -35.1 0 0 752.87 477.82
  C 757.57 479.21 767.46 478.43 763.72 487.31
  Q 763.52 487.79 763.07 488.04
  Q 761.05 489.18 759.79 491.11
  Q 759.54 491.50 759.50 491.97
  L 758.92 499.73
  A 0.65 0.64 71.0 0 1 758.72 500.15
  L 757.17 501.71
  Q 756.76 502.12 756.69 502.70
  L 755.61 511.53
  Q 755.55 512.04 755.72 512.53
  Q 758.78 521.65 755.03 530.50
  A 1.77 1.75 -39.4 0 0 754.92 531.55
  C 755.56 534.61 752.10 538.92 750.20 540.98
  Q 749.95 541.26 750.33 541.25
  Z"
/>
<path id="pascoa" stroke="#000" stroke-width="3" fill="#ffffff" d="
  M 492.63 113.17
  L 496.15 113.93
  Q 496.58 114.02 497.03 113.95
  C 501.08 113.28 506.85 110.72 509.26 115.69
  Q 509.48 116.15 509.93 116.36
  Q 512.20 117.44 512.16 119.85
  C 512.09 123.86 514.32 123.57 516.34 125.48
  Q 517.58 126.66 518.82 127.83
  C 520.65 129.54 523.64 131.25 525.62 133.72
  A 0.82 0.81 -25.5 0 0 526.45 134.01
  C 534.32 132.22 536.74 134.62 542.29 139.33
  Q 542.64 139.63 543.07 139.47
  C 545.13 138.70 546.84 137.69 549.12 137.76
  C 555.88 137.98 565.08 136.80 572.38 139.66
  Q 572.86 139.84 573.34 139.68
  C 577.90 138.07 581.37 139.71 586.18 139.81
  Q 588.95 139.87 589.94 142.60
  A 1.26 1.23 -87.1 0 0 590.54 143.28
  C 597.07 146.69 602.67 161.44 595.05 166.72
  Q 594.63 167.01 594.51 167.50
  Q 593.52 171.51 592.64 175.52
  C 590.64 184.58 586.40 183.23 578.92 182.58
  C 572.30 181.99 568.99 181.39 562.50 184.76
  Q 558.40 186.89 552.26 185.99
  Q 551.62 185.89 551.83 186.51
  C 555.30 196.65 546.55 193.23 544.10 197.87
  C 542.89 200.17 541.89 201.07 540.20 202.65
  A 1.52 1.49 -15.9 0 0 539.76 203.42
  Q 539.22 205.84 537.00 205.98
  C 532.32 206.29 528.86 207.24 524.92 205.50
  Q 524.47 205.30 524.02 205.48
  C 520.10 207.04 515.56 206.75 512.22 203.98
  Q 511.62 203.48 510.77 203.57
  Q 503.20 204.37 498.51 208.52
  Q 495.95 210.78 494.28 211.49
  Q 493.76 211.70 493.52 212.21
  L 493.22 212.82
  Q 493.02 213.25 492.57 213.37
  Q 490.77 213.86 489.60 215.27
  Q 489.27 215.66 488.76 215.76
  L 484.42 216.60
  A 0.77 0.75 -0.1 0 0 483.82 217.19
  Q 482.93 221.39 478.88 222.68
  Q 478.32 222.86 478.03 223.37
  C 474.95 228.80 476.14 235.74 466.92 233.97
  Q 466.45 233.88 466.01 234.08
  C 463.92 235.07 462.19 235.32 460.23 236.78
  Q 454.33 241.17 446.85 238.43
  Q 446.38 238.25 446.02 237.89
  Q 444.96 236.83 443.54 237.81
  Q 443.06 238.14 442.48 238.06
  Q 435.99 237.24 431.32 241.74
  Q 430.94 242.11 430.42 242.22
  C 427.98 242.72 425.74 242.21 423.49 243.00
  Q 421.96 243.54 420.46 244.16
  Q 420.00 244.35 419.88 244.83
  Q 418.32 251.28 417.39 253.59
  Q 417.10 254.32 416.00 254.55
  A 0.82 0.81 0.5 0 0 415.38 255.15
  C 414.70 258.05 414.34 260.88 411.88 262.86
  C 408.43 265.63 404.40 267.56 400.83 270.14
  C 395.95 273.66 387.94 273.79 383.05 270.20
  C 379.07 267.27 374.17 267.16 370.89 264.63
  Q 366.22 261.02 367.04 254.49
  A 1.42 1.37 -58.4 0 0 366.83 253.54
  C 362.26 246.40 364.78 241.04 367.68 232.43
  Q 367.86 231.90 368.37 231.70
  L 369.81 231.12
  Q 370.42 230.88 370.30 230.22
  C 369.43 225.51 371.76 222.04 371.93 217.26
  A 0.85 0.85 0.0 0 1 372.26 216.63
  L 373.19 215.94
  A 0.82 0.81 -24.3 0 0 373.50 215.13
  C 372.39 209.36 376.69 206.23 382.04 207.22
  Q 382.48 207.30 382.71 206.91
  L 386.54 200.47
  A 0.76 0.74 -27.7 0 0 386.66 200.10
  L 386.89 196.70
  Q 386.92 196.25 386.74 195.83
  Q 384.80 191.43 388.37 188.19
  Q 388.71 187.88 388.79 187.44
  L 389.13 185.43
  A 1.61 1.57 71.8 0 1 389.52 184.63
  C 393.11 180.56 390.46 176.05 392.75 171.70
  A 2.10 2.02 60.1 0 0 392.99 170.73
  C 393.01 167.64 392.03 162.37 394.83 160.40
  A 1.13 1.04 -12.0 0 0 395.25 159.81
  L 396.37 155.94
  Q 396.50 155.47 396.87 155.17
  L 402.12 150.81
  Q 402.48 150.51 402.47 150.03
  Q 402.13 139.78 409.73 133.18
  Q 410.14 132.82 410.02 132.30
  C 408.95 127.57 411.37 124.50 412.55 120.72
  Q 412.72 120.18 413.22 119.91
  L 414.01 119.49
  Q 414.47 119.24 414.66 118.75
  Q 416.68 113.37 418.92 110.18
  C 419.23 109.74 420.29 109.33 420.81 108.72
  Q 425.63 103.13 431.07 98.15
  C 433.14 96.25 434.57 97.52 436.76 96.75
  C 444.57 94.02 449.05 95.33 456.19 98.93
  C 459.15 100.42 461.38 100.03 464.54 99.99
  C 467.36 99.97 470.01 100.96 472.88 101.26
  C 478.45 101.83 479.81 104.33 484.33 106.31
  Q 487.90 107.87 491.07 110.21
  Q 491.52 110.54 491.66 111.07
  L 492.12 112.69
  Q 492.23 113.08 492.63 113.17
  Z"
/>
<path id="tocantins" stroke="#000" stroke-width="3" fill="#ffffff" d="
  M 612.86 324.84
  L 615.65 322.94
  Q 616.27 322.52 616.37 323.26
  Q 617.02 327.78 617.40 332.04
  Q 617.52 333.40 619.17 333.18
  A 0.82 0.81 65.8 0 1 619.90 333.46
  L 621.15 335.01
  A 0.78 0.75 66.3 0 0 621.83 335.29
  Q 623.11 335.15 623.51 336.16
  Q 624.88 339.64 622.44 341.99
  Q 622.12 342.31 622.35 342.70
  Q 624.82 346.75 627.10 350.92
  C 629.77 355.81 644.24 355.84 641.56 363.31
  Q 641.39 363.77 640.97 364.03
  L 630.65 370.33
  A 0.96 0.96 0.0 0 0 630.27 370.77
  Q 627.64 376.87 624.30 382.49
  C 620.93 388.17 628.17 389.19 631.34 389.30
  A 1.29 1.29 0.0 0 1 632.51 390.20
  Q 633.84 394.48 631.15 397.35
  Q 630.88 397.64 630.77 398.03
  Q 630.51 398.98 631.00 399.63
  Q 631.31 400.05 631.45 400.54
  Q 631.63 401.14 631.29 401.27
  Q 630.83 401.46 630.81 401.95
  Q 630.73 404.64 628.31 405.82
  Q 627.75 406.10 627.75 406.72
  L 627.75 413.19
  A 0.82 0.79 22.4 0 0 628.00 413.77
  L 630.35 415.93
  Q 630.75 416.30 630.75 416.85
  L 630.75 422.04
  A 1.41 1.40 66.1 0 1 630.39 422.98
  C 627.88 425.71 623.51 425.75 620.02 425.79
  Q 619.49 425.80 619.12 426.18
  L 615.24 430.18
  A 1.01 1.01 0.0 0 0 614.98 431.12
  Q 615.28 432.41 613.99 432.31
  C 610.37 432.05 607.40 429.81 603.63 429.76
  C 597.12 429.67 589.75 425.44 583.91 422.65
  C 579.87 420.73 577.37 416.67 574.93 413.12
  Q 574.68 412.75 574.23 412.75
  L 568.11 412.75
  Q 567.60 412.75 567.21 413.07
  L 562.81 416.70
  A 0.89 0.88 -54.6 0 1 561.95 416.85
  L 551.18 413.03
  A 0.73 0.72 -4.9 0 1 550.81 412.72
  C 549.60 410.65 550.81 410.29 551.19 408.68
  Q 551.79 406.21 551.41 403.76
  Q 551.34 403.29 550.96 402.99
  C 546.54 399.51 537.78 400.56 533.41 403.36
  Q 526.36 407.88 519.13 412.46
  A 2.66 2.66 0.0 0 1 515.05 410.32
  C 514.83 404.68 513.96 398.43 514.01 393.14
  Q 514.17 377.23 517.71 365.44
  Q 521.12 354.07 529.82 336.60
  C 531.02 334.20 531.32 331.55 532.16 328.92
  A 1.33 1.33 0.0 0 1 532.74 328.18
  C 534.52 327.06 534.92 325.33 536.07 324.05
  Q 538.92 320.87 542.13 318.07
  Q 542.50 317.75 542.99 317.75
  L 543.94 317.75
  Q 544.36 317.75 544.56 317.37
  Q 549.12 308.36 553.53 299.28
  Q 556.59 293.00 551.56 289.48
  Q 551.16 289.19 551.03 288.71
  Q 549.46 282.95 553.35 278.68
  A 1.46 1.44 68.3 0 0 553.73 277.78
  Q 553.83 276.48 554.28 275.22
  A 0.55 0.53 52.2 0 0 554.31 274.95
  C 553.57 267.43 559.08 264.64 565.38 262.50
  C 568.96 261.29 569.07 259.03 570.74 256.11
  A 1.42 1.39 4.1 0 1 571.47 255.49
  Q 573.70 254.65 575.35 252.91
  Q 575.64 252.61 575.66 252.20
  Q 575.80 249.54 578.08 248.15
  A 0.91 0.91 0.0 0 0 578.51 247.34
  Q 578.40 245.28 579.49 243.54
  Q 579.77 243.08 579.68 242.55
  Q 579.14 239.68 580.70 237.18
  A 0.73 0.73 0.0 0 0 580.61 236.29
  Q 578.23 233.81 575.05 232.80
  C 573.20 232.22 570.69 233.06 569.75 230.27
  C 568.24 225.78 572.50 224.16 575.23 222.06
  A 1.45 1.40 24.6 0 1 576.08 221.76
  C 579.54 221.65 580.62 222.61 583.55 224.02
  C 585.86 225.13 587.75 224.65 590.24 224.79
  A 1.30 1.26 68.9 0 1 591.08 225.18
  C 593.26 227.46 594.62 229.03 597.69 230.60
  C 603.91 233.79 604.74 238.45 604.37 244.88
  C 604.20 247.70 605.36 250.53 605.26 253.06
  C 605.05 258.26 602.85 262.43 602.33 267.13
  C 601.95 270.53 601.71 275.19 597.69 276.17
  Q 596.59 276.44 597.67 276.78
  Q 602.14 278.17 601.61 282.93
  Q 601.57 283.31 601.82 283.59
  L 609.79 292.93
  A 0.85 0.82 17.3 0 1 609.95 293.22
  Q 610.47 295.08 612.13 296.17
  Q 612.56 296.45 613.04 296.27
  C 621.49 293.12 631.88 293.92 626.52 306.56
  C 625.15 309.78 622.10 310.93 619.07 312.16
  Q 618.63 312.34 618.38 312.73
  C 617.11 314.77 617.46 316.77 616.56 318.65
  Q 615.03 321.85 612.52 324.44
  A 0.26 0.26 0.0 0 0 612.86 324.84
  Z"
/>
<path id="america" stroke="#000" stroke-width="3" fill="#ffffff" d="
  M 215.34 551.89
  L 215.58 550.57
  Q 215.69 549.95 216.29 550.15
  Q 219.09 551.08 222.01 550.07
  Q 222.51 549.90 222.46 549.37
  L 222.19 546.31
  A 0.77 0.76 -32.0 0 1 222.31 545.81
  Q 225.41 540.91 230.66 538.39
  Q 231.72 537.88 232.02 539.02
  L 232.73 541.75
  Q 232.96 542.62 233.82 542.38
  L 236.67 541.61
  Q 237.28 541.44 237.28 540.80
  C 237.25 536.80 235.48 531.72 239.80 529.44
  A 0.73 0.72 56.0 0 1 240.70 529.62
  C 243.70 533.28 242.33 538.55 241.34 542.56
  A 1.61 1.61 0.0 0 0 244.21 543.88
  Q 246.78 540.28 247.79 536.22
  Q 247.95 535.57 248.42 536.05
  L 250.24 537.87
  Q 250.62 538.25 251.09 537.97
  L 253.08 536.79
  Q 253.64 536.47 253.35 535.89
  C 252.46 534.13 249.08 530.60 251.55 529.13
  A 0.75 0.74 64.8 0 0 251.86 528.25
  Q 250.97 525.72 253.16 525.20
  A 0.76 0.75 -10.1 0 0 253.73 524.39
  L 253.40 521.22
  A 1.19 1.19 0.0 0 0 252.98 520.43
  Q 250.39 518.27 252.02 514.91
  Q 252.25 514.44 252.77 514.47
  L 256.55 514.65
  Q 257.32 514.69 257.45 513.93
  L 257.75 512.21
  A 0.64 0.64 0.0 0 0 257.37 511.51
  Q 254.55 510.31 253.43 507.52
  A 0.70 0.70 0.0 0 1 254.34 506.61
  L 261.71 509.58
  Q 262.25 509.79 262.25 509.22
  L 262.25 502.75
  A 0.33 0.33 0.0 0 1 262.66 502.43
  Q 268.22 503.72 273.38 502.81
  C 276.34 502.29 278.41 502.90 278.79 506.12
  A 0.77 0.73 -79.7 0 0 279.15 506.67
  Q 279.64 506.97 279.53 507.62
  Q 279.38 508.50 280.27 508.50
  L 322.72 508.50
  A 1.69 1.69 0.0 0 1 324.39 509.92
  C 324.82 512.56 324.81 517.36 321.90 518.87
  Q 321.41 519.12 321.47 519.67
  L 322.83 533.15
  Q 322.86 533.52 323.19 533.70
  Q 329.08 536.87 335.25 539.53
  Q 335.75 539.75 336.26 540.13
  Q 337.05 540.74 337.28 540.71
  Q 339.23 540.45 339.46 542.81
  Q 339.81 546.36 343.35 547.56
  Q 343.63 547.65 343.71 547.94
  Q 343.75 548.06 343.75 548.27
  Q 343.75 548.50 343.98 548.50
  L 351.01 548.50
  A 1.78 1.78 0.0 0 1 352.78 550.43
  C 352.60 552.55 352.56 556.81 356.01 555.56
  C 360.57 553.90 365.14 550.80 368.61 551.25
  C 370.19 551.46 372.15 553.60 373.49 553.54
  Q 376.31 553.41 379.10 553.61
  C 380.83 553.73 382.23 555.03 384.34 554.44
  Q 384.82 554.31 385.24 554.58
  Q 387.66 556.14 390.47 555.54
  Q 390.96 555.44 391.25 555.84
  Q 391.57 556.30 391.94 556.30
  Q 394.74 556.28 397.27 556.88
  Q 398.62 557.21 399.11 558.50
  L 401.69 565.24
  A 0.60 0.60 0.0 0 0 402.56 565.53
  Q 404.46 564.34 406.48 565.20
  Q 406.99 565.42 407.38 565.01
  Q 409.09 563.20 410.05 563.03
  Q 423.32 560.62 445.25 559.20
  Q 448.61 558.98 449.06 561.40
  Q 449.16 561.94 449.55 562.32
  C 451.75 564.54 453.29 565.37 454.14 568.55
  Q 454.27 569.01 454.10 569.46
  Q 453.16 571.90 453.77 574.44
  A 0.92 0.90 -87.8 0 0 454.36 575.09
  Q 456.32 575.76 456.80 577.73
  A 1.32 1.31 53.6 0 1 456.66 578.69
  C 455.29 581.15 453.92 583.32 454.45 586.26
  Q 455.59 592.64 459.21 598.05
  Q 459.61 598.64 460.29 598.43
  L 462.72 597.67
  A 2.13 2.09 -47.9 0 1 463.71 597.61
  Q 469.21 598.60 472.28 603.22
  A 1.59 1.57 46.5 0 1 472.24 605.04
  Q 468.57 610.06 468.48 616.59
  C 468.43 620.26 467.77 622.70 466.78 625.90
  Q 466.63 626.39 466.91 626.81
  Q 468.89 629.72 471.97 631.52
  A 0.91 0.89 -83.4 0 1 472.38 632.05
  L 474.73 640.67
  Q 474.84 641.07 475.23 641.24
  C 479.99 643.23 482.39 641.40 486.70 641.41
  Q 487.39 641.41 487.54 640.74
  L 488.58 636.07
  A 2.05 2.05 0.0 0 1 490.65 634.47
  Q 495.00 634.62 499.50 634.36
  C 501.26 634.25 502.74 633.15 504.77 633.24
  Q 505.25 633.26 505.66 632.99
  Q 507.61 631.72 509.84 631.43
  Q 510.36 631.36 510.75 631.72
  C 515.58 636.21 522.22 642.14 524.60 648.36
  Q 530.08 662.64 535.75 676.94
  A 0.72 0.72 0.0 0 1 534.88 677.90
  L 533.32 677.45
  A 0.96 0.96 0.0 0 0 532.38 679.05
  L 547.74 694.32
  A 1.00 0.99 39.9 0 1 547.86 695.59
  C 544.85 699.96 545.27 702.80 544.52 707.79
  Q 544.45 708.27 544.60 708.74
  C 545.72 712.09 542.03 715.73 547.21 717.43
  Q 547.74 717.60 547.63 718.15
  C 546.49 724.03 550.74 726.67 550.48 732.07
  Q 550.45 732.60 549.93 732.67
  L 547.34 733.00
  Q 546.73 733.08 546.58 733.68
  L 542.32 751.26
  Q 542.20 751.76 541.68 751.74
  Q 539.52 751.69 537.82 753.01
  A 0.87 0.86 -26.6 0 0 537.52 753.90
  C 538.11 756.14 539.69 758.40 536.55 759.78
  Q 536.12 759.97 535.66 759.84
  C 532.67 759.06 530.63 763.07 530.47 765.40
  A 0.57 0.56 1.9 0 0 531.04 766.00
  L 532.11 766.00
  A 1.29 1.29 0.0 0 1 533.02 768.21
  L 530.59 770.62
  Q 530.24 770.97 530.25 771.47
  Q 530.36 776.07 527.50 779.32
  Q 527.05 779.84 524.12 781.68
  C 521.07 783.59 521.03 787.61 519.36 790.23
  A 1.26 1.24 -77.1 0 1 518.50 790.78
  C 514.45 791.35 511.24 792.27 508.42 795.58
  C 505.54 798.98 501.49 804.26 497.20 805.72
  Q 482.10 810.85 472.48 816.21
  Q 470.08 817.56 467.28 821.56
  Q 467.03 821.91 466.63 822.05
  L 464.32 822.84
  Q 463.82 823.01 463.53 823.46
  Q 459.14 830.55 453.07 836.30
  A 0.54 0.54 0.0 0 1 452.17 835.99
  L 450.83 826.34
  Q 450.74 825.72 451.34 825.52
  Q 455.55 824.12 458.49 820.74
  Q 458.98 820.19 458.49 819.64
  L 455.97 816.79
  A 0.70 0.70 0.0 0 0 454.98 816.74
  L 451.34 820.06
  A 0.91 0.90 24.2 0 1 450.70 820.30
  Q 445.86 820.18 444.56 824.67
  A 1.36 1.35 0.3 0 1 443.61 825.60
  Q 440.24 826.50 439.37 830.04
  A 0.47 0.46 36.7 0 1 438.52 830.16
  C 436.81 827.26 435.22 824.09 433.32 821.43
  Q 403.52 779.64 367.55 743.10
  Q 361.02 736.46 352.74 729.68
  Q 332.98 713.51 313.19 697.37
  C 309.07 694.01 310.28 689.69 306.59 686.03
  Q 306.21 685.65 305.69 685.55
  Q 300.76 684.64 301.84 679.50
  Q 301.98 678.84 301.31 678.83
  C 298.29 678.80 298.90 672.66 293.05 673.45
  Q 292.44 673.53 292.27 672.94
  L 291.47 670.07
  Q 291.28 669.39 291.98 669.52
  C 296.65 670.44 305.00 668.17 309.99 667.55
  A 0.82 0.80 3.0 0 0 310.68 666.94
  C 311.45 663.89 306.35 664.01 304.49 663.55
  A 1.77 1.70 -14.3 0 1 303.70 663.10
  C 299.13 658.34 294.04 653.51 286.78 656.26
  Q 286.26 656.46 285.92 656.02
  Q 284.72 654.45 286.34 653.54
  A 1.32 1.32 0.0 0 0 286.06 651.13
  Q 281.94 649.94 281.27 645.49
  A 1.05 1.04 14.9 0 0 280.87 644.81
  L 276.59 641.58
  Q 276.18 641.26 275.67 641.31
  Q 271.96 641.61 268.50 639.98
  Q 268.00 639.74 268.00 639.18
  L 268.00 637.76
  A 0.82 0.81 11.4 0 0 267.50 637.01
  L 264.20 635.65
  A 1.18 1.18 0.0 0 1 263.48 634.61
  Q 263.41 632.62 264.90 632.86
  Q 268.71 633.47 270.35 636.76
  Q 270.55 637.14 270.98 637.18
  L 275.26 637.53
  Q 275.94 637.58 276.31 638.15
  Q 277.80 640.43 280.13 638.77
  Q 280.56 638.47 281.03 638.70
  C 283.87 640.09 290.19 637.18 293.11 636.11
  C 295.60 635.19 296.37 633.38 297.51 631.18
  A 1.14 1.14 0.0 0 0 296.00 629.63
  L 294.71 630.27
  Q 294.20 630.52 293.88 630.05
  L 293.34 629.25
  A 0.64 0.64 0.0 0 1 293.57 628.33
  C 296.02 627.03 298.43 626.03 300.15 623.71
  Q 303.09 619.75 305.85 615.65
  C 307.95 612.55 307.78 607.74 308.34 604.07
  Q 308.43 603.52 307.98 603.19
  L 303.76 600.03
  A 0.89 0.88 48.8 0 0 302.78 599.96
  Q 296.61 603.47 292.59 609.01
  C 290.19 612.32 291.68 615.79 288.55 619.46
  Q 288.21 619.86 287.73 620.07
  Q 284.86 621.32 283.50 624.23
  A 0.96 0.96 0.0 0 1 281.94 624.49
  L 280.10 622.61
  A 0.69 0.68 -47.7 0 0 279.09 622.66
  L 276.06 626.34
  A 1.39 1.37 15.3 0 1 275.22 626.81
  Q 273.32 627.13 272.33 628.81
  A 1.47 1.47 0.0 0 1 269.62 628.39
  Q 268.72 624.36 265.96 621.49
  Q 265.59 621.10 265.57 620.56
  C 265.39 614.16 269.22 613.07 274.54 612.14
  Q 275.08 612.05 275.32 611.56
  Q 276.91 608.25 275.05 605.11
  A 0.72 0.72 0.0 0 0 274.25 604.79
  L 266.54 606.98
  A 0.83 0.83 0.0 0 1 265.63 605.71
  L 268.75 601.23
  A 0.77 0.76 56.5 0 0 268.87 600.61
  C 267.46 594.34 272.74 593.86 277.11 593.14
  Q 277.66 593.05 278.00 592.61
  L 280.40 589.61
  Q 280.73 589.20 280.52 588.71
  C 279.12 585.36 276.96 582.50 273.06 581.96
  C 263.78 580.67 253.83 581.68 244.46 581.95
  Q 243.89 581.97 243.77 582.52
  L 242.91 586.51
  Q 242.76 587.24 242.13 586.85
  L 233.68 581.56
  A 0.52 0.48 -28.8 0 0 233.44 581.50
  L 224.08 581.51
  A 0.89 0.88 12.7 0 0 223.28 582.01
  Q 222.08 584.48 220.06 586.31
  Q 219.66 586.67 219.72 587.21
  L 219.90 589.11
  A 0.75 0.74 -8.5 0 1 219.30 589.91
  C 215.44 590.65 209.82 592.74 206.05 591.75
  Q 195.74 589.05 186.54 583.72
  Q 185.02 582.84 184.18 584.20
  A 0.49 0.48 -84.4 0 1 183.92 584.42
  L 175.89 587.28
  Q 175.41 587.45 175.15 587.90
  C 173.59 590.69 172.51 593.55 170.39 595.86
  Q 167.92 598.53 165.15 600.90
  Q 163.16 602.59 161.40 599.82
  Q 160.82 598.90 159.74 599.01
  L 156.64 599.31
  A 0.87 0.87 0.0 0 1 155.81 598.91
  C 152.60 593.79 158.06 588.73 159.57 584.02
  A 1.92 1.84 -40.6 0 0 159.65 583.21
  Q 159.42 581.53 157.92 580.87
  A 0.80 0.80 0.0 0 1 157.46 580.01
  Q 157.94 577.14 156.13 574.95
  A 0.49 0.49 0.0 0 1 156.47 574.15
  L 169.21 573.12
  A 1.17 1.17 0.0 0 0 170.08 572.63
  C 172.65 568.98 178.64 569.01 182.72 568.28
  A 0.75 0.68 -66.4 0 0 183.05 568.13
  L 189.98 562.62
  Q 190.36 562.32 190.26 561.84
  L 189.86 559.93
  A 0.65 0.65 0.0 0 1 190.21 559.22
  L 192.22 558.26
  A 0.59 0.59 0.0 0 0 192.51 557.52
  L 189.72 550.03
  A 0.59 0.59 0.0 0 1 190.63 549.35
  L 195.15 552.73
  A 0.62 0.61 38.6 0 0 195.98 552.64
  L 198.19 550.12
  Q 198.59 549.67 199.16 549.85
  Q 201.64 550.61 203.39 552.47
  Q 203.70 552.79 204.14 552.77
  L 214.85 552.32
  A 0.52 0.52 0.0 0 0 215.34 551.89
  Z"
/>
</svg>