<?xml version="1.0" encoding="UTF-8" standalone="no"?>
<!DOCTYPE svg PUBLIC "-//W3C//DTD SVG 1.1//EN" "http://www.w3.org/Graphics/SVG/1.1/DTD/svg11.dtd">
<svg xmlns="http://www.w3.org/2000/svg" version="1.1" viewBox="0.00 0.00 1024.00 1024.00">
<path stroke="#808080" stroke-width="2.00" fill="none" stroke-linecap="butt" vector-effect="non-scaling-stroke" d="
  M 606.23 661.92
  L 604.59 664.79
  Q 604.39 665.14 604.43 665.53
  C 604.87 669.94 600.85 678.78 596.78 680.74
  A 0.56 0.55 -22.9 0 0 596.50 681.42
  L 597.71 684.96
  A 0.95 0.92 54.3 0 1 597.58 685.82
  Q 594.08 690.53 598.89 693.69
  Q 599.38 694.01 599.26 694.58
  Q 598.87 696.57 600.58 697.41
  A 1.02 1.00 9.7 0 1 601.14 698.18
  L 601.32 699.47
  Q 601.39 699.97 601.74 700.33
  Q 604.15 702.79 603.39 706.39
  A 0.78 0.72 42.6 0 0 603.42 706.75
  L 604.45 709.78
  Q 604.58 710.16 604.86 710.46
  Q 610.18 716.20 614.55 722.69
  C 619.20 729.58 626.36 723.28 632.15 725.86
  Q 634.36 726.85 636.44 728.21
  A 0.97 0.96 50.6 0 0 637.30 728.30
  L 642.82 726.28
  Q 643.35 726.09 643.90 726.21
  C 646.57 726.81 648.51 725.47 650.60 725.48
  C 653.79 725.50 659.55 725.66 659.78 729.98
  Q 659.96 733.43 662.69 735.04
  Q 663.21 735.34 663.74 735.07
  Q 665.95 733.98 667.71 735.48
  A 0.73 0.72 42.6 0 0 668.69 735.44
  L 669.29 734.83
  A 0.54 0.54 0.0 0 1 670.16 734.99
  Q 671.05 736.97 672.75 738.31
  A 1.23 1.17 15.4 0 1 673.17 739.01
  Q 674.02 743.42 670.85 746.73
  Q 670.52 747.08 670.60 747.55
  Q 671.28 751.62 667.92 753.84
  A 0.97 0.96 73.2 0 0 667.48 754.67
  Q 667.52 759.03 670.29 762.36
  A 1.08 1.08 0.0 0 1 670.51 763.29
  Q 670.32 764.18 671.04 764.65
  Q 671.45 764.92 671.67 765.35
  C 673.22 768.41 674.38 770.68 674.84 774.29
  C 675.31 777.95 677.62 783.10 675.42 786.40
  Q 675.18 786.77 675.27 787.21
  L 676.40 792.30
  A 1.15 1.14 -41.6 0 1 676.36 792.93
  L 674.62 797.82
  A 0.61 0.59 89.1 0 1 674.30 798.16
  C 670.01 800.12 668.41 806.02 666.55 810.00
  C 663.29 816.97 667.89 825.54 669.91 832.72
  C 670.77 835.78 668.67 840.52 669.78 842.50
  Q 670.02 842.93 669.97 843.41
  C 669.74 846.03 669.08 851.10 670.28 853.43
  C 671.31 855.45 672.47 856.86 672.93 859.08
  Q 674.03 864.38 675.10 869.68
  Q 675.60 872.16 673.66 872.95
  Q 673.19 873.14 673.30 873.64
  Q 673.84 876.07 674.99 878.30
  C 677.17 882.51 679.94 879.36 682.85 881.09
  A 0.84 0.84 0.0 0 0 683.85 880.98
  L 684.85 880.05
  Q 685.19 879.73 685.61 879.95
  C 686.83 880.60 690.71 881.24 690.77 881.31
  A 3.28 3.01 -37.8 0 0 695.03 881.67
  Q 696.04 880.93 697.08 881.79
  Q 697.45 882.10 697.85 881.83
  Q 706.98 875.76 716.00 869.55
  C 720.50 866.44 722.61 863.35 723.16 858.14
  Q 723.21 857.65 723.68 857.49
  C 726.70 856.46 729.46 856.98 732.25 854.71
  Q 732.62 854.41 732.78 853.96
  C 733.86 850.86 735.02 848.61 734.80 845.20
  Q 734.64 842.65 734.39 840.10
  Q 734.34 839.60 734.74 839.30
  Q 736.86 837.69 739.20 836.55
  C 743.21 834.61 745.99 832.05 750.89 831.56
  A 1.16 1.13 23.8 0 0 751.45 831.35
  L 756.64 827.71
  Q 756.97 827.48 757.04 827.08
  Q 757.25 825.71 758.29 824.84
  A 0.87 0.87 0.0 0 0 758.59 824.00
  C 758.08 821.45 759.18 819.36 759.48 817.05
  C 759.89 813.85 763.87 809.85 760.81 807.40
  Q 760.48 807.13 760.57 806.73
  Q 761.09 804.39 760.21 802.13
  A 1.03 0.99 -49.7 0 1 760.17 801.51
  L 760.90 798.34
  Q 760.98 797.98 761.23 797.70
  C 763.28 795.37 759.15 794.24 760.62 791.63
  C 766.55 781.11 775.80 774.55 786.72 767.43
  C 796.07 761.34 800.22 756.22 806.50 746.38
  C 809.17 742.19 810.54 738.51 811.09 733.86
  A 1.22 1.22 0.0 0 0 809.04 732.82
  Q 807.35 734.38 805.10 733.46
  A 0.72 0.70 43.4 0 0 804.53 733.47
  Q 801.76 734.78 799.01 733.98
  Q 798.59 733.86 798.21 734.11
  L 796.52 735.26
  Q 796.00 735.61 795.50 735.23
  C 792.15 732.67 790.35 738.15 787.69 733.64
  Q 786.96 732.39 786.29 731.11
  Q 786.08 730.71 785.64 730.58
  L 784.56 730.24
  A 0.33 0.33 0.0 0 1 784.61 729.60
  Q 786.09 729.41 786.41 728.27
  Q 786.62 727.51 786.03 726.41
  Q 782.24 719.37 776.10 714.28
  Q 775.67 713.92 775.57 713.37
  L 773.98 704.84
  Q 773.90 704.39 773.59 704.06
  C 770.10 700.39 770.42 697.83 771.20 693.09
  A 1.57 1.55 35.3 0 0 771.02 692.07
  Q 770.24 690.68 770.53 689.06
  Q 770.61 688.62 770.27 688.32
  C 768.42 686.64 764.73 683.60 767.21 681.79
  A 0.55 0.54 51.9 0 0 767.30 681.00
  L 765.64 679.01
  Q 765.30 678.60 765.23 678.09
  C 764.60 673.73 762.17 670.12 761.66 665.30
  Q 761.63 664.95 761.28 664.88
  Q 760.35 664.68 760.07 663.22
  Q 759.58 660.66 759.47 659.22
  A 0.38 0.38 0.0 0 1 760.21 659.09
  L 761.34 663.56
  Q 761.45 664.00 761.81 664.28
  Q 762.76 665.02 763.06 666.22
  A 0.68 0.68 0.0 0 0 764.28 666.43
  Q 768.11 660.64 765.00 654.40
  Q 764.75 653.88 764.22 653.64
  Q 763.16 653.16 762.74 654.14
  A 0.66 0.65 -75.4 0 1 762.09 654.53
  Q 760.19 654.37 759.08 652.97
  Q 758.75 652.55 758.25 652.39
  Q 754.85 651.27 751.62 652.53
  Q 751.34 652.63 751.28 652.93
  Q 751.16 653.44 750.53 653.64
  A 0.86 0.85 47.5 0 1 749.90 653.61
  L 741.58 649.73
  Q 741.07 649.49 740.51 649.53
  Q 738.66 649.64 737.88 647.90
  A 1.11 1.10 84.8 0 0 737.15 647.29
  L 734.25 646.53
  Q 733.72 646.39 733.46 645.90
  C 731.32 641.84 722.85 641.56 723.18 647.70
  C 723.32 650.45 720.01 652.00 718.31 649.21
  Q 718.04 648.77 717.58 648.52
  L 710.78 644.86
  A 1.04 1.03 -73.7 0 1 710.23 643.85
  L 710.40 641.78
  Q 710.44 641.27 709.99 641.05
  Q 708.32 640.21 706.68 639.35
  C 703.39 637.63 700.08 638.78 698.81 634.02
  Q 698.67 633.51 698.15 633.61
  L 697.23 633.79
  A 0.82 0.81 23.9 0 1 696.65 632.29
  L 699.91 630.35
  Q 700.32 630.11 700.54 629.69
  Q 701.47 627.89 700.04 626.18
  A 0.91 0.90 63.0 0 1 700.51 624.72
  Q 701.78 624.41 702.26 623.26
  A 0.55 0.55 0.0 0 0 701.75 622.50
  L 700.50 622.50
  A 0.69 0.67 74.1 0 1 699.92 622.17
  Q 698.38 619.61 695.54 621.40
  A 0.73 0.72 -45.4 0 1 694.78 621.41
  Q 692.38 619.96 688.74 619.56
  Q 679.29 618.50 673.07 618.48
  A 1.58 1.55 25.1 0 0 672.08 618.83
  Q 671.18 619.58 669.99 619.50
  Q 669.53 619.46 669.10 619.28
  Q 667.98 618.79 666.43 620.62
  Q 665.51 621.70 664.35 620.88
  Q 661.49 618.85 657.98 618.59
  Q 657.39 618.54 657.13 618.02
  L 656.15 616.03
  A 0.85 0.85 0.0 0 0 654.77 615.84
  L 650.12 620.83
  A 1.36 1.35 20.0 0 1 649.21 621.25
  C 644.18 621.50 637.80 626.34 637.16 631.16
  C 636.57 635.50 628.86 637.43 625.36 637.59
  Q 624.81 637.61 624.51 638.07
  Q 622.45 641.17 618.89 642.23
  Q 618.34 642.39 618.07 642.90
  Q 615.49 647.74 610.77 650.65
  Q 610.32 650.92 610.10 651.39
  C 608.70 654.33 602.19 657.10 606.10 661.00
  Q 606.52 661.41 606.23 661.92"
/>
<path fill="#000000" d="
  M 599.18 703.99
  Q 596.80 700.60 595.48 696.50
  Q 595.33 696.04 594.94 695.74
  Q 590.37 692.29 592.23 686.75
  Q 592.98 684.48 592.81 682.94
  C 592.30 678.33 594.26 678.49 596.20 675.64
  Q 598.03 672.95 599.78 670.21
  A 1.28 1.28 0.0 0 0 599.98 669.49
  Q 599.97 665.60 601.46 662.01
  Q 601.65 661.55 601.46 661.09
  C 598.93 654.62 606.21 649.76 610.29 645.80
  C 611.91 644.21 613.61 643.63 614.38 640.88
  Q 614.52 640.38 614.96 640.10
  L 620.91 636.31
  A 1.35 1.35 0.0 0 0 621.32 635.90
  Q 623.52 632.59 627.69 633.01
  Q 629.34 633.18 632.16 630.93
  Q 632.52 630.64 632.69 630.20
  Q 636.33 620.49 645.89 617.60
  C 649.84 616.40 651.24 612.32 654.64 611.85
  Q 658.26 611.35 660.13 614.74
  A 0.83 0.82 70.0 0 0 661.00 615.15
  Q 662.78 614.83 664.43 615.60
  Q 664.91 615.82 665.42 615.67
  Q 670.76 614.09 676.24 614.05
  C 677.96 614.04 679.89 615.23 682.09 614.05
  A 0.99 0.96 -44.4 0 1 683.00 614.05
  C 685.56 615.42 687.85 614.84 690.27 615.54
  Q 692.49 616.19 694.78 616.63
  Q 695.22 616.71 695.64 616.57
  L 697.06 616.11
  A 1.30 1.28 43.1 0 1 697.83 616.09
  Q 699.95 616.68 701.72 617.93
  C 705.08 620.33 706.87 620.54 705.66 625.44
  Q 705.00 628.14 704.66 630.94
  A 0.55 0.52 -22.7 0 1 704.54 631.21
  L 702.95 633.06
  Q 702.43 633.66 703.21 633.83
  Q 707.45 634.77 711.28 636.77
  C 715.32 638.87 712.65 643.48 718.71 644.02
  Q 719.19 644.07 719.52 643.71
  C 721.27 641.83 722.83 639.55 725.47 639.08
  C 728.72 638.50 731.19 638.78 734.09 640.81
  C 738.89 644.17 744.75 645.72 749.19 648.98
  A 1.01 1.00 47.7 0 0 750.30 649.04
  L 753.43 647.17
  A 1.22 1.21 36.2 0 1 754.35 647.03
  Q 758.36 647.96 762.09 649.65
  A 1.45 1.38 -33.9 0 0 762.79 649.77
  Q 765.64 649.58 768.05 651.04
  A 1.15 1.14 10.2 0 1 768.57 651.78
  L 770.90 662.28
  A 0.60 0.43 -62.1 0 1 770.92 662.43
  Q 770.92 664.39 769.42 665.40
  A 1.04 1.03 73.3 0 0 768.98 666.23
  Q 768.98 668.08 767.64 669.25
  Q 767.23 669.61 767.36 670.14
  L 768.92 676.56
  Q 769.04 677.02 769.37 677.36
  C 771.68 679.71 770.64 680.45 771.19 683.26
  A 1.19 1.17 10.4 0 0 771.73 684.03
  C 777.11 687.28 772.93 697.20 777.17 702.18
  C 779.53 704.96 779.11 707.18 779.00 710.56
  A 1.23 1.21 23.9 0 0 779.36 711.47
  Q 781.54 713.70 783.75 715.87
  C 785.59 717.68 786.36 720.34 788.82 722.01
  Q 789.26 722.31 789.45 722.80
  Q 790.83 726.28 790.13 729.91
  A 0.83 0.83 0.0 0 0 791.43 730.73
  Q 793.07 729.53 794.81 730.37
  Q 795.22 730.57 795.66 730.44
  Q 797.57 729.88 801.26 730.07
  C 804.76 730.26 812.70 726.19 814.78 731.63
  C 816.69 736.59 813.24 743.56 810.57 747.61
  C 805.64 755.11 801.47 761.73 794.27 767.39
  C 791.79 769.34 788.16 771.24 785.05 773.55
  Q 775.13 780.96 771.13 784.07
  C 770.73 784.39 770.63 784.66 770.50 785.12
  Q 770.40 785.48 770.12 785.73
  Q 767.07 788.57 765.06 792.27
  Q 764.86 792.63 765.07 792.98
  Q 767.41 797.10 764.40 800.62
  A 1.29 1.29 0.0 0 0 764.10 801.66
  C 764.75 805.80 767.92 810.45 764.51 814.51
  Q 764.16 814.93 764.09 815.46
  Q 763.12 823.01 760.51 830.13
  Q 760.35 830.58 759.96 830.86
  Q 754.32 834.86 747.74 836.92
  C 745.00 837.78 743.17 839.74 740.59 840.52
  A 2.77 2.76 -20.7 0 0 738.88 844.30
  Q 740.71 848.35 738.45 851.84
  Q 738.15 852.29 738.16 852.84
  C 738.23 858.03 731.97 859.84 728.04 860.59
  A 1.77 1.77 0.0 0 0 726.63 861.99
  Q 725.48 867.91 720.14 871.68
  Q 713.62 876.27 707.02 880.76
  C 706.51 881.11 706.37 881.49 705.96 881.96
  A 1.80 1.80 0.0 0 1 705.04 882.53
  Q 702.59 883.14 700.90 885.01
  A 3.25 3.23 -63.8 0 1 697.92 886.03
  Q 695.08 885.52 692.31 886.31
  A 1.51 1.49 49.5 0 1 691.24 886.22
  Q 689.25 885.25 687.14 884.90
  C 685.24 884.58 683.14 885.60 680.82 884.65
  Q 680.38 884.47 679.93 884.64
  C 676.03 886.13 673.76 882.66 670.91 880.86
  A 1.23 1.21 -79.6 0 1 670.37 880.06
  C 669.77 876.78 667.58 872.46 670.43 869.71
  Q 670.76 869.40 670.77 868.95
  Q 670.82 866.85 669.92 864.95
  A 2.00 1.93 35.9 0 1 669.74 863.93
  C 669.96 861.80 668.08 859.30 667.70 857.02
  Q 667.61 856.51 667.24 856.15
  C 665.08 854.09 665.70 848.77 665.74 844.42
  C 665.76 841.87 664.28 839.47 666.09 836.43
  A 1.34 1.29 -35.3 0 0 666.26 835.54
  Q 665.62 831.77 664.10 828.38
  C 662.79 825.46 663.12 822.78 661.32 819.89
  A 1.96 1.94 28.5 0 1 661.04 818.96
  C 660.91 814.45 660.51 810.84 662.42 808.02
  C 665.18 803.94 666.05 800.09 669.71 796.34
  C 670.94 795.08 671.26 793.81 671.71 792.22
  Q 671.85 791.73 671.60 791.29
  C 669.96 788.45 672.35 785.41 671.79 782.25
  C 671.07 778.16 670.93 776.28 670.67 773.08
  Q 670.62 772.49 670.20 772.08
  L 669.58 771.46
  A 1.27 1.27 0.0 0 1 669.22 770.60
  Q 669.18 768.77 667.76 767.66
  A 1.45 1.44 -75.0 0 1 667.22 766.72
  C 666.78 763.74 664.77 762.07 664.04 759.70
  Q 663.42 757.68 663.02 755.59
  Q 662.93 755.08 663.15 754.62
  Q 664.11 752.64 665.14 750.69
  C 666.56 747.98 667.15 744.69 669.13 742.01
  A 1.12 1.12 0.0 0 0 668.68 740.32
  L 665.69 739.01
  Q 665.19 738.78 664.65 738.90
  C 659.06 740.13 656.83 734.88 655.61 730.45
  A 0.66 0.65 79.4 0 0 654.92 729.97
  C 652.84 730.17 651.25 729.46 649.37 729.77
  Q 644.22 730.61 639.14 731.81
  C 635.82 732.59 633.32 731.42 630.65 729.76
  Q 630.25 729.51 629.80 729.66
  Q 627.83 730.34 625.75 729.65
  A 1.19 1.18 45.4 0 0 625.03 729.64
  C 618.34 731.61 612.12 728.12 608.99 722.19
  Q 607.26 718.89 604.59 716.31
  C 601.90 713.70 600.78 711.30 599.05 708.28
  A 1.24 1.24 0.0 0 1 598.91 707.45
  L 599.37 704.88
  Q 599.46 704.39 599.18 703.99
  Z
  M 606.23 661.92
  L 604.59 664.79
  Q 604.39 665.14 604.43 665.53
  C 604.87 669.94 600.85 678.78 596.78 680.74
  A 0.56 0.55 -22.9 0 0 596.50 681.42
  L 597.71 684.96
  A 0.95 0.92 54.3 0 1 597.58 685.82
  Q 594.08 690.53 598.89 693.69
  Q 599.38 694.01 599.26 694.58
  Q 598.87 696.57 600.58 697.41
  A 1.02 1.00 9.7 0 1 601.14 698.18
  L 601.32 699.47
  Q 601.39 699.97 601.74 700.33
  Q 604.15 702.79 603.39 706.39
  A 0.78 0.72 42.6 0 0 603.42 706.75
  L 604.45 709.78
  Q 604.58 710.16 604.86 710.46
  Q 610.18 716.20 614.55 722.69
  C 619.20 729.58 626.36 723.28 632.15 725.86
  Q 634.36 726.85 636.44 728.21
  A 0.97 0.96 50.6 0 0 637.30 728.30
  L 642.82 726.28
  Q 643.35 726.09 643.90 726.21
  C 646.57 726.81 648.51 725.47 650.60 725.48
  C 653.79 725.50 659.55 725.66 659.78 729.98
  Q 659.96 733.43 662.69 735.04
  Q 663.21 735.34 663.74 735.07
  Q 665.95 733.98 667.71 735.48
  A 0.73 0.72 42.6 0 0 668.69 735.44
  L 669.29 734.83
  A 0.54 0.54 0.0 0 1 670.16 734.99
  Q 671.05 736.97 672.75 738.31
  A 1.23 1.17 15.4 0 1 673.17 739.01
  Q 674.02 743.42 670.85 746.73
  Q 670.52 747.08 670.60 747.55
  Q 671.28 751.62 667.92 753.84
  A 0.97 0.96 73.2 0 0 667.48 754.67
  Q 667.52 759.03 670.29 762.36
  A 1.08 1.08 0.0 0 1 670.51 763.29
  Q 670.32 764.18 671.04 764.65
  Q 671.45 764.92 671.67 765.35
  C 673.22 768.41 674.38 770.68 674.84 774.29
  C 675.31 777.95 677.62 783.10 675.42 786.40
  Q 675.18 786.77 675.27 787.21
  L 676.40 792.30
  A 1.15 1.14 -41.6 0 1 676.36 792.93
  L 674.62 797.82
  A 0.61 0.59 89.1 0 1 674.30 798.16
  C 670.01 800.12 668.41 806.02 666.55 810.00
  C 663.29 816.97 667.89 825.54 669.91 832.72
  C 670.77 835.78 668.67 840.52 669.78 842.50
  Q 670.02 842.93 669.97 843.41
  C 669.74 846.03 669.08 851.10 670.28 853.43
  C 671.31 855.45 672.47 856.86 672.93 859.08
  Q 674.03 864.38 675.10 869.68
  Q 675.60 872.16 673.66 872.95
  Q 673.19 873.14 673.30 873.64
  Q 673.84 876.07 674.99 878.30
  C 677.17 882.51 679.94 879.36 682.85 881.09
  A 0.84 0.84 0.0 0 0 683.85 880.98
  L 684.85 880.05
  Q 685.19 879.73 685.61 879.95
  C 686.83 880.60 690.71 881.24 690.77 881.31
  A 3.28 3.01 -37.8 0 0 695.03 881.67
  Q 696.04 880.93 697.08 881.79
  Q 697.45 882.10 697.85 881.83
  Q 706.98 875.76 716.00 869.55
  C 720.50 866.44 722.61 863.35 723.16 858.14
  Q 723.21 857.65 723.68 857.49
  C 726.70 856.46 729.46 856.98 732.25 854.71
  Q 732.62 854.41 732.78 853.96
  C 733.86 850.86 735.02 848.61 734.80 845.20
  Q 734.64 842.65 734.39 840.10
  Q 734.34 839.60 734.74 839.30
  Q 736.86 837.69 739.20 836.55
  C 743.21 834.61 745.99 832.05 750.89 831.56
  A 1.16 1.13 23.8 0 0 751.45 831.35
  L 756.64 827.71
  Q 756.97 827.48 757.04 827.08
  Q 757.25 825.71 758.29 824.84
  A 0.87 0.87 0.0 0 0 758.59 824.00
  C 758.08 821.45 759.18 819.36 759.48 817.05
  C 759.89 813.85 763.87 809.85 760.81 807.40
  Q 760.48 807.13 760.57 806.73
  Q 761.09 804.39 760.21 802.13
  A 1.03 0.99 -49.7 0 1 760.17 801.51
  L 760.90 798.34
  Q 760.98 797.98 761.23 797.70
  C 763.28 795.37 759.15 794.24 760.62 791.63
  C 766.55 781.11 775.80 774.55 786.72 767.43
  C 796.07 761.34 800.22 756.22 806.50 746.38
  C 809.17 742.19 810.54 738.51 811.09 733.86
  A 1.22 1.22 0.0 0 0 809.04 732.82
  Q 807.35 734.38 805.10 733.46
  A 0.72 0.70 43.4 0 0 804.53 733.47
  Q 801.76 734.78 799.01 733.98
  Q 798.59 733.86 798.21 734.11
  L 796.52 735.26
  Q 796.00 735.61 795.50 735.23
  C 792.15 732.67 790.35 738.15 787.69 733.64
  Q 786.96 732.39 786.29 731.11
  Q 786.08 730.71 785.64 730.58
  L 784.56 730.24
  A 0.33 0.33 0.0 0 1 784.61 729.60
  Q 786.09 729.41 786.41 728.27
  Q 786.62 727.51 786.03 726.41
  Q 782.24 719.37 776.10 714.28
  Q 775.67 713.92 775.57 713.37
  L 773.98 704.84
  Q 773.90 704.39 773.59 704.06
  C 770.10 700.39 770.42 697.83 771.20 693.09
  A 1.57 1.55 35.3 0 0 771.02 692.07
  Q 770.24 690.68 770.53 689.06
  Q 770.61 688.62 770.27 688.32
  C 768.42 686.64 764.73 683.60 767.21 681.79
  A 0.55 0.54 51.9 0 0 767.30 681.00
  L 765.64 679.01
  Q 765.30 678.60 765.23 678.09
  C 764.60 673.73 762.17 670.12 761.66 665.30
  Q 761.63 664.95 761.28 664.88
  Q 760.35 664.68 760.07 663.22
  Q 759.58 660.66 759.47 659.22
  A 0.38 0.38 0.0 0 1 760.21 659.09
  L 761.34 663.56
  Q 761.45 664.00 761.81 664.28
  Q 762.76 665.02 763.06 666.22
  A 0.68 0.68 0.0 0 0 764.28 666.43
  Q 768.11 660.64 765.00 654.40
  Q 764.75 653.88 764.22 653.64
  Q 763.16 653.16 762.74 654.14
  A 0.66 0.65 -75.4 0 1 762.09 654.53
  Q 760.19 654.37 759.08 652.97
  Q 758.75 652.55 758.25 652.39
  Q 754.85 651.27 751.62 652.53
  Q 751.34 652.63 751.28 652.93
  Q 751.16 653.44 750.53 653.64
  A 0.86 0.85 47.5 0 1 749.90 653.61
  L 741.58 649.73
  Q 741.07 649.49 740.51 649.53
  Q 738.66 649.64 737.88 647.90
  A 1.11 1.10 84.8 0 0 737.15 647.29
  L 734.25 646.53
  Q 733.72 646.39 733.46 645.90
  C 731.32 641.84 722.85 641.56 723.18 647.70
  C 723.32 650.45 720.01 652.00 718.31 649.21
  Q 718.04 648.77 717.58 648.52
  L 710.78 644.86
  A 1.04 1.03 -73.7 0 1 710.23 643.85
  L 710.40 641.78
  Q 710.44 641.27 709.99 641.05
  Q 708.32 640.21 706.68 639.35
  C 703.39 637.63 700.08 638.78 698.81 634.02
  Q 698.67 633.51 698.15 633.61
  L 697.23 633.79
  A 0.82 0.81 23.9 0 1 696.65 632.29
  L 699.91 630.35
  Q 700.32 630.11 700.54 629.69
  Q 701.47 627.89 700.04 626.18
  A 0.91 0.90 63.0 0 1 700.51 624.72
  Q 701.78 624.41 702.26 623.26
  A 0.55 0.55 0.0 0 0 701.75 622.50
  L 700.50 622.50
  A 0.69 0.67 74.1 0 1 699.92 622.17
  Q 698.38 619.61 695.54 621.40
  A 0.73 0.72 -45.4 0 1 694.78 621.41
  Q 692.38 619.96 688.74 619.56
  Q 679.29 618.50 673.07 618.48
  A 1.58 1.55 25.1 0 0 672.08 618.83
  Q 671.18 619.58 669.99 619.50
  Q 669.53 619.46 669.10 619.28
  Q 667.98 618.79 666.43 620.62
  Q 665.51 621.70 664.35 620.88
  Q 661.49 618.85 657.98 618.59
  Q 657.39 618.54 657.13 618.02
  L 656.15 616.03
  A 0.85 0.85 0.0 0 0 654.77 615.84
  L 650.12 620.83
  A 1.36 1.35 20.0 0 1 649.21 621.25
  C 644.18 621.50 637.80 626.34 637.16 631.16
  C 636.57 635.50 628.86 637.43 625.36 637.59
  Q 624.81 637.61 624.51 638.07
  Q 622.45 641.17 618.89 642.23
  Q 618.34 642.39 618.07 642.90
  Q 615.49 647.74 610.77 650.65
  Q 610.32 650.92 610.10 651.39
  C 608.70 654.33 602.19 657.10 606.10 661.00
  Q 606.52 661.41 606.23 661.92
  Z"
/>
<path fill="#ffffff" d="
  M 606.10 661.00
  C 602.19 657.10 608.70 654.33 610.10 651.39
  Q 610.32 650.92 610.77 650.65
  Q 615.49 647.74 618.07 642.90
  Q 618.34 642.39 618.89 642.23
  Q 622.45 641.17 624.51 638.07
  Q 624.81 637.61 625.36 637.59
  C 628.86 637.43 636.57 635.50 637.16 631.16
  C 637.80 626.34 644.18 621.50 649.21 621.25
  A 1.36 1.35 20.0 0 0 650.12 620.83
  L 654.77 615.84
  A 0.85 0.85 0.0 0 1 656.15 616.03
  L 657.13 618.02
  Q 657.39 618.54 657.98 618.59
  Q 661.49 618.85 664.35 620.88
  Q 665.51 621.70 666.43 620.62
  Q 667.98 618.79 669.10 619.28
  Q 669.53 619.46 669.99 619.50
  Q 671.18 619.58 672.08 618.83
  A 1.58 1.55 25.1 0 1 673.07 618.48
  Q 679.29 618.50 688.74 619.56
  Q 692.38 619.96 694.78 621.41
  A 0.73 0.72 -45.4 0 0 695.54 621.40
  Q 698.38 619.61 699.92 622.17
  A 0.69 0.67 74.1 0 0 700.50 622.50
  L 701.75 622.50
  A 0.55 0.55 0.0 0 1 702.26 623.26
  Q 701.78 624.41 700.51 624.72
  A 0.91 0.90 63.0 0 0 700.04 626.18
  Q 701.47 627.89 700.54 629.69
  Q 700.32 630.11 699.91 630.35
  L 696.65 632.29
  A 0.82 0.81 23.9 0 0 697.23 633.79
  L 698.15 633.61
  Q 698.67 633.51 698.81 634.02
  C 700.08 638.78 703.39 637.63 706.68 639.35
  Q 708.32 640.21 709.99 641.05
  Q 710.44 641.27 710.40 641.78
  L 710.23 643.85
  A 1.04 1.03 -73.7 0 0 710.78 644.86
  L 717.58 648.52
  Q 718.04 648.77 718.31 649.21
  C 720.01 652.00 723.32 650.45 723.18 647.70
  C 722.85 641.56 731.32 641.84 733.46 645.90
  Q 733.72 646.39 734.25 646.53
  L 737.15 647.29
  A 1.11 1.10 84.8 0 1 737.88 647.90
  Q 738.66 649.64 740.51 649.53
  Q 741.07 649.49 741.58 649.73
  L 749.90 653.61
  A 0.86 0.85 47.5 0 0 750.53 653.64
  Q 751.16 653.44 751.28 652.93
  Q 751.34 652.63 751.62 652.53
  Q 754.85 651.27 758.25 652.39
  Q 758.75 652.55 759.08 652.97
  Q 760.19 654.37 762.09 654.53
  A 0.66 0.65 -75.4 0 0 762.74 654.14
  Q 763.16 653.16 764.22 653.64
  Q 764.75 653.88 765.00 654.40
  Q 768.11 660.64 764.28 666.43
  A 0.68 0.68 0.0 0 1 763.06 666.22
  Q 762.76 665.02 761.81 664.28
  Q 761.45 664.00 761.34 663.56
  L 760.21 659.09
  A 0.38 0.38 0.0 0 0 759.47 659.22
  Q 759.58 660.66 760.07 663.22
  Q 760.35 664.68 761.28 664.88
  Q 761.63 664.95 761.66 665.30
  C 762.17 670.12 764.60 673.73 765.23 678.09
  Q 765.30 678.60 765.64 679.01
  L 767.30 681.00
  A 0.55 0.54 51.9 0 1 767.21 681.79
  C 764.73 683.60 768.42 686.64 770.27 688.32
  Q 770.61 688.62 770.53 689.06
  Q 770.24 690.68 771.02 692.07
  A 1.57 1.55 35.3 0 1 771.20 693.09
  C 770.42 697.83 770.10 700.39 773.59 704.06
  Q 773.90 704.39 773.98 704.84
  L 775.57 713.37
  Q 775.67 713.92 776.10 714.28
  Q 782.24 719.37 786.03 726.41
  Q 786.62 727.51 786.41 728.27
  Q 786.09 729.41 784.61 729.60
  A 0.33 0.33 0.0 0 0 784.56 730.24
  L 785.64 730.58
  Q 786.08 730.71 786.29 731.11
  Q 786.96 732.39 787.69 733.64
  C 790.35 738.15 792.15 732.67 795.50 735.23
  Q 796.00 735.61 796.52 735.26
  L 798.21 734.11
  Q 798.59 733.86 799.01 733.98
  Q 801.76 734.78 804.53 733.47
  A 0.72 0.70 43.4 0 1 805.10 733.46
  Q 807.35 734.38 809.04 732.82
  A 1.22 1.22 0.0 0 1 811.09 733.86
  C 810.54 738.51 809.17 742.19 806.50 746.38
  C 800.22 756.22 796.07 761.34 786.72 767.43
  C 775.80 774.55 766.55 781.11 760.62 791.63
  C 759.15 794.24 763.28 795.37 761.23 797.70
  Q 760.98 797.98 760.90 798.34
  L 760.17 801.51
  A 1.03 0.99 -49.7 0 0 760.21 802.13
  Q 761.09 804.39 760.57 806.73
  Q 760.48 807.13 760.81 807.40
  C 763.87 809.85 759.89 813.85 759.48 817.05
  C 759.18 819.36 758.08 821.45 758.59 824.00
  A 0.87 0.87 0.0 0 1 758.29 824.84
  Q 757.25 825.71 757.04 827.08
  Q 756.97 827.48 756.64 827.71
  L 751.45 831.35
  A 1.16 1.13 23.8 0 1 750.89 831.56
  C 745.99 832.05 743.21 834.61 739.20 836.55
  Q 736.86 837.69 734.74 839.30
  Q 734.34 839.60 734.39 840.10
  Q 734.64 842.65 734.80 845.20
  C 735.02 848.61 733.86 850.86 732.78 853.96
  Q 732.62 854.41 732.25 854.71
  C 729.46 856.98 726.70 856.46 723.68 857.49
  Q 723.21 857.65 723.16 858.14
  C 722.61 863.35 720.50 866.44 716.00 869.55
  Q 706.98 875.76 697.85 881.83
  Q 697.45 882.10 697.08 881.79
  Q 696.04 880.93 695.03 881.67
  A 3.28 3.01 -37.8 0 1 690.77 881.31
  C 690.71 881.24 686.83 880.60 685.61 879.95
  Q 685.19 879.73 684.85 880.05
  L 683.85 880.98
  A 0.84 0.84 0.0 0 1 682.85 881.09
  C 679.94 879.36 677.17 882.51 674.99 878.30
  Q 673.84 876.07 673.30 873.64
  Q 673.19 873.14 673.66 872.95
  Q 675.60 872.16 675.10 869.68
  Q 674.03 864.38 672.93 859.08
  C 672.47 856.86 671.31 855.45 670.28 853.43
  C 669.08 851.10 669.74 846.03 669.97 843.41
  Q 670.02 842.93 669.78 842.50
  C 668.67 840.52 670.77 835.78 669.91 832.72
  C 667.89 825.54 663.29 816.97 666.55 810.00
  C 668.41 806.02 670.01 800.12 674.30 798.16
  A 0.61 0.59 89.1 0 0 674.62 797.82
  L 676.36 792.93
  A 1.15 1.14 -41.6 0 0 676.40 792.30
  L 675.27 787.21
  Q 675.18 786.77 675.42 786.40
  C 677.62 783.10 675.31 777.95 674.84 774.29
  C 674.38 770.68 673.22 768.41 671.67 765.35
  Q 671.45 764.92 671.04 764.65
  Q 670.32 764.18 670.51 763.29
  A 1.08 1.08 0.0 0 0 670.29 762.36
  Q 667.52 759.03 667.48 754.67
  A 0.97 0.96 73.2 0 1 667.92 753.84
  Q 671.28 751.62 670.60 747.55
  Q 670.52 747.08 670.85 746.73
  Q 674.02 743.42 673.17 739.01
  A 1.23 1.17 15.4 0 0 672.75 738.31
  Q 671.05 736.97 670.16 734.99
  A 0.54 0.54 0.0 0 0 669.29 734.83
  L 668.69 735.44
  A 0.73 0.72 42.6 0 1 667.71 735.48
  Q 665.95 733.98 663.74 735.07
  Q 663.21 735.34 662.69 735.04
  Q 659.96 733.43 659.78 729.98
  C 659.55 725.66 653.79 725.50 650.60 725.48
  C 648.51 725.47 646.57 726.81 643.90 726.21
  Q 643.35 726.09 642.82 726.28
  L 637.30 728.30
  A 0.97 0.96 50.6 0 1 636.44 728.21
  Q 634.36 726.85 632.15 725.86
  C 626.36 723.28 619.20 729.58 614.55 722.69
  Q 610.18 716.20 604.86 710.46
  Q 604.58 710.16 604.45 709.78
  L 603.42 706.75
  A 0.78 0.72 42.6 0 1 603.39 706.39
  Q 604.15 702.79 601.74 700.33
  Q 601.39 699.97 601.32 699.47
  L 601.14 698.18
  A 1.02 1.00 9.7 0 0 600.58 697.41
  Q 598.87 696.57 599.26 694.58
  Q 599.38 694.01 598.89 693.69
  Q 594.08 690.53 597.58 685.82
  A 0.95 0.92 54.3 0 0 597.71 684.96
  L 596.50 681.42
  A 0.56 0.55 -22.9 0 1 596.78 680.74
  C 600.85 678.78 604.87 669.94 604.43 665.53
  Q 604.39 665.14 604.59 664.79
  L 606.23 661.92
  Q 606.52 661.41 606.10 661.00
  Z"
/>
</svg>
