<?xml version="1.0" encoding="UTF-8" standalone="no"?>
<!DOCTYPE svg PUBLIC "-//W3C//DTD SVG 1.1//EN" "http://www.w3.org/Graphics/SVG/1.1/DTD/svg11.dtd">
<svg xmlns="http://www.w3.org/2000/svg" version="1.1" viewBox="0.00 0.00 1024.00 1024.00">
<path stroke="#808080" stroke-width="2.00" fill="none" stroke-linecap="butt" vector-effect="non-scaling-stroke" d="
  M 623.91 336.19
  Q 625.16 339.48 622.99 342.02
  Q 622.68 342.37 622.92 342.77
  L 628.97 353.14
  Q 629.22 353.59 629.73 353.53
  C 633.49 353.13 635.07 355.40 637.50 356.49
  Q 639.49 357.38 641.48 358.32
  Q 642.06 358.60 642.08 359.24
  L 642.24 363.21
  Q 642.26 363.89 641.68 364.24
  Q 637.74 366.60 633.73 368.87
  C 628.85 371.63 629.74 375.12 626.94 379.07
  Q 625.73 380.79 624.46 382.47
  C 621.17 386.83 625.97 387.22 628.50 388.45
  Q 628.99 388.70 629.54 388.66
  C 634.65 388.32 634.11 395.38 631.45 397.53
  Q 631.05 397.85 631.21 398.34
  Q 632.80 403.37 628.46 406.27
  A 1.04 1.03 -17.2 0 0 628.00 407.13
  L 628.01 412.89
  A 0.81 0.80 -72.1 0 0 628.34 413.54
  C 632.78 416.74 633.10 424.30 626.49 425.52
  Q 623.25 426.11 619.97 426.34
  Q 619.50 426.37 619.17 426.71
  L 615.29 430.59
  A 0.67 0.66 -52.7 0 0 615.43 431.64
  L 617.13 432.61
  Q 617.54 432.84 617.65 433.32
  C 618.04 435.11 619.40 435.73 620.05 437.01
  C 621.22 439.34 620.78 443.39 623.57 444.21
  Q 624.12 444.37 624.48 444.81
  L 625.04 445.49
  Q 625.39 445.92 625.78 445.54
  C 630.55 440.97 645.44 446.72 650.72 449.08
  C 653.58 450.35 654.90 452.98 658.05 454.37
  Q 658.48 454.56 658.64 455.00
  C 659.89 458.45 658.78 468.04 654.99 468.97
  Q 654.48 469.09 654.10 469.45
  L 648.17 474.89
  A 1.33 1.30 -17.7 0 0 647.77 475.64
  L 646.88 480.97
  A 1.08 1.07 89.3 0 1 646.02 481.86
  L 641.14 482.75
  A 0.50 0.49 -88.0 0 0 640.76 483.11
  L 638.30 492.64
  Q 638.22 492.95 638.47 493.15
  Q 640.50 494.77 641.02 497.46
  A 1.02 1.00 -76.2 0 0 641.37 498.05
  C 644.30 500.49 649.31 504.41 648.26 508.79
  C 646.63 515.68 641.36 512.92 637.05 511.10
  Q 636.58 510.90 636.10 511.07
  L 630.64 513.05
  A 0.86 0.83 -87.2 0 0 630.13 513.53
  L 629.41 515.24
  Q 629.21 515.71 628.70 515.77
  Q 625.72 516.14 623.96 518.44
  Q 623.57 518.95 623.67 519.58
  L 624.64 525.83
  Q 624.72 526.34 625.24 526.39
  Q 627.97 526.65 629.45 528.95
  A 1.14 1.11 -9.7 0 0 630.16 529.44
  L 632.01 529.85
  Q 632.60 529.98 632.63 530.57
  L 632.94 536.66
  A 0.53 0.48 -70.4 0 0 633.07 536.98
  Q 636.78 541.02 640.33 545.20
  C 641.46 546.53 642.98 546.40 644.00 548.18
  Q 647.39 554.03 651.88 559.15
  A 1.19 1.18 -21.0 0 0 652.79 559.55
  Q 655.22 559.53 655.65 561.84
  Q 655.77 562.46 656.39 562.57
  C 659.46 563.09 662.73 561.75 664.80 564.87
  Q 665.11 565.34 665.66 565.34
  L 679.69 565.53
  Q 680.16 565.53 680.49 565.87
  L 682.84 568.22
  Q 683.25 568.62 683.26 569.19
  Q 683.29 571.30 681.46 571.99
  A 1.88 1.88 0.0 0 0 680.33 574.31
  Q 681.94 579.39 685.62 582.46
  C 687.16 583.75 687.61 585.15 688.80 586.67
  Q 689.14 587.11 689.70 587.13
  L 704.79 587.74
  Q 705.37 587.77 705.55 588.32
  C 706.25 590.50 709.90 589.24 711.75 591.88
  Q 712.02 592.28 712.49 592.37
  Q 714.55 592.80 715.81 594.45
  Q 716.11 594.84 716.57 595.01
  L 720.69 596.58
  A 1.56 1.56 0.0 0 0 722.52 596.02
  L 725.56 591.74
  A 0.70 0.70 0.0 0 1 726.66 591.69
  L 729.65 595.13
  A 1.00 0.99 72.1 0 0 730.30 595.47
  L 731.55 595.59
  A 1.50 1.47 69.1 0 1 732.42 595.99
  Q 737.04 600.43 743.03 597.50
  Q 743.50 597.27 743.50 596.74
  L 743.50 593.72
  Q 743.50 593.15 743.90 592.75
  Q 746.44 590.14 746.42 586.43
  Q 746.41 585.94 746.70 585.53
  Q 747.79 583.99 748.61 580.65
  C 749.81 575.78 756.59 570.38 760.63 566.67
  C 764.81 562.81 767.55 557.96 771.01 553.39
  A 1.99 1.98 46.3 0 0 771.06 551.07
  L 767.29 545.53
  A 1.04 1.02 81.8 0 0 766.75 545.12
  Q 762.55 543.63 758.75 546.10
  A 0.93 0.90 -60.8 0 1 758.25 546.25
  L 754.79 546.25
  Q 754.30 546.25 753.88 546.01
  C 749.30 543.47 745.45 549.14 742.10 544.49
  Q 741.77 544.02 742.24 543.70
  C 745.93 541.22 747.42 537.28 750.38 534.04
  Q 750.71 533.68 750.72 533.21
  C 750.82 529.91 752.58 527.56 752.81 524.64
  C 753.13 520.63 753.29 517.56 751.87 513.56
  C 750.30 509.14 753.14 505.64 752.43 500.76
  A 0.73 0.72 -16.8 0 1 752.84 500.01
  C 757.84 497.66 753.11 490.59 757.08 488.29
  A 0.92 0.90 -14.8 0 0 757.54 487.52
  Q 757.59 485.33 759.79 485.54
  Q 760.35 485.59 760.48 485.04
  Q 760.90 483.15 758.93 482.90
  Q 754.39 482.30 751.70 482.10
  Q 751.22 482.06 750.93 481.68
  L 748.25 478.15
  Q 747.96 477.78 748.03 477.32
  C 748.30 475.53 747.10 471.57 750.00 471.68
  Q 753.34 471.80 754.91 469.81
  Q 755.23 469.41 755.75 469.39
  Q 760.64 469.26 765.50 469.40
  C 770.87 469.56 768.53 461.91 767.59 459.47
  Q 767.39 458.94 767.61 458.42
  Q 770.59 451.40 778.35 451.81
  Q 778.95 451.84 778.89 451.24
  L 778.58 447.61
  A 1.10 1.08 11.7 0 0 778.00 446.74
  C 775.78 445.54 775.39 440.74 774.17 438.32
  C 767.17 424.46 759.68 414.99 748.02 400.73
  C 745.55 397.71 744.14 394.94 744.13 390.78
  Q 744.07 376.88 743.52 363.01
  Q 743.39 359.55 742.32 352.97
  C 741.13 345.62 742.62 338.51 739.80 331.44
  C 739.19 329.90 740.43 326.53 737.56 326.15
  A 0.83 0.82 6.6 0 1 736.85 325.26
  L 737.26 320.94
  Q 737.31 320.38 737.84 320.21
  Q 738.86 319.86 739.07 318.94
  Q 739.18 318.46 739.51 318.08
  L 743.47 313.39
  Q 743.87 312.92 743.80 312.30
  C 743.56 310.18 742.75 307.03 745.13 305.71
  A 1.11 1.10 84.1 0 0 745.67 305.04
  L 745.99 303.93
  Q 746.17 303.33 746.75 303.08
  Q 748.74 302.25 748.50 300.24
  Q 748.43 299.74 748.70 299.30
  C 751.04 295.55 750.60 288.03 750.74 283.50
  C 750.93 277.75 753.81 273.41 752.87 267.02
  A 1.12 1.09 -77.4 0 0 752.41 266.27
  C 749.09 263.93 738.08 255.91 734.29 258.04
  Q 679.83 288.66 618.03 326.78
  Q 617.49 327.11 617.49 327.74
  L 617.51 331.36
  Q 617.52 331.87 617.95 332.13
  L 623.32 335.47
  Q 623.74 335.73 623.91 336.19"
/>
<path fill="#000000" d="
  M 614.00 327.50
  L 613.02 327.50
  Q 612.58 327.50 612.56 327.05
  Q 612.50 325.09 613.80 324.29
  Q 640.29 307.90 688.18 279.62
  C 702.64 271.09 717.79 262.80 732.56 254.31
  C 737.67 251.38 746.05 257.19 751.55 260.46
  C 761.57 266.40 755.19 274.98 755.05 283.58
  C 754.99 287.53 754.54 291.16 754.24 295.38
  Q 753.87 300.69 750.29 304.86
  A 1.49 1.46 68.3 0 0 749.94 305.70
  Q 749.79 307.56 748.22 308.54
  Q 747.72 308.84 747.81 309.42
  C 748.61 314.56 745.54 318.97 741.68 322.12
  Q 740.35 323.21 741.56 324.42
  Q 743.46 326.31 743.21 329.05
  A 1.48 1.43 -60.9 0 0 743.46 329.99
  C 746.30 334.14 746.17 343.32 745.95 348.73
  C 745.81 352.41 747.23 356.40 747.39 359.79
  Q 748.14 375.15 748.21 390.55
  C 748.22 393.49 749.98 396.56 751.56 398.44
  C 761.99 410.94 773.43 425.14 779.70 441.11
  C 781.18 444.88 786.86 455.65 778.05 455.65
  C 775.37 455.65 771.42 456.78 772.16 460.22
  C 775.31 474.75 767.35 473.06 757.15 473.46
  Q 756.63 473.48 756.27 473.87
  Q 755.09 475.18 753.18 475.20
  A 1.27 1.27 0.0 0 0 752.68 477.64
  C 756.59 479.36 763.94 477.72 764.41 483.94
  Q 764.66 487.31 761.59 489.14
  Q 761.19 489.37 760.91 489.73
  L 759.95 490.93
  Q 759.63 491.33 759.59 491.84
  L 758.92 499.73
  A 0.86 0.83 -18.1 0 1 758.61 500.31
  C 755.61 502.75 756.22 507.78 755.55 511.32
  Q 755.46 511.76 755.61 512.19
  Q 758.71 521.35 755.11 530.33
  A 1.98 1.95 -37.8 0 0 754.98 531.30
  C 755.50 535.41 753.44 535.83 751.82 538.80
  Q 751.35 539.66 750.74 540.44
  Q 750.36 540.92 750.95 541.06
  L 756.33 542.33
  A 0.50 0.44 -41.4 0 0 756.60 542.33
  C 762.36 540.71 766.01 539.04 771.12 543.26
  Q 771.51 543.58 771.62 544.06
  C 772.46 547.68 775.68 548.77 775.28 553.04
  C 774.96 556.51 767.33 565.96 764.70 568.49
  Q 760.70 572.35 756.65 576.15
  C 752.61 579.93 751.06 585.94 749.64 591.09
  C 749.10 593.05 747.53 594.19 747.46 596.33
  C 747.18 605.59 733.05 602.58 728.63 598.88
  A 2.10 2.09 -39.1 0 0 726.28 598.64
  L 722.32 600.80
  A 0.82 0.81 37.9 0 1 721.73 600.87
  Q 719.02 600.21 716.40 599.33
  C 712.65 598.07 709.62 594.90 705.77 593.20
  C 701.02 591.10 695.11 591.14 689.91 591.26
  A 4.40 4.38 69.1 0 1 686.45 589.70
  C 681.50 583.82 676.29 581.01 676.16 571.94
  Q 676.14 570.91 677.46 569.85
  Q 678.15 569.31 677.28 569.35
  C 672.42 569.57 664.19 570.32 661.12 567.02
  A 1.10 1.09 65.4 0 0 660.25 566.69
  C 655.56 567.07 652.59 565.12 649.22 562.08
  C 645.80 558.99 643.25 553.96 640.35 551.15
  Q 634.30 545.29 629.21 538.58
  A 0.63 0.58 -67.4 0 1 629.08 538.23
  L 628.88 534.30
  Q 628.85 533.70 628.39 533.30
  L 626.20 531.40
  Q 625.59 530.87 624.80 530.66
  Q 622.55 530.05 620.71 528.50
  A 0.69 0.69 0.0 0 1 620.50 527.74
  Q 622.24 522.78 618.41 519.34
  A 0.96 0.95 35.0 0 1 618.20 518.19
  C 620.29 514.20 625.47 514.71 626.57 511.39
  Q 626.71 510.95 627.07 510.65
  Q 628.87 509.14 631.03 508.63
  C 634.89 507.73 638.33 505.64 641.74 509.14
  A 1.77 1.77 0.0 0 0 643.52 509.60
  Q 645.23 509.07 644.80 507.41
  Q 644.60 506.66 643.75 505.89
  Q 637.95 500.59 634.32 493.55
  A 1.49 1.44 -54.5 0 1 634.18 492.61
  C 634.88 488.62 636.72 484.65 637.21 480.78
  Q 637.39 479.35 638.98 479.45
  Q 641.25 479.60 643.53 479.46
  A 0.84 0.83 3.5 0 0 644.30 478.79
  Q 644.73 476.65 644.38 474.50
  Q 644.32 474.11 644.52 473.76
  C 648.11 467.64 654.78 466.43 656.30 458.63
  Q 656.40 458.15 656.00 457.87
  Q 653.01 455.75 650.03 453.77
  C 645.40 450.68 639.78 449.31 634.49 447.78
  Q 629.96 446.47 627.25 448.92
  Q 626.83 449.30 626.27 449.30
  C 621.65 449.33 617.89 444.77 617.27 440.77
  Q 617.18 440.24 616.87 439.80
  L 612.18 433.17
  A 1.14 1.12 35.5 0 1 612.01 432.22
  Q 613.51 426.84 618.08 423.57
  A 1.12 1.08 34.0 0 1 618.99 423.41
  Q 621.09 423.98 622.76 422.92
  Q 623.22 422.63 623.76 422.63
  L 626.19 422.67
  Q 626.66 422.68 627.01 422.35
  Q 628.82 420.63 628.48 418.23
  A 1.44 1.43 17.5 0 0 628.03 417.37
  Q 623.88 413.65 625.06 407.88
  C 625.61 405.22 625.08 403.44 628.20 402.07
  A 1.02 1.01 -14.9 0 0 628.81 401.03
  Q 628.70 400.05 627.39 398.71
  A 0.31 0.29 24.2 0 1 627.30 398.50
  Q 627.11 395.51 629.93 394.15
  Q 630.50 393.88 630.50 393.25
  L 630.50 392.00
  A 0.58 0.58 0.0 0 0 629.80 391.43
  C 627.66 391.86 625.69 390.74 624.12 390.29
  C 614.15 387.39 626.25 376.38 626.79 371.32
  C 627.16 367.97 634.97 364.33 637.72 362.55
  Q 638.08 362.31 638.48 362.48
  Q 639.01 362.70 639.54 362.27
  A 1.22 1.22 0.0 0 0 638.94 360.12
  Q 635.07 359.57 632.41 356.84
  Q 631.99 356.40 631.39 356.48
  Q 628.77 356.80 626.46 355.50
  Q 626.01 355.24 625.91 354.74
  C 625.35 352.09 622.58 348.73 621.45 346.41
  Q 621.22 345.95 620.79 345.69
  Q 619.19 344.69 618.25 343.05
  A 0.73 0.72 -35.9 0 1 618.40 342.13
  L 621.20 339.66
  A 1.33 1.33 0.0 0 0 620.83 337.43
  Q 617.46 336.01 614.86 333.57
  Q 614.50 333.23 614.50 332.74
  L 614.50 328.00
  Q 614.50 327.50 614.00 327.50
  Z
  M 623.91 336.19
  Q 625.16 339.48 622.99 342.02
  Q 622.68 342.37 622.92 342.77
  L 628.97 353.14
  Q 629.22 353.59 629.73 353.53
  C 633.49 353.13 635.07 355.40 637.50 356.49
  Q 639.49 357.38 641.48 358.32
  Q 642.06 358.60 642.08 359.24
  L 642.24 363.21
  Q 642.26 363.89 641.68 364.24
  Q 637.74 366.60 633.73 368.87
  C 628.85 371.63 629.74 375.12 626.94 379.07
  Q 625.73 380.79 624.46 382.47
  C 621.17 386.83 625.97 387.22 628.50 388.45
  Q 628.99 388.70 629.54 388.66
  C 634.65 388.32 634.11 395.38 631.45 397.53
  Q 631.05 397.85 631.21 398.34
  Q 632.80 403.37 628.46 406.27
  A 1.04 1.03 -17.2 0 0 628.00 407.13
  L 628.01 412.89
  A 0.81 0.80 -72.1 0 0 628.34 413.54
  C 632.78 416.74 633.10 424.30 626.49 425.52
  Q 623.25 426.11 619.97 426.34
  Q 619.50 426.37 619.17 426.71
  L 615.29 430.59
  A 0.67 0.66 -52.7 0 0 615.43 431.64
  L 617.13 432.61
  Q 617.54 432.84 617.65 433.32
  C 618.04 435.11 619.40 435.73 620.05 437.01
  C 621.22 439.34 620.78 443.39 623.57 444.21
  Q 624.12 444.37 624.48 444.81
  L 625.04 445.49
  Q 625.39 445.92 625.78 445.54
  C 630.55 440.97 645.44 446.72 650.72 449.08
  C 653.58 450.35 654.90 452.98 658.05 454.37
  Q 658.48 454.56 658.64 455.00
  C 659.89 458.45 658.78 468.04 654.99 468.97
  Q 654.48 469.09 654.10 469.45
  L 648.17 474.89
  A 1.33 1.30 -17.7 0 0 647.77 475.64
  L 646.88 480.97
  A 1.08 1.07 89.3 0 1 646.02 481.86
  L 641.14 482.75
  A 0.50 0.49 -88.0 0 0 640.76 483.11
  L 638.30 492.64
  Q 638.22 492.95 638.47 493.15
  Q 640.50 494.77 641.02 497.46
  A 1.02 1.00 -76.2 0 0 641.37 498.05
  C 644.30 500.49 649.31 504.41 648.26 508.79
  C 646.63 515.68 641.36 512.92 637.05 511.10
  Q 636.58 510.90 636.10 511.07
  L 630.64 513.05
  A 0.86 0.83 -87.2 0 0 630.13 513.53
  L 629.41 515.24
  Q 629.21 515.71 628.70 515.77
  Q 625.72 516.14 623.96 518.44
  Q 623.57 518.95 623.67 519.58
  L 624.64 525.83
  Q 624.72 526.34 625.24 526.39
  Q 627.97 526.65 629.45 528.95
  A 1.14 1.11 -9.7 0 0 630.16 529.44
  L 632.01 529.85
  Q 632.60 529.98 632.63 530.57
  L 632.94 536.66
  A 0.53 0.48 -70.4 0 0 633.07 536.98
  Q 636.78 541.02 640.33 545.20
  C 641.46 546.53 642.98 546.40 644.00 548.18
  Q 647.39 554.03 651.88 559.15
  A 1.19 1.18 -21.0 0 0 652.79 559.55
  Q 655.22 559.53 655.65 561.84
  Q 655.77 562.46 656.39 562.57
  C 659.46 563.09 662.73 561.75 664.80 564.87
  Q 665.11 565.34 665.66 565.34
  L 679.69 565.53
  Q 680.16 565.53 680.49 565.87
  L 682.84 568.22
  Q 683.25 568.62 683.26 569.19
  Q 683.29 571.30 681.46 571.99
  A 1.88 1.88 0.0 0 0 680.33 574.31
  Q 681.94 579.39 685.62 582.46
  C 687.16 583.75 687.61 585.15 688.80 586.67
  Q 689.14 587.11 689.70 587.13
  L 704.79 587.74
  Q 705.37 587.77 705.55 588.32
  C 706.25 590.50 709.90 589.24 711.75 591.88
  Q 712.02 592.28 712.49 592.37
  Q 714.55 592.80 715.81 594.45
  Q 716.11 594.84 716.57 595.01
  L 720.69 596.58
  A 1.56 1.56 0.0 0 0 722.52 596.02
  L 725.56 591.74
  A 0.70 0.70 0.0 0 1 726.66 591.69
  L 729.65 595.13
  A 1.00 0.99 72.1 0 0 730.30 595.47
  L 731.55 595.59
  A 1.50 1.47 69.1 0 1 732.42 595.99
  Q 737.04 600.43 743.03 597.50
  Q 743.50 597.27 743.50 596.74
  L 743.50 593.72
  Q 743.50 593.15 743.90 592.75
  Q 746.44 590.14 746.42 586.43
  Q 746.41 585.94 746.70 585.53
  Q 747.79 583.99 748.61 580.65
  C 749.81 575.78 756.59 570.38 760.63 566.67
  C 764.81 562.81 767.55 557.96 771.01 553.39
  A 1.99 1.98 46.3 0 0 771.06 551.07
  L 767.29 545.53
  A 1.04 1.02 81.8 0 0 766.75 545.12
  Q 762.55 543.63 758.75 546.10
  A 0.93 0.90 -60.8 0 1 758.25 546.25
  L 754.79 546.25
  Q 754.30 546.25 753.88 546.01
  C 749.30 543.47 745.45 549.14 742.10 544.49
  Q 741.77 544.02 742.24 543.70
  C 745.93 541.22 747.42 537.28 750.38 534.04
  Q 750.71 533.68 750.72 533.21
  C 750.82 529.91 752.58 527.56 752.81 524.64
  C 753.13 520.63 753.29 517.56 751.87 513.56
  C 750.30 509.14 753.14 505.64 752.43 500.76
  A 0.73 0.72 -16.8 0 1 752.84 500.01
  C 757.84 497.66 753.11 490.59 757.08 488.29
  A 0.92 0.90 -14.8 0 0 757.54 487.52
  Q 757.59 485.33 759.79 485.54
  Q 760.35 485.59 760.48 485.04
  Q 760.90 483.15 758.93 482.90
  Q 754.39 482.30 751.70 482.10
  Q 751.22 482.06 750.93 481.68
  L 748.25 478.15
  Q 747.96 477.78 748.03 477.32
  C 748.30 475.53 747.10 471.57 750.00 471.68
  Q 753.34 471.80 754.91 469.81
  Q 755.23 469.41 755.75 469.39
  Q 760.64 469.26 765.50 469.40
  C 770.87 469.56 768.53 461.91 767.59 459.47
  Q 767.39 458.94 767.61 458.42
  Q 770.59 451.40 778.35 451.81
  Q 778.95 451.84 778.89 451.24
  L 778.58 447.61
  A 1.10 1.08 11.7 0 0 778.00 446.74
  C 775.78 445.54 775.39 440.74 774.17 438.32
  C 767.17 424.46 759.68 414.99 748.02 400.73
  C 745.55 397.71 744.14 394.94 744.13 390.78
  Q 744.07 376.88 743.52 363.01
  Q 743.39 359.55 742.32 352.97
  C 741.13 345.62 742.62 338.51 739.80 331.44
  C 739.19 329.90 740.43 326.53 737.56 326.15
  A 0.83 0.82 6.6 0 1 736.85 325.26
  L 737.26 320.94
  Q 737.31 320.38 737.84 320.21
  Q 738.86 319.86 739.07 318.94
  Q 739.18 318.46 739.51 318.08
  L 743.47 313.39
  Q 743.87 312.92 743.80 312.30
  C 743.56 310.18 742.75 307.03 745.13 305.71
  A 1.11 1.10 84.1 0 0 745.67 305.04
  L 745.99 303.93
  Q 746.17 303.33 746.75 303.08
  Q 748.74 302.25 748.50 300.24
  Q 748.43 299.74 748.70 299.30
  C 751.04 295.55 750.60 288.03 750.74 283.50
  C 750.93 277.75 753.81 273.41 752.87 267.02
  A 1.12 1.09 -77.4 0 0 752.41 266.27
  C 749.09 263.93 738.08 255.91 734.29 258.04
  Q 679.83 288.66 618.03 326.78
  Q 617.49 327.11 617.49 327.74
  L 617.51 331.36
  Q 617.52 331.87 617.95 332.13
  L 623.32 335.47
  Q 623.74 335.73 623.91 336.19
  Z"
/>
<path fill="#ffffff" d="
  M 623.32 335.47
  L 617.95 332.13
  Q 617.52 331.87 617.51 331.36
  L 617.49 327.74
  Q 617.49 327.11 618.03 326.78
  Q 679.83 288.66 734.29 258.04
  C 738.08 255.91 749.09 263.93 752.41 266.27
  A 1.12 1.09 -77.4 0 1 752.87 267.02
  C 753.81 273.41 750.93 277.75 750.74 283.50
  C 750.60 288.03 751.04 295.55 748.70 299.30
  Q 748.43 299.74 748.50 300.24
  Q 748.74 302.25 746.75 303.08
  Q 746.17 303.33 745.99 303.93
  L 745.67 305.04
  A 1.11 1.10 84.1 0 1 745.13 305.71
  C 742.75 307.03 743.56 310.18 743.80 312.30
  Q 743.87 312.92 743.47 313.39
  L 739.51 318.08
  Q 739.18 318.46 739.07 318.94
  Q 738.86 319.86 737.84 320.21
  Q 737.31 320.38 737.26 320.94
  L 736.85 325.26
  A 0.83 0.82 6.6 0 0 737.56 326.15
  C 740.43 326.53 739.19 329.90 739.80 331.44
  C 742.62 338.51 741.13 345.62 742.32 352.97
  Q 743.39 359.55 743.52 363.01
  Q 744.07 376.88 744.13 390.78
  C 744.14 394.94 745.55 397.71 748.02 400.73
  C 759.68 414.99 767.17 424.46 774.17 438.32
  C 775.39 440.74 775.78 445.54 778.00 446.74
  A 1.10 1.08 11.7 0 1 778.58 447.61
  L 778.89 451.24
  Q 778.95 451.84 778.35 451.81
  Q 770.59 451.40 767.61 458.42
  Q 767.39 458.94 767.59 459.47
  C 768.53 461.91 770.87 469.56 765.50 469.40
  Q 760.64 469.26 755.75 469.39
  Q 755.23 469.41 754.91 469.81
  Q 753.34 471.80 750.00 471.68
  C 747.10 471.57 748.30 475.53 748.03 477.32
  Q 747.96 477.78 748.25 478.15
  L 750.93 481.68
  Q 751.22 482.06 751.70 482.10
  Q 754.39 482.30 758.93 482.90
  Q 760.90 483.15 760.48 485.04
  Q 760.35 485.59 759.79 485.54
  Q 757.59 485.33 757.54 487.52
  A 0.92 0.90 -14.8 0 1 757.08 488.29
  C 753.11 490.59 757.84 497.66 752.84 500.01
  A 0.73 0.72 -16.8 0 0 752.43 500.76
  C 753.14 505.64 750.30 509.14 751.87 513.56
  C 753.29 517.56 753.13 520.63 752.81 524.64
  C 752.58 527.56 750.82 529.91 750.72 533.21
  Q 750.71 533.68 750.38 534.04
  C 747.42 537.28 745.93 541.22 742.24 543.70
  Q 741.77 544.02 742.10 544.49
  C 745.45 549.14 749.30 543.47 753.88 546.01
  Q 754.30 546.25 754.79 546.25
  L 758.25 546.25
  A 0.93 0.90 -60.8 0 0 758.75 546.10
  Q 762.55 543.63 766.75 545.12
  A 1.04 1.02 81.8 0 1 767.29 545.53
  L 771.06 551.07
  A 1.99 1.98 46.3 0 1 771.01 553.39
  C 767.55 557.96 764.81 562.81 760.63 566.67
  C 756.59 570.38 749.81 575.78 748.61 580.65
  Q 747.79 583.99 746.70 585.53
  Q 746.41 585.94 746.42 586.43
  Q 746.44 590.14 743.90 592.75
  Q 743.50 593.15 743.50 593.72
  L 743.50 596.74
  Q 743.50 597.27 743.03 597.50
  Q 737.04 600.43 732.42 595.99
  A 1.50 1.47 69.1 0 0 731.55 595.59
  L 730.30 595.47
  A 1.00 0.99 72.1 0 1 729.65 595.13
  L 726.66 591.69
  A 0.70 0.70 0.0 0 0 725.56 591.74
  L 722.52 596.02
  A 1.56 1.56 0.0 0 1 720.69 596.58
  L 716.57 595.01
  Q 716.11 594.84 715.81 594.45
  Q 714.55 592.80 712.49 592.37
  Q 712.02 592.28 711.75 591.88
  C 709.90 589.24 706.25 590.50 705.55 588.32
  Q 705.37 587.77 704.79 587.74
  L 689.70 587.13
  Q 689.14 587.11 688.80 586.67
  C 687.61 585.15 687.16 583.75 685.62 582.46
  Q 681.94 579.39 680.33 574.31
  A 1.88 1.88 0.0 0 1 681.46 571.99
  Q 683.29 571.30 683.26 569.19
  Q 683.25 568.62 682.84 568.22
  L 680.49 565.87
  Q 680.16 565.53 679.69 565.53
  L 665.66 565.34
  Q 665.11 565.34 664.80 564.87
  C 662.73 561.75 659.46 563.09 656.39 562.57
  Q 655.77 562.46 655.65 561.84
  Q 655.22 559.53 652.79 559.55
  A 1.19 1.18 -21.0 0 1 651.88 559.15
  Q 647.39 554.03 644.00 548.18
  C 642.98 546.40 641.46 546.53 640.33 545.20
  Q 636.78 541.02 633.07 536.98
  A 0.53 0.48 -70.4 0 1 632.94 536.66
  L 632.63 530.57
  Q 632.60 529.98 632.01 529.85
  L 630.16 529.44
  A 1.14 1.11 -9.7 0 1 629.45 528.95
  Q 627.97 526.65 625.24 526.39
  Q 624.72 526.34 624.64 525.83
  L 623.67 519.58
  Q 623.57 518.95 623.96 518.44
  Q 625.72 516.14 628.70 515.77
  Q 629.21 515.71 629.41 515.24
  L 630.13 513.53
  A 0.86 0.83 -87.2 0 1 630.64 513.05
  L 636.10 511.07
  Q 636.58 510.90 637.05 511.10
  C 641.36 512.92 646.63 515.68 648.26 508.79
  C 649.31 504.41 644.30 500.49 641.37 498.05
  A 1.02 1.00 -76.2 0 1 641.02 497.46
  Q 640.50 494.77 638.47 493.15
  Q 638.22 492.95 638.30 492.64
  L 640.76 483.11
  A 0.50 0.49 -88.0 0 1 641.14 482.75
  L 646.02 481.86
  A 1.08 1.07 89.3 0 0 646.88 480.97
  L 647.77 475.64
  A 1.33 1.30 -17.7 0 1 648.17 474.89
  L 654.10 469.45
  Q 654.48 469.09 654.99 468.97
  C 658.78 468.04 659.89 458.45 658.64 455.00
  Q 658.48 454.56 658.05 454.37
  C 654.90 452.98 653.58 450.35 650.72 449.08
  C 645.44 446.72 630.55 440.97 625.78 445.54
  Q 625.39 445.92 625.04 445.49
  L 624.48 444.81
  Q 624.12 444.37 623.57 444.21
  C 620.78 443.39 621.22 439.34 620.05 437.01
  C 619.40 435.73 618.04 435.11 617.65 433.32
  Q 617.54 432.84 617.13 432.61
  L 615.43 431.64
  A 0.67 0.66 -52.7 0 1 615.29 430.59
  L 619.17 426.71
  Q 619.50 426.37 619.97 426.34
  Q 623.25 426.11 626.49 425.52
  C 633.10 424.30 632.78 416.74 628.34 413.54
  A 0.81 0.80 -72.1 0 1 628.01 412.89
  L 628.00 407.13
  A 1.04 1.03 -17.2 0 1 628.46 406.27
  Q 632.80 403.37 631.21 398.34
  Q 631.05 397.85 631.45 397.53
  C 634.11 395.38 634.65 388.32 629.54 388.66
  Q 628.99 388.70 628.50 388.45
  C 625.97 387.22 621.17 386.83 624.46 382.47
  Q 625.73 380.79 626.94 379.07
  C 629.74 375.12 628.85 371.63 633.73 368.87
  Q 637.74 366.60 641.68 364.24
  Q 642.26 363.89 642.24 363.21
  L 642.08 359.24
  Q 642.06 358.60 641.48 358.32
  Q 639.49 357.38 637.50 356.49
  C 635.07 355.40 633.49 353.13 629.73 353.53
  Q 629.22 353.59 628.97 353.14
  L 622.92 342.77
  Q 622.68 342.37 622.99 342.02
  Q 625.16 339.48 623.91 336.19
  Q 623.74 335.73 623.32 335.47
  Z"
/>
</svg>
