<?xml version="1.0" encoding="UTF-8" standalone="no"?>
<!DOCTYPE svg PUBLIC "-//W3C//DTD SVG 1.1//EN" "http://www.w3.org/Graphics/SVG/1.1/DTD/svg11.dtd">
<svg xmlns="http://www.w3.org/2000/svg" version="1.1" viewBox="0.00 0.00 1024.00 1024.00">
<path stroke="#808080" stroke-width="2.00" fill="none" stroke-linecap="butt" vector-effect="non-scaling-stroke" d="
  M 279.63 375.54
  C 283.06 381.30 284.54 385.67 279.00 390.90
  A 1.29 1.28 -37.9 0 0 278.79 392.52
  C 281.43 396.75 285.42 403.09 285.70 408.10
  C 286.00 413.32 282.70 418.93 280.64 423.60
  Q 280.44 424.05 280.04 424.35
  Q 273.50 429.15 272.71 437.34
  A 0.98 0.96 76.8 0 1 272.28 438.05
  L 265.75 442.41
  A 0.83 0.82 -51.5 0 0 265.91 443.87
  C 273.89 446.87 273.47 448.91 270.98 456.46
  A 1.33 1.29 42.7 0 0 271.03 457.41
  C 274.07 464.34 277.05 467.82 276.16 475.99
  A 1.57 1.57 0.0 0 0 276.32 476.90
  Q 277.60 479.45 275.78 481.40
  A 0.71 0.64 14.3 0 1 275.40 481.60
  L 273.39 481.89
  Q 272.48 482.03 273.05 482.76
  L 277.11 487.93
  A 1.59 1.58 -67.2 0 1 277.43 488.72
  L 279.47 505.99
  Q 279.71 508.00 281.74 508.00
  L 322.55 508.00
  A 2.41 2.40 -5.5 0 1 324.91 509.94
  Q 326.00 515.52 322.33 519.46
  Q 321.97 519.86 322.01 520.39
  Q 322.31 524.36 322.92 528.31
  C 323.34 531.04 322.07 532.32 325.12 534.02
  Q 331.16 537.39 337.64 539.84
  C 340.44 540.90 339.57 543.53 341.14 545.36
  Q 344.71 549.53 350.40 547.34
  A 0.99 0.97 -5.6 0 0 351.01 546.61
  L 352.12 540.34
  A 1.29 1.29 0.0 0 1 352.66 539.49
  Q 356.04 537.15 357.28 533.17
  Q 357.45 532.61 358.01 532.44
  L 363.30 530.73
  Q 363.81 530.57 364.02 530.08
  L 366.50 524.27
  Q 366.70 523.81 367.09 523.48
  Q 368.04 522.70 368.21 521.45
  Q 368.27 521.01 368.65 520.78
  C 373.60 517.75 376.71 517.37 382.74 517.59
  C 384.76 517.66 386.07 516.76 388.14 516.73
  Q 388.61 516.72 389.04 516.52
  Q 392.71 514.71 395.93 516.88
  Q 396.33 517.16 396.68 516.82
  C 398.46 515.06 399.57 513.50 402.11 512.79
  C 405.20 511.92 408.12 510.99 411.36 510.88
  Q 422.04 510.49 432.73 511.03
  A 1.82 1.78 -26.5 0 1 433.66 511.33
  C 437.67 513.93 438.27 510.27 440.95 508.97
  Q 442.34 508.30 443.86 507.93
  Q 444.37 507.80 444.74 507.44
  Q 446.45 505.75 448.83 505.07
  Q 449.31 504.93 449.60 504.54
  C 452.03 501.30 450.60 496.35 451.61 492.29
  Q 451.73 491.82 451.28 491.63
  C 441.49 487.45 449.08 478.99 454.41 476.01
  C 458.52 473.72 456.09 471.99 454.42 469.48
  C 452.97 467.30 450.65 465.20 450.09 462.84
  C 449.34 459.64 450.56 456.79 451.51 453.80
  C 452.08 452.02 451.86 449.15 453.26 447.56
  Q 458.17 441.97 466.12 441.65
  Q 466.49 441.64 466.60 441.28
  Q 467.58 437.90 465.35 435.62
  Q 465.00 435.25 465.00 434.75
  L 465.00 429.91
  A 2.12 2.11 58.9 0 1 465.24 428.93
  C 466.16 427.14 465.00 425.83 464.90 424.39
  Q 464.47 418.64 469.88 417.20
  C 471.25 416.84 472.85 417.11 474.41 416.95
  A 0.62 0.62 0.0 0 0 474.96 416.36
  C 475.02 414.40 474.30 410.94 476.84 410.17
  Q 482.35 408.49 485.50 412.99
  C 486.87 414.95 491.02 414.70 493.17 415.54
  A 1.04 1.03 8.9 0 1 493.83 416.44
  L 494.07 420.30
  Q 494.10 420.75 494.55 420.75
  L 499.48 420.75
  A 0.54 0.53 -83.1 0 0 500.00 420.34
  Q 500.81 417.20 503.27 415.25
  A 1.45 1.42 -61.0 0 1 504.28 414.95
  C 509.62 415.45 510.64 411.53 514.84 410.10
  A 0.61 0.60 -16.3 0 0 515.23 409.40
  C 514.81 407.51 514.04 406.12 514.01 404.23
  Q 513.92 397.71 514.05 391.17
  Q 514.06 390.61 513.64 390.25
  L 512.93 389.63
  Q 512.56 389.31 512.64 388.84
  Q 513.42 383.94 514.79 379.20
  C 516.32 373.90 515.70 366.93 517.25 363.00
  C 517.72 361.83 519.12 360.67 519.74 359.23
  Q 522.58 352.60 525.06 346.57
  Q 525.63 345.17 524.12 345.07
  Q 462.87 341.06 402.49 337.09
  C 392.54 336.43 382.58 335.48 372.62 335.08
  Q 366.60 334.84 361.23 332.28
  C 356.77 330.16 352.99 325.27 348.49 322.98
  C 344.83 321.11 338.67 315.59 337.46 312.04
  Q 336.79 310.08 335.95 303.10
  C 335.67 300.75 334.55 299.25 333.52 297.20
  C 330.91 291.96 331.35 287.43 326.82 282.95
  A 0.97 0.96 27.6 0 0 325.19 283.46
  L 324.53 287.05
  Q 324.42 287.66 323.91 288.03
  Q 320.24 290.72 322.33 294.59
  Q 322.58 295.05 322.57 295.58
  L 322.47 302.79
  Q 322.46 303.26 322.19 303.64
  C 319.44 307.66 321.25 313.19 317.87 316.15
  Q 317.48 316.49 316.96 316.50
  L 243.40 318.18
  A 1.17 1.17 0.0 0 0 242.25 319.35
  L 242.25 322.73
  A 1.38 1.33 63.0 0 1 242.02 323.49
  Q 239.62 327.11 241.76 330.95
  Q 242.01 331.39 241.82 331.86
  C 241.10 333.61 240.72 336.65 241.82 338.31
  Q 242.42 339.21 242.05 339.55
  A 4.50 3.68 56.5 0 0 241.55 344.48
  Q 242.15 345.68 241.16 346.71
  A 0.73 0.71 -38.1 0 0 241.05 347.56
  C 242.04 349.35 241.98 350.39 241.22 352.44
  C 240.31 354.92 243.21 357.27 243.23 360.00
  Q 243.27 365.94 243.25 371.67
  A 0.75 0.75 0.0 0 0 243.99 372.43
  L 267.99 372.80
  Q 268.58 372.81 269.06 373.17
  L 271.04 374.71
  A 1.28 1.24 -23.8 0 0 271.75 374.97
  L 279.05 375.20
  Q 279.43 375.21 279.63 375.54"
/>
<path fill="#000000" d="
  M 521.69 362.85
  Q 521.95 363.66 521.05 363.54
  Q 520.37 363.44 520.42 364.13
  Q 520.71 368.31 519.84 372.16
  C 519.36 374.28 519.94 376.51 518.77 378.60
  Q 518.53 379.02 518.62 379.49
  Q 518.82 380.63 517.89 381.42
  Q 517.50 381.75 517.50 382.26
  L 517.50 384.78
  A 1.37 1.31 67.1 0 1 517.15 385.69
  Q 516.23 386.71 516.52 388.16
  A 0.41 0.40 85.5 0 0 516.90 388.49
  Q 517.07 388.50 517.25 388.50
  Q 517.37 388.50 517.44 388.60
  Q 518.56 390.08 517.68 391.60
  Q 517.39 392.09 517.43 392.65
  C 517.73 397.02 516.54 403.95 519.03 407.51
  Q 519.34 407.95 519.40 408.47
  L 519.76 411.52
  A 0.79 0.79 0.0 0 1 519.14 412.38
  Q 514.31 413.41 511.19 417.25
  A 0.93 0.91 27.3 0 1 510.22 417.55
  Q 508.80 417.15 507.95 418.16
  Q 507.66 418.50 507.21 418.50
  L 505.31 418.50
  Q 504.83 418.50 504.67 418.96
  Q 502.60 425.19 495.89 424.17
  A 1.15 1.15 0.0 0 0 495.17 424.29
  L 493.53 425.11
  Q 493.11 425.33 492.66 425.19
  C 489.30 424.13 491.09 420.53 490.01 418.12
  A 1.05 1.03 -11.5 0 0 489.05 417.50
  L 484.76 417.50
  Q 484.24 417.50 483.91 417.09
  L 481.47 414.01
  A 2.03 2.03 0.0 0 0 477.86 415.45
  C 477.99 416.90 478.11 417.96 477.74 419.41
  Q 477.60 419.94 477.05 419.95
  Q 472.82 420.06 468.94 421.65
  Q 468.50 421.82 468.50 422.30
  L 468.50 424.45
  Q 468.50 424.96 468.89 425.30
  Q 471.32 427.37 469.05 429.51
  Q 468.68 429.86 468.60 430.37
  Q 468.23 432.76 468.77 433.73
  Q 471.50 438.61 469.51 443.75
  A 1.02 1.00 2.3 0 1 468.85 444.35
  Q 466.42 445.03 464.01 445.42
  C 461.13 445.88 459.95 447.14 457.95 448.93
  C 455.97 450.70 455.43 454.42 454.69 456.91
  C 454.35 458.08 453.44 459.52 453.51 461.22
  Q 453.53 461.69 453.88 462.00
  Q 459.90 467.19 459.95 473.96
  C 459.97 477.70 455.82 479.32 453.90 481.22
  Q 452.13 482.97 450.44 484.92
  A 1.52 1.52 0.0 0 0 451.20 487.38
  Q 453.57 488.01 455.27 489.65
  Q 455.60 489.96 455.69 490.40
  Q 456.29 493.21 454.73 495.48
  A 1.59 1.55 -30.2 0 0 454.45 496.49
  C 454.62 498.83 455.70 504.85 453.47 506.23
  C 449.18 508.88 444.63 511.10 440.80 514.40
  C 435.70 518.78 431.96 514.01 426.72 514.01
  C 418.32 514.00 410.50 513.08 402.33 517.27
  C 400.32 518.31 398.66 520.41 395.79 521.09
  Q 395.25 521.21 394.82 520.86
  L 392.99 519.34
  A 0.93 0.93 0.0 0 0 392.13 519.16
  C 389.45 519.94 387.57 520.77 384.61 520.51
  C 382.06 520.29 372.00 520.44 371.57 524.69
  A 1.83 1.81 -23.8 0 1 371.21 525.61
  Q 368.50 529.19 366.75 533.32
  A 2.07 2.06 17.3 0 1 364.42 534.54
  Q 362.15 534.07 360.46 536.71
  Q 358.10 540.41 354.80 543.26
  Q 354.41 543.60 354.46 544.12
  C 354.84 547.97 353.18 551.87 348.46 550.40
  A 0.94 0.93 32.0 0 0 347.53 550.61
  Q 346.65 551.44 345.57 550.65
  A 0.77 0.75 57.8 0 0 345.00 550.51
  L 343.14 550.79
  Q 342.51 550.88 342.18 550.33
  Q 341.68 549.49 340.70 549.47
  Q 340.21 549.46 339.85 549.12
  Q 337.38 546.76 337.31 543.32
  Q 337.30 542.64 336.62 542.58
  L 335.27 542.44
  A 0.78 0.76 79.5 0 1 334.65 542.00
  Q 334.31 541.23 333.43 541.53
  Q 332.95 541.69 332.48 541.46
  L 321.69 536.08
  A 2.35 2.35 0.0 0 1 320.39 534.01
  L 320.31 529.05
  Q 320.30 528.62 320.12 528.22
  C 318.75 525.20 319.74 521.36 319.40 517.88
  Q 319.34 517.34 319.75 516.98
  L 321.86 515.11
  Q 322.30 514.71 322.33 514.12
  L 322.42 511.79
  A 0.75 0.74 -88.9 0 0 321.68 511.01
  Q 302.81 510.96 284.01 511.04
  Q 282.61 511.05 281.29 510.56
  A 1.29 1.28 -45.3 0 0 280.35 510.57
  Q 279.17 511.06 278.09 510.43
  Q 277.59 510.15 277.54 509.58
  Q 277.39 507.87 275.78 507.19
  A 2.83 2.83 0.0 0 1 274.77 502.70
  Q 276.24 501.05 274.79 499.19
  A 1.17 1.17 0.0 0 1 274.56 498.29
  Q 275.76 491.55 271.56 486.74
  C 269.44 484.32 268.04 479.75 272.23 478.80
  Q 272.73 478.69 272.74 478.18
  C 272.79 474.40 273.37 470.38 271.66 466.88
  C 268.80 461.03 266.06 457.74 268.93 450.86
  Q 269.15 450.33 268.81 449.88
  C 267.14 447.72 264.49 447.72 263.17 446.10
  C 259.56 441.67 265.98 437.00 269.10 435.69
  Q 269.62 435.47 269.67 434.92
  Q 270.51 426.90 276.93 422.19
  A 1.90 1.82 83.6 0 0 277.57 421.35
  Q 279.72 415.86 281.08 413.09
  C 285.78 403.52 270.90 395.36 277.04 387.49
  Q 280.66 382.85 276.71 378.62
  A 1.01 1.00 62.0 0 0 275.77 378.33
  Q 270.85 379.44 267.17 376.37
  Q 266.72 375.99 266.13 375.99
  C 258.32 376.01 248.60 377.05 241.18 374.95
  A 1.98 1.97 8.1 0 1 239.74 373.04
  Q 239.78 367.11 239.72 361.16
  C 239.70 358.77 237.81 357.48 237.81 355.44
  Q 237.76 343.05 237.72 330.67
  C 237.72 328.96 236.81 326.44 237.76 324.23
  C 239.16 321.02 237.63 314.96 242.72 314.85
  Q 255.78 314.56 268.85 314.34
  C 278.39 314.18 291.23 313.42 302.46 313.49
  C 305.99 313.51 310.40 312.81 314.64 313.05
  A 1.73 1.72 2.8 0 0 316.46 311.41
  Q 316.65 306.95 318.34 302.74
  C 320.43 297.50 317.11 293.99 318.59 289.47
  C 319.55 286.55 321.92 285.80 321.77 281.92
  A 1.21 1.19 -24.3 0 1 322.11 281.04
  C 325.73 277.30 329.07 279.97 331.81 282.88
  C 333.51 284.68 333.55 287.13 334.97 289.34
  A 1.67 1.63 -63.3 0 1 335.25 290.23
  C 335.30 293.08 337.01 295.43 338.20 297.96
  C 339.86 301.51 339.46 306.22 340.62 309.96
  C 341.74 313.57 345.04 315.35 347.27 317.47
  Q 349.91 319.98 353.33 321.33
  A 1.57 1.52 -4.5 0 1 354.09 321.96
  Q 355.21 323.72 357.26 324.35
  Q 357.81 324.52 358.14 324.99
  C 360.89 328.95 367.54 331.35 372.25 331.47
  C 376.18 331.56 380.61 332.20 383.92 332.41
  Q 430.71 335.41 477.50 338.47
  C 480.75 338.69 483.71 338.68 486.48 339.04
  Q 491.54 339.70 496.63 339.79
  C 503.07 339.92 509.72 341.14 516.46 340.66
  Q 516.93 340.62 517.34 340.86
  C 519.64 342.19 526.60 341.56 529.65 341.87
  Q 530.45 341.95 530.16 342.70
  L 525.75 354.12
  Q 525.64 354.40 525.70 354.69
  Q 525.81 355.27 524.96 355.55
  Q 524.46 355.72 524.62 356.23
  Q 525.02 357.55 523.83 358.43
  Q 523.43 358.74 523.53 359.23
  Q 523.72 360.15 522.87 360.60
  Q 522.39 360.86 522.56 361.37
  Q 522.66 361.65 522.62 361.92
  Q 522.56 362.32 522.25 362.46
  Q 522.08 362.54 521.88 362.56
  Q 521.61 362.59 521.69 362.85
  Z
  M 279.63 375.54
  C 283.06 381.30 284.54 385.67 279.00 390.90
  A 1.29 1.28 -37.9 0 0 278.79 392.52
  C 281.43 396.75 285.42 403.09 285.70 408.10
  C 286.00 413.32 282.70 418.93 280.64 423.60
  Q 280.44 424.05 280.04 424.35
  Q 273.50 429.15 272.71 437.34
  A 0.98 0.96 76.8 0 1 272.28 438.05
  L 265.75 442.41
  A 0.83 0.82 -51.5 0 0 265.91 443.87
  C 273.89 446.87 273.47 448.91 270.98 456.46
  A 1.33 1.29 42.7 0 0 271.03 457.41
  C 274.07 464.34 277.05 467.82 276.16 475.99
  A 1.57 1.57 0.0 0 0 276.32 476.90
  Q 277.60 479.45 275.78 481.40
  A 0.71 0.64 14.3 0 1 275.40 481.60
  L 273.39 481.89
  Q 272.48 482.03 273.05 482.76
  L 277.11 487.93
  A 1.59 1.58 -67.2 0 1 277.43 488.72
  L 279.47 505.99
  Q 279.71 508.00 281.74 508.00
  L 322.55 508.00
  A 2.41 2.40 -5.5 0 1 324.91 509.94
  Q 326.00 515.52 322.33 519.46
  Q 321.97 519.86 322.01 520.39
  Q 322.31 524.36 322.92 528.31
  C 323.34 531.04 322.07 532.32 325.12 534.02
  Q 331.16 537.39 337.64 539.84
  C 340.44 540.90 339.57 543.53 341.14 545.36
  Q 344.71 549.53 350.40 547.34
  A 0.99 0.97 -5.6 0 0 351.01 546.61
  L 352.12 540.34
  A 1.29 1.29 0.0 0 1 352.66 539.49
  Q 356.04 537.15 357.28 533.17
  Q 357.45 532.61 358.01 532.44
  L 363.30 530.73
  Q 363.81 530.57 364.02 530.08
  L 366.50 524.27
  Q 366.70 523.81 367.09 523.48
  Q 368.04 522.70 368.21 521.45
  Q 368.27 521.01 368.65 520.78
  C 373.60 517.75 376.71 517.37 382.74 517.59
  C 384.76 517.66 386.07 516.76 388.14 516.73
  Q 388.61 516.72 389.04 516.52
  Q 392.71 514.71 395.93 516.88
  Q 396.33 517.16 396.68 516.82
  C 398.46 515.06 399.57 513.50 402.11 512.79
  C 405.20 511.92 408.12 510.99 411.36 510.88
  Q 422.04 510.49 432.73 511.03
  A 1.82 1.78 -26.5 0 1 433.66 511.33
  C 437.67 513.93 438.27 510.27 440.95 508.97
  Q 442.34 508.30 443.86 507.93
  Q 444.37 507.80 444.74 507.44
  Q 446.45 505.75 448.83 505.07
  Q 449.31 504.93 449.60 504.54
  C 452.03 501.30 450.60 496.35 451.61 492.29
  Q 451.73 491.82 451.28 491.63
  C 441.49 487.45 449.08 478.99 454.41 476.01
  C 458.52 473.72 456.09 471.99 454.42 469.48
  C 452.97 467.30 450.65 465.20 450.09 462.84
  C 449.34 459.64 450.56 456.79 451.51 453.80
  C 452.08 452.02 451.86 449.15 453.26 447.56
  Q 458.17 441.97 466.12 441.65
  Q 466.49 441.64 466.60 441.28
  Q 467.58 437.90 465.35 435.62
  Q 465.00 435.25 465.00 434.75
  L 465.00 429.91
  A 2.12 2.11 58.9 0 1 465.24 428.93
  C 466.16 427.14 465.00 425.83 464.90 424.39
  Q 464.47 418.64 469.88 417.20
  C 471.25 416.84 472.85 417.11 474.41 416.95
  A 0.62 0.62 0.0 0 0 474.96 416.36
  C 475.02 414.40 474.30 410.94 476.84 410.17
  Q 482.35 408.49 485.50 412.99
  C 486.87 414.95 491.02 414.70 493.17 415.54
  A 1.04 1.03 8.9 0 1 493.83 416.44
  L 494.07 420.30
  Q 494.10 420.75 494.55 420.75
  L 499.48 420.75
  A 0.54 0.53 -83.1 0 0 500.00 420.34
  Q 500.81 417.20 503.27 415.25
  A 1.45 1.42 -61.0 0 1 504.28 414.95
  C 509.62 415.45 510.64 411.53 514.84 410.10
  A 0.61 0.60 -16.3 0 0 515.23 409.40
  C 514.81 407.51 514.04 406.12 514.01 404.23
  Q 513.92 397.71 514.05 391.17
  Q 514.06 390.61 513.64 390.25
  L 512.93 389.63
  Q 512.56 389.31 512.64 388.84
  Q 513.42 383.94 514.79 379.20
  C 516.32 373.90 515.70 366.93 517.25 363.00
  C 517.72 361.83 519.12 360.67 519.74 359.23
  Q 522.58 352.60 525.06 346.57
  Q 525.63 345.17 524.12 345.07
  Q 462.87 341.06 402.49 337.09
  C 392.54 336.43 382.58 335.48 372.62 335.08
  Q 366.60 334.84 361.23 332.28
  C 356.77 330.16 352.99 325.27 348.49 322.98
  C 344.83 321.11 338.67 315.59 337.46 312.04
  Q 336.79 310.08 335.95 303.10
  C 335.67 300.75 334.55 299.25 333.52 297.20
  C 330.91 291.96 331.35 287.43 326.82 282.95
  A 0.97 0.96 27.6 0 0 325.19 283.46
  L 324.53 287.05
  Q 324.42 287.66 323.91 288.03
  Q 320.24 290.72 322.33 294.59
  Q 322.58 295.05 322.57 295.58
  L 322.47 302.79
  Q 322.46 303.26 322.19 303.64
  C 319.44 307.66 321.25 313.19 317.87 316.15
  Q 317.48 316.49 316.96 316.50
  L 243.40 318.18
  A 1.17 1.17 0.0 0 0 242.25 319.35
  L 242.25 322.73
  A 1.38 1.33 63.0 0 1 242.02 323.49
  Q 239.62 327.11 241.76 330.95
  Q 242.01 331.39 241.82 331.86
  C 241.10 333.61 240.72 336.65 241.82 338.31
  Q 242.42 339.21 242.05 339.55
  A 4.50 3.68 56.5 0 0 241.55 344.48
  Q 242.15 345.68 241.16 346.71
  A 0.73 0.71 -38.1 0 0 241.05 347.56
  C 242.04 349.35 241.98 350.39 241.22 352.44
  C 240.31 354.92 243.21 357.27 243.23 360.00
  Q 243.27 365.94 243.25 371.67
  A 0.75 0.75 0.0 0 0 243.99 372.43
  L 267.99 372.80
  Q 268.58 372.81 269.06 373.17
  L 271.04 374.71
  A 1.28 1.24 -23.8 0 0 271.75 374.97
  L 279.05 375.20
  Q 279.43 375.21 279.63 375.54
  Z"
/>
<path fill="#ffffff" d="
  M 279.05 375.20
  L 271.75 374.97
  A 1.28 1.24 -23.8 0 1 271.04 374.71
  L 269.06 373.17
  Q 268.58 372.81 267.99 372.80
  L 243.99 372.43
  A 0.75 0.75 0.0 0 1 243.25 371.67
  Q 243.27 365.94 243.23 360.00
  C 243.21 357.27 240.31 354.92 241.22 352.44
  C 241.98 350.39 242.04 349.35 241.05 347.56
  A 0.73 0.71 -38.1 0 1 241.16 346.71
  Q 242.15 345.68 241.55 344.48
  A 4.50 3.68 56.5 0 1 242.05 339.55
  Q 242.42 339.21 241.82 338.31
  C 240.72 336.65 241.10 333.61 241.82 331.86
  Q 242.01 331.39 241.76 330.95
  Q 239.62 327.11 242.02 323.49
  A 1.38 1.33 63.0 0 0 242.25 322.73
  L 242.25 319.35
  A 1.17 1.17 0.0 0 1 243.40 318.18
  L 316.96 316.50
  Q 317.48 316.49 317.87 316.15
  C 321.25 313.19 319.44 307.66 322.19 303.64
  Q 322.46 303.26 322.47 302.79
  L 322.57 295.58
  Q 322.58 295.05 322.33 294.59
  Q 320.24 290.72 323.91 288.03
  Q 324.42 287.66 324.53 287.05
  L 325.19 283.46
  A 0.97 0.96 27.6 0 1 326.82 282.95
  C 331.35 287.43 330.91 291.96 333.52 297.20
  C 334.55 299.25 335.67 300.75 335.95 303.10
  Q 336.79 310.08 337.46 312.04
  C 338.67 315.59 344.83 321.11 348.49 322.98
  C 352.99 325.27 356.77 330.16 361.23 332.28
  Q 366.60 334.84 372.62 335.08
  C 382.58 335.48 392.54 336.43 402.49 337.09
  Q 462.87 341.06 524.12 345.07
  Q 525.63 345.17 525.06 346.57
  Q 522.58 352.60 519.74 359.23
  C 519.12 360.67 517.72 361.83 517.25 363.00
  C 515.70 366.93 516.32 373.90 514.79 379.20
  Q 513.42 383.94 512.64 388.84
  Q 512.56 389.31 512.93 389.63
  L 513.64 390.25
  Q 514.06 390.61 514.05 391.17
  Q 513.92 397.71 514.01 404.23
  C 514.04 406.12 514.81 407.51 515.23 409.40
  A 0.61 0.60 -16.3 0 1 514.84 410.10
  C 510.64 411.53 509.62 415.45 504.28 414.95
  A 1.45 1.42 -61.0 0 0 503.27 415.25
  Q 500.81 417.20 500.00 420.34
  A 0.54 0.53 -83.1 0 1 499.48 420.75
  L 494.55 420.75
  Q 494.10 420.75 494.07 420.30
  L 493.83 416.44
  A 1.04 1.03 8.9 0 0 493.17 415.54
  C 491.02 414.70 486.87 414.95 485.50 412.99
  Q 482.35 408.49 476.84 410.17
  C 474.30 410.94 475.02 414.40 474.96 416.36
  A 0.62 0.62 0.0 0 1 474.41 416.95
  C 472.85 417.11 471.25 416.84 469.88 417.20
  Q 464.47 418.64 464.90 424.39
  C 465.00 425.83 466.16 427.14 465.24 428.93
  A 2.12 2.11 58.9 0 0 465.00 429.91
  L 465.00 434.75
  Q 465.00 435.25 465.35 435.62
  Q 467.58 437.90 466.60 441.28
  Q 466.49 441.64 466.12 441.65
  Q 458.17 441.97 453.26 447.56
  C 451.86 449.15 452.08 452.02 451.51 453.80
  C 450.56 456.79 449.34 459.64 450.09 462.84
  C 450.65 465.20 452.97 467.30 454.42 469.48
  C 456.09 471.99 458.52 473.72 454.41 476.01
  C 449.08 478.99 441.49 487.45 451.28 491.63
  Q 451.73 491.82 451.61 492.29
  C 450.60 496.35 452.03 501.30 449.60 504.54
  Q 449.31 504.93 448.83 505.07
  Q 446.45 505.75 444.74 507.44
  Q 444.37 507.80 443.86 507.93
  Q 442.34 508.30 440.95 508.97
  C 438.27 510.27 437.67 513.93 433.66 511.33
  A 1.82 1.78 -26.5 0 0 432.73 511.03
  Q 422.04 510.49 411.36 510.88
  C 408.12 510.99 405.20 511.92 402.11 512.79
  C 399.57 513.50 398.46 515.06 396.68 516.82
  Q 396.33 517.16 395.93 516.88
  Q 392.71 514.71 389.04 516.52
  Q 388.61 516.72 388.14 516.73
  C 386.07 516.76 384.76 517.66 382.74 517.59
  C 376.71 517.37 373.60 517.75 368.65 520.78
  Q 368.27 521.01 368.21 521.45
  Q 368.04 522.70 367.09 523.48
  Q 366.70 523.81 366.50 524.27
  L 364.02 530.08
  Q 363.81 530.57 363.30 530.73
  L 358.01 532.44
  Q 357.45 532.61 357.28 533.17
  Q 356.04 537.15 352.66 539.49
  A 1.29 1.29 0.0 0 0 352.12 540.34
  L 351.01 546.61
  A 0.99 0.97 -5.6 0 1 350.40 547.34
  Q 344.71 549.53 341.14 545.36
  C 339.57 543.53 340.44 540.90 337.64 539.84
  Q 331.16 537.39 325.12 534.02
  C 322.07 532.32 323.34 531.04 322.92 528.31
  Q 322.31 524.36 322.01 520.39
  Q 321.97 519.86 322.33 519.46
  Q 326.00 515.52 324.91 509.94
  A 2.41 2.40 -5.5 0 0 322.55 508.00
  L 281.74 508.00
  Q 279.71 508.00 279.47 505.99
  L 277.43 488.72
  A 1.59 1.58 -67.2 0 0 277.11 487.93
  L 273.05 482.76
  Q 272.48 482.03 273.39 481.89
  L 275.40 481.60
  A 0.71 0.64 14.3 0 0 275.78 481.40
  Q 277.60 479.45 276.32 476.90
  A 1.57 1.57 0.0 0 1 276.16 475.99
  C 277.05 467.82 274.07 464.34 271.03 457.41
  A 1.33 1.29 42.7 0 1 270.98 456.46
  C 273.47 448.91 273.89 446.87 265.91 443.87
  A 0.83 0.82 -51.5 0 1 265.75 442.41
  L 272.28 438.05
  A 0.98 0.96 76.8 0 0 272.71 437.34
  Q 273.50 429.15 280.04 424.35
  Q 280.44 424.05 280.64 423.60
  C 282.70 418.93 286.00 413.32 285.70 408.10
  C 285.42 403.09 281.43 396.75 278.79 392.52
  A 1.29 1.28 -37.9 0 1 279.00 390.90
  C 284.54 385.67 283.06 381.30 279.63 375.54
  Q 279.43 375.21 279.05 375.20
  Z"
/>
</svg>
