<?xml version="1.0" encoding="UTF-8" standalone="no"?>
<!DOCTYPE svg PUBLIC "-//W3C//DTD SVG 1.1//EN" "http://www.w3.org/Graphics/SVG/1.1/DTD/svg11.dtd">
<svg xmlns="http://www.w3.org/2000/svg" version="1.1" viewBox="0.00 0.00 1024.00 1024.00">
<path stroke="#808080" stroke-width="2.00" fill="none" stroke-linecap="butt" vector-effect="non-scaling-stroke" d="
  M 616.84 533.17
  Q 618.34 532.13 620.22 532.54
  A 1.33 1.33 0.0 0 0 621.57 530.44
  L 620.62 529.18
  Q 620.30 528.75 620.32 528.22
  L 620.56 522.93
  Q 620.58 522.45 620.20 522.15
  Q 616.75 519.36 618.94 516.27
  C 621.13 513.19 625.27 514.37 626.47 510.54
  A 1.11 1.09 -4.5 0 1 627.06 509.86
  C 632.45 507.30 638.47 504.84 642.89 509.49
  Q 643.48 510.11 643.87 509.35
  L 644.52 508.06
  Q 644.77 507.58 644.37 507.22
  Q 637.77 501.12 633.57 493.15
  A 1.13 1.11 -51.1 0 1 633.49 492.31
  L 637.31 479.66
  Q 637.47 479.13 638.02 479.11
  L 642.89 478.95
  A 1.21 1.21 0.0 0 0 644.03 477.46
  C 642.80 472.18 648.24 468.69 652.01 465.62
  C 654.11 463.91 654.70 461.74 655.91 459.45
  A 0.98 0.98 0.0 0 0 655.64 458.20
  Q 652.81 456.07 649.83 454.07
  C 644.65 450.60 637.48 449.08 631.50 447.35
  A 1.30 1.26 -52.0 0 0 630.47 447.49
  L 627.04 449.58
  Q 626.46 449.94 625.79 449.80
  Q 619.12 448.38 617.25 442.31
  Q 616.45 439.74 615.50 438.52
  C 613.66 436.16 608.17 429.99 604.99 430.22
  C 598.22 430.70 590.29 426.22 583.78 423.17
  C 579.68 421.25 577.26 417.45 574.94 413.78
  A 1.12 1.12 0.0 0 0 573.99 413.25
  L 568.31 413.25
  Q 567.80 413.25 567.39 413.57
  L 562.73 417.24
  A 0.80 0.80 0.0 0 1 561.96 417.37
  L 551.53 413.70
  Q 549.29 412.91 550.01 410.65
  Q 550.57 408.89 551.20 405.99
  C 552.81 398.58 536.64 401.92 533.72 403.75
  Q 527.46 407.66 521.25 411.66
  C 518.80 413.23 515.73 413.62 513.22 415.81
  C 510.87 417.87 509.30 418.68 506.46 418.76
  A 1.78 1.78 0.0 0 0 504.86 419.86
  Q 502.57 425.47 496.46 424.43
  A 1.47 1.46 -55.3 0 0 495.50 424.61
  C 490.14 427.75 490.33 423.13 490.22 419.63
  A 1.49 1.48 -5.0 0 0 488.52 418.21
  Q 485.97 418.57 483.72 417.52
  Q 483.19 417.27 482.95 416.74
  Q 481.81 414.27 479.24 413.42
  Q 478.50 413.17 478.50 413.95
  L 478.50 418.30
  A 2.21 2.21 0.0 0 1 476.11 420.50
  Q 472.38 420.19 469.27 422.34
  A 1.51 1.51 0.0 0 0 469.12 424.71
  Q 472.25 427.50 468.89 430.42
  A 0.92 0.92 0.0 0 0 468.64 431.43
  L 470.32 435.98
  Q 470.50 436.46 470.50 436.98
  L 470.50 443.03
  A 1.23 1.22 68.1 0 1 470.13 443.91
  Q 468.79 445.22 467.04 445.35
  C 456.81 446.13 456.39 452.75 453.87 460.58
  Q 453.71 461.08 454.08 461.45
  C 457.54 464.95 464.17 474.82 457.83 478.84
  Q 453.87 481.34 450.77 485.53
  A 0.67 0.67 0.0 0 0 450.97 486.51
  L 455.63 489.21
  Q 456.03 489.44 456.13 489.90
  Q 456.81 493.29 454.91 496.08
  A 1.14 1.09 59.6 0 0 454.73 496.84
  C 455.17 500.42 456.65 505.06 452.73 507.25
  Q 445.80 511.13 439.34 515.73
  C 436.25 517.93 433.26 516.10 430.38 515.00
  C 426.77 513.62 421.50 514.23 417.63 514.25
  C 410.15 514.30 404.49 515.95 398.74 520.23
  C 396.53 521.87 394.54 522.23 392.95 519.73
  A 0.70 0.70 0.0 0 0 392.08 519.47
  C 385.78 522.26 380.58 520.52 374.32 522.29
  Q 373.11 522.63 372.67 523.42
  Q 369.75 528.62 366.94 533.72
  A 2.18 2.16 -73.9 0 1 364.93 534.84
  C 361.39 534.66 358.34 540.58 355.77 542.95
  Q 355.40 543.29 355.32 543.79
  Q 354.98 546.17 353.18 551.45
  Q 352.50 553.48 354.31 555.00
  Q 354.69 555.32 355.15 555.17
  Q 359.82 553.73 365.83 550.85
  C 367.44 550.08 368.85 550.48 370.44 551.51
  C 373.64 553.59 376.96 552.76 379.99 553.37
  Q 388.92 555.19 397.80 556.45
  A 2.14 2.11 -5.2 0 1 399.50 557.85
  L 401.72 564.18
  A 0.71 0.69 -9.5 0 0 402.40 564.65
  L 407.05 564.55
  A 0.67 0.66 17.9 0 0 407.55 564.30
  C 410.03 561.03 424.13 560.66 427.20 560.43
  Q 430.16 560.20 435.75 559.27
  Q 441.52 558.30 447.52 558.88
  Q 448.02 558.93 448.29 559.35
  Q 450.24 562.40 452.74 564.98
  C 455.62 567.94 454.16 570.11 453.80 573.53
  A 0.75 0.74 15.9 0 0 454.23 574.29
  Q 456.35 575.27 457.07 577.45
  A 1.54 1.53 47.8 0 1 457.02 578.51
  L 454.66 583.95
  Q 454.44 584.45 454.54 584.98
  Q 455.77 591.58 459.28 597.31
  Q 459.58 597.79 460.13 597.68
  Q 467.96 596.06 472.40 602.58
  A 2.59 2.58 41.1 0 1 472.58 605.18
  C 471.31 607.72 469.64 609.60 469.46 612.61
  Q 469.05 619.53 467.28 626.35
  A 0.93 0.91 -62.9 0 0 467.57 627.29
  L 471.69 630.81
  Q 472.13 631.17 472.37 631.69
  Q 474.25 635.58 474.77 639.87
  Q 474.82 640.29 475.20 640.50
  C 479.24 642.74 482.80 641.41 486.80 640.69
  Q 487.36 640.58 487.42 640.02
  C 487.74 637.01 487.55 633.85 491.74 634.25
  Q 499.52 634.99 507.27 631.68
  C 512.47 629.46 517.27 628.61 522.38 626.86
  C 526.55 625.44 530.68 625.90 534.65 623.86
  Q 537.40 622.44 540.31 621.43
  C 544.88 619.85 550.56 620.47 555.50 620.59
  A 1.66 1.63 -24.8 0 1 556.43 620.92
  L 559.28 623.03
  A 0.87 0.87 0.0 0 0 560.30 623.05
  Q 568.42 617.47 577.97 615.20
  A 0.72 0.72 0.0 0 0 578.53 614.43
  C 578.14 610.25 578.98 608.68 581.43 604.90
  Q 583.85 601.17 585.54 595.56
  Q 586.72 591.64 591.40 590.20
  A 1.49 1.47 -79.7 0 0 592.11 589.70
  C 595.19 585.67 596.09 579.15 596.33 574.90
  Q 596.36 574.35 596.80 574.04
  Q 600.66 571.27 605.40 571.63
  Q 605.87 571.66 606.23 571.35
  Q 612.14 566.34 613.88 558.64
  Q 614.00 558.11 614.38 557.74
  C 618.75 553.47 623.21 550.05 621.30 543.10
  C 620.51 540.19 617.78 538.48 616.25 535.72
  A 1.95 1.94 58.2 0 1 616.84 533.17"
/>
<path fill="#000000" d="
  M 451.97 491.22
  Q 446.77 489.57 447.42 484.83
  C 447.84 481.80 451.21 479.44 453.33 477.28
  A 1.92 1.84 12.6 0 1 454.09 476.82
  Q 456.98 475.90 457.38 472.77
  A 1.01 0.99 29.6 0 0 457.16 472.00
  Q 454.37 468.52 451.72 464.90
  C 449.31 461.59 450.67 456.92 452.42 453.65
  A 1.39 1.38 -34.6 0 0 452.58 452.80
  C 451.92 447.21 457.27 444.73 462.19 442.74
  Q 462.68 442.55 463.21 442.53
  L 466.41 442.45
  Q 467.04 442.43 467.24 441.83
  Q 468.55 437.90 465.85 435.40
  Q 465.47 435.04 465.39 434.53
  Q 464.86 431.08 466.29 427.99
  Q 466.49 427.55 466.24 427.13
  C 462.79 421.27 468.23 416.57 473.95 417.59
  A 1.32 1.32 0.0 0 0 475.50 416.29
  L 475.50 412.59
  Q 475.50 411.26 476.76 410.84
  C 484.58 408.20 484.10 416.62 491.83 415.44
  A 1.09 1.07 -17.6 0 1 492.96 416.01
  Q 493.85 417.76 493.49 419.85
  Q 493.18 421.67 495.02 421.52
  L 499.81 421.14
  A 0.87 0.86 -82.9 0 0 500.57 420.54
  Q 501.42 417.75 503.56 415.80
  A 1.23 1.23 0.0 0 1 504.52 415.49
  C 508.95 415.98 510.73 413.24 513.57 411.68
  C 518.60 408.91 522.96 405.49 528.20 402.92
  Q 530.93 401.58 533.42 399.81
  A 1.45 1.42 27.7 0 1 534.32 399.54
  Q 536.59 399.64 540.17 398.72
  Q 547.08 396.95 553.23 400.78
  C 555.33 402.10 554.45 408.07 554.51 410.43
  Q 554.52 410.86 554.92 411.00
  L 561.46 413.28
  A 0.54 0.50 -43.0 0 0 561.83 413.28
  Q 563.79 412.48 565.35 411.04
  Q 565.75 410.67 566.30 410.57
  C 569.29 410.06 578.26 408.85 578.49 412.55
  A 1.15 1.13 17.3 0 0 578.94 413.39
  Q 580.91 414.91 581.97 417.15
  A 1.81 1.81 0.0 0 0 582.59 417.88
  C 588.66 422.03 593.31 423.25 599.18 425.68
  Q 600.94 426.41 603.13 426.36
  C 610.81 426.18 615.66 430.61 619.46 437.18
  C 621.68 441.02 620.11 444.03 625.53 446.08
  Q 626.08 446.29 626.47 445.85
  L 627.38 444.82
  Q 627.74 444.40 628.29 444.39
  L 634.97 444.19
  Q 635.61 444.17 635.73 444.80
  Q 635.82 445.32 636.23 445.30
  Q 638.37 445.16 639.85 445.44
  Q 640.33 445.53 640.63 445.91
  Q 641.01 446.40 641.66 446.25
  Q 642.15 446.14 642.61 446.33
  C 646.09 447.76 650.48 448.91 653.17 451.61
  Q 655.22 453.66 657.88 454.89
  Q 658.35 455.10 658.45 455.61
  C 659.50 460.78 658.24 462.48 656.52 467.10
  Q 656.34 467.58 655.91 467.84
  Q 651.92 470.31 648.74 473.73
  C 646.93 475.67 647.01 477.81 646.51 480.25
  A 1.92 1.92 0.0 0 1 644.56 481.78
  Q 642.46 481.69 640.69 482.72
  Q 640.23 482.99 640.10 483.51
  L 637.97 492.39
  Q 637.86 492.83 638.08 493.24
  Q 641.70 499.75 647.35 504.64
  A 1.16 1.12 -71.3 0 1 647.74 505.46
  C 647.79 507.50 648.28 509.90 646.73 511.40
  C 643.69 514.35 640.33 512.25 637.28 510.67
  A 1.22 1.20 -39.5 0 0 636.36 510.59
  C 633.82 511.42 629.90 511.94 629.07 514.94
  Q 628.94 515.42 628.45 515.48
  Q 624.96 515.93 622.83 518.73
  A 0.77 0.77 0.0 0 0 622.79 519.60
  Q 624.23 521.92 623.69 524.70
  Q 623.61 525.12 623.94 525.38
  Q 624.57 525.86 624.61 526.57
  C 624.76 529.18 626.38 535.65 622.48 536.09
  A 0.40 0.40 0.0 0 0 622.24 536.77
  C 625.79 540.29 625.42 545.03 625.03 549.97
  C 624.71 554.01 621.16 557.47 618.35 560.04
  Q 618.00 560.37 618.00 560.85
  L 618.00 561.39
  Q 618.00 561.81 617.75 562.14
  C 615.39 565.24 614.68 569.35 612.23 571.93
  Q 610.92 573.30 609.52 574.64
  Q 609.11 575.02 608.56 574.99
  Q 604.56 574.75 600.93 576.49
  A 1.74 1.73 -17.3 0 0 599.97 578.31
  C 600.37 580.92 598.55 582.37 599.07 585.11
  A 1.33 1.32 -32.0 0 1 598.83 586.13
  Q 597.88 587.40 597.89 589.00
  A 1.18 1.17 70.2 0 1 597.47 589.90
  C 595.31 591.65 594.06 593.26 591.53 595.20
  Q 589.40 596.85 588.76 600.33
  Q 588.06 604.17 584.67 607.85
  C 581.95 610.82 581.94 611.93 582.09 615.73
  Q 582.24 619.59 578.22 618.89
  A 0.81 0.80 24.3 0 0 577.44 619.18
  Q 576.59 620.21 575.25 619.99
  Q 574.78 619.92 574.33 620.06
  Q 569.81 621.46 566.38 624.66
  Q 565.99 625.02 565.45 624.99
  Q 564.01 624.89 563.26 626.14
  Q 563.03 626.52 562.61 626.66
  Q 558.09 628.18 554.79 625.31
  Q 554.44 625.00 553.98 625.00
  L 542.97 625.00
  A 1.57 1.53 -63.1 0 0 542.03 625.32
  Q 541.03 626.10 539.75 626.00
  Q 539.19 625.96 538.89 626.43
  Q 537.67 628.33 535.38 628.00
  Q 534.88 627.92 534.43 628.17
  C 532.43 629.26 530.43 628.82 528.58 629.37
  C 522.01 631.33 515.47 632.61 509.05 635.27
  Q 500.97 638.62 491.94 637.23
  Q 491.35 637.14 491.39 637.73
  L 491.54 639.75
  A 3.58 3.43 -2.3 0 1 488.01 643.42
  C 486.65 643.43 485.40 644.35 483.87 644.49
  C 481.54 644.69 470.91 645.25 471.50 640.90
  Q 471.56 640.41 471.40 639.95
  C 470.74 638.07 469.76 631.12 466.30 631.51
  Q 465.81 631.56 465.48 631.20
  C 461.84 627.13 463.98 624.72 464.63 620.42
  Q 465.33 615.76 465.49 611.06
  Q 465.50 610.64 465.71 610.28
  L 468.48 605.67
  Q 468.77 605.18 468.55 604.66
  C 465.98 598.65 462.41 601.80 458.15 600.51
  C 453.71 599.17 453.26 594.39 451.92 590.57
  C 450.85 587.48 451.35 584.83 451.58 581.69
  Q 451.62 581.12 451.93 580.65
  Q 452.69 579.52 452.48 578.12
  A 0.76 0.73 -85.7 0 0 451.98 577.52
  C 449.52 576.70 450.53 570.58 450.48 568.57
  A 2.31 2.30 8.8 0 0 448.92 566.45
  Q 446.30 565.56 446.39 562.97
  Q 446.41 562.49 445.93 562.49
  L 437.25 562.50
  Q 436.79 562.50 436.76 562.96
  Q 436.73 563.34 436.24 563.48
  Q 435.84 563.59 435.43 563.55
  C 430.04 563.07 423.75 564.25 419.77 564.59
  C 416.36 564.88 412.19 565.11 410.16 567.19
  Q 409.83 567.53 409.36 567.54
  L 400.33 567.65
  A 0.91 0.91 0.0 0 1 399.57 567.27
  C 397.74 564.64 396.84 559.16 393.80 558.81
  C 387.20 558.06 383.00 556.71 377.91 556.46
  C 375.40 556.34 369.55 555.69 367.50 554.56
  Q 367.04 554.30 366.51 554.39
  Q 364.94 554.65 363.84 555.77
  Q 363.49 556.14 363.01 556.31
  Q 358.05 558.13 354.07 557.93
  C 349.64 557.71 349.79 550.49 350.97 547.64
  Q 352.26 544.49 352.70 541.10
  A 1.46 1.41 74.3 0 1 353.20 540.17
  Q 356.35 537.51 357.78 533.64
  A 1.40 1.39 -88.3 0 1 358.70 532.77
  L 363.73 531.25
  Q 364.11 531.14 364.30 530.79
  C 368.05 524.21 368.10 518.39 377.71 518.60
  Q 384.39 518.75 390.75 516.53
  Q 392.69 515.85 396.13 517.62
  A 0.79 0.78 35.9 0 0 397.04 517.48
  C 399.02 515.57 400.28 513.78 403.10 513.10
  C 405.91 512.42 408.45 511.49 411.36 511.49
  Q 421.79 511.50 432.22 511.50
  Q 432.70 511.50 433.09 511.78
  C 437.60 514.96 439.06 510.37 442.43 508.99
  C 445.55 507.72 447.15 506.52 449.73 505.25
  Q 450.17 505.03 450.43 504.60
  C 451.05 503.54 451.48 502.63 451.39 501.32
  Q 451.05 496.59 452.40 492.03
  A 0.65 0.65 0.0 0 0 451.97 491.22
  Z
  M 616.84 533.17
  Q 618.34 532.13 620.22 532.54
  A 1.33 1.33 0.0 0 0 621.57 530.44
  L 620.62 529.18
  Q 620.30 528.75 620.32 528.22
  L 620.56 522.93
  Q 620.58 522.45 620.20 522.15
  Q 616.75 519.36 618.94 516.27
  C 621.13 513.19 625.27 514.37 626.47 510.54
  A 1.11 1.09 -4.5 0 1 627.06 509.86
  C 632.45 507.30 638.47 504.84 642.89 509.49
  Q 643.48 510.11 643.87 509.35
  L 644.52 508.06
  Q 644.77 507.58 644.37 507.22
  Q 637.77 501.12 633.57 493.15
  A 1.13 1.11 -51.1 0 1 633.49 492.31
  L 637.31 479.66
  Q 637.47 479.13 638.02 479.11
  L 642.89 478.95
  A 1.21 1.21 0.0 0 0 644.03 477.46
  C 642.80 472.18 648.24 468.69 652.01 465.62
  C 654.11 463.91 654.70 461.74 655.91 459.45
  A 0.98 0.98 0.0 0 0 655.64 458.20
  Q 652.81 456.07 649.83 454.07
  C 644.65 450.60 637.48 449.08 631.50 447.35
  A 1.30 1.26 -52.0 0 0 630.47 447.49
  L 627.04 449.58
  Q 626.46 449.94 625.79 449.80
  Q 619.12 448.38 617.25 442.31
  Q 616.45 439.74 615.50 438.52
  C 613.66 436.16 608.17 429.99 604.99 430.22
  C 598.22 430.70 590.29 426.22 583.78 423.17
  C 579.68 421.25 577.26 417.45 574.94 413.78
  A 1.12 1.12 0.0 0 0 573.99 413.25
  L 568.31 413.25
  Q 567.80 413.25 567.39 413.57
  L 562.73 417.24
  A 0.80 0.80 0.0 0 1 561.96 417.37
  L 551.53 413.70
  Q 549.29 412.91 550.01 410.65
  Q 550.57 408.89 551.20 405.99
  C 552.81 398.58 536.64 401.92 533.72 403.75
  Q 527.46 407.66 521.25 411.66
  C 518.80 413.23 515.73 413.62 513.22 415.81
  C 510.87 417.87 509.30 418.68 506.46 418.76
  A 1.78 1.78 0.0 0 0 504.86 419.86
  Q 502.57 425.47 496.46 424.43
  A 1.47 1.46 -55.3 0 0 495.50 424.61
  C 490.14 427.75 490.33 423.13 490.22 419.63
  A 1.49 1.48 -5.0 0 0 488.52 418.21
  Q 485.97 418.57 483.72 417.52
  Q 483.19 417.27 482.95 416.74
  Q 481.81 414.27 479.24 413.42
  Q 478.50 413.17 478.50 413.95
  L 478.50 418.30
  A 2.21 2.21 0.0 0 1 476.11 420.50
  Q 472.38 420.19 469.27 422.34
  A 1.51 1.51 0.0 0 0 469.12 424.71
  Q 472.25 427.50 468.89 430.42
  A 0.92 0.92 0.0 0 0 468.64 431.43
  L 470.32 435.98
  Q 470.50 436.46 470.50 436.98
  L 470.50 443.03
  A 1.23 1.22 68.1 0 1 470.13 443.91
  Q 468.79 445.22 467.04 445.35
  C 456.81 446.13 456.39 452.75 453.87 460.58
  Q 453.71 461.08 454.08 461.45
  C 457.54 464.95 464.17 474.82 457.83 478.84
  Q 453.87 481.34 450.77 485.53
  A 0.67 0.67 0.0 0 0 450.97 486.51
  L 455.63 489.21
  Q 456.03 489.44 456.13 489.90
  Q 456.81 493.29 454.91 496.08
  A 1.14 1.09 59.6 0 0 454.73 496.84
  C 455.17 500.42 456.65 505.06 452.73 507.25
  Q 445.80 511.13 439.34 515.73
  C 436.25 517.93 433.26 516.10 430.38 515.00
  C 426.77 513.62 421.50 514.23 417.63 514.25
  C 410.15 514.30 404.49 515.95 398.74 520.23
  C 396.53 521.87 394.54 522.23 392.95 519.73
  A 0.70 0.70 0.0 0 0 392.08 519.47
  C 385.78 522.26 380.58 520.52 374.32 522.29
  Q 373.11 522.63 372.67 523.42
  Q 369.75 528.62 366.94 533.72
  A 2.18 2.16 -73.9 0 1 364.93 534.84
  C 361.39 534.66 358.34 540.58 355.77 542.95
  Q 355.40 543.29 355.32 543.79
  Q 354.98 546.17 353.18 551.45
  Q 352.50 553.48 354.31 555.00
  Q 354.69 555.32 355.15 555.17
  Q 359.82 553.73 365.83 550.85
  C 367.44 550.08 368.85 550.48 370.44 551.51
  C 373.64 553.59 376.96 552.76 379.99 553.37
  Q 388.92 555.19 397.80 556.45
  A 2.14 2.11 -5.2 0 1 399.50 557.85
  L 401.72 564.18
  A 0.71 0.69 -9.5 0 0 402.40 564.65
  L 407.05 564.55
  A 0.67 0.66 17.9 0 0 407.55 564.30
  C 410.03 561.03 424.13 560.66 427.20 560.43
  Q 430.16 560.20 435.75 559.27
  Q 441.52 558.30 447.52 558.88
  Q 448.02 558.93 448.29 559.35
  Q 450.24 562.40 452.74 564.98
  C 455.62 567.94 454.16 570.11 453.80 573.53
  A 0.75 0.74 15.9 0 0 454.23 574.29
  Q 456.35 575.27 457.07 577.45
  A 1.54 1.53 47.8 0 1 457.02 578.51
  L 454.66 583.95
  Q 454.44 584.45 454.54 584.98
  Q 455.77 591.58 459.28 597.31
  Q 459.58 597.79 460.13 597.68
  Q 467.96 596.06 472.40 602.58
  A 2.59 2.58 41.1 0 1 472.58 605.18
  C 471.31 607.72 469.64 609.60 469.46 612.61
  Q 469.05 619.53 467.28 626.35
  A 0.93 0.91 -62.9 0 0 467.57 627.29
  L 471.69 630.81
  Q 472.13 631.17 472.37 631.69
  Q 474.25 635.58 474.77 639.87
  Q 474.82 640.29 475.20 640.50
  C 479.24 642.74 482.80 641.41 486.80 640.69
  Q 487.36 640.58 487.42 640.02
  C 487.74 637.01 487.55 633.85 491.74 634.25
  Q 499.52 634.99 507.27 631.68
  C 512.47 629.46 517.27 628.61 522.38 626.86
  C 526.55 625.44 530.68 625.90 534.65 623.86
  Q 537.40 622.44 540.31 621.43
  C 544.88 619.85 550.56 620.47 555.50 620.59
  A 1.66 1.63 -24.8 0 1 556.43 620.92
  L 559.28 623.03
  A 0.87 0.87 0.0 0 0 560.30 623.05
  Q 568.42 617.47 577.97 615.20
  A 0.72 0.72 0.0 0 0 578.53 614.43
  C 578.14 610.25 578.98 608.68 581.43 604.90
  Q 583.85 601.17 585.54 595.56
  Q 586.72 591.64 591.40 590.20
  A 1.49 1.47 -79.7 0 0 592.11 589.70
  C 595.19 585.67 596.09 579.15 596.33 574.90
  Q 596.36 574.35 596.80 574.04
  Q 600.66 571.27 605.40 571.63
  Q 605.87 571.66 606.23 571.35
  Q 612.14 566.34 613.88 558.64
  Q 614.00 558.11 614.38 557.74
  C 618.75 553.47 623.21 550.05 621.30 543.10
  C 620.51 540.19 617.78 538.48 616.25 535.72
  A 1.95 1.94 58.2 0 1 616.84 533.17
  Z"
/>
<path fill="#ffffff" d="
  M 616.84 533.17
  A 1.95 1.94 58.2 0 0 616.25 535.72
  C 617.78 538.48 620.51 540.19 621.30 543.10
  C 623.21 550.05 618.75 553.47 614.38 557.74
  Q 614.00 558.11 613.88 558.64
  Q 612.14 566.34 606.23 571.35
  Q 605.87 571.66 605.40 571.63
  Q 600.66 571.27 596.80 574.04
  Q 596.36 574.35 596.33 574.90
  C 596.09 579.15 595.19 585.67 592.11 589.70
  A 1.49 1.47 -79.7 0 1 591.40 590.20
  Q 586.72 591.64 585.54 595.56
  Q 583.85 601.17 581.43 604.90
  C 578.98 608.68 578.14 610.25 578.53 614.43
  A 0.72 0.72 0.0 0 1 577.97 615.20
  Q 568.42 617.47 560.30 623.05
  A 0.87 0.87 0.0 0 1 559.28 623.03
  L 556.43 620.92
  A 1.66 1.63 -24.8 0 0 555.50 620.59
  C 550.56 620.47 544.88 619.85 540.31 621.43
  Q 537.40 622.44 534.65 623.86
  C 530.68 625.90 526.55 625.44 522.38 626.86
  C 517.27 628.61 512.47 629.46 507.27 631.68
  Q 499.52 634.99 491.74 634.25
  C 487.55 633.85 487.74 637.01 487.42 640.02
  Q 487.36 640.58 486.80 640.69
  C 482.80 641.41 479.24 642.74 475.20 640.50
  Q 474.82 640.29 474.77 639.87
  Q 474.25 635.58 472.37 631.69
  Q 472.13 631.17 471.69 630.81
  L 467.57 627.29
  A 0.93 0.91 -62.9 0 1 467.28 626.35
  Q 469.05 619.53 469.46 612.61
  C 469.64 609.60 471.31 607.72 472.58 605.18
  A 2.59 2.58 41.1 0 0 472.40 602.58
  Q 467.96 596.06 460.13 597.68
  Q 459.58 597.79 459.28 597.31
  Q 455.77 591.58 454.54 584.98
  Q 454.44 584.45 454.66 583.95
  L 457.02 578.51
  A 1.54 1.53 47.8 0 0 457.07 577.45
  Q 456.35 575.27 454.23 574.29
  A 0.75 0.74 15.9 0 1 453.80 573.53
  C 454.16 570.11 455.62 567.94 452.74 564.98
  Q 450.24 562.40 448.29 559.35
  Q 448.02 558.93 447.52 558.88
  Q 441.52 558.30 435.75 559.27
  Q 430.16 560.20 427.20 560.43
  C 424.13 560.66 410.03 561.03 407.55 564.30
  A 0.67 0.66 17.9 0 1 407.05 564.55
  L 402.40 564.65
  A 0.71 0.69 -9.5 0 1 401.72 564.18
  L 399.50 557.85
  A 2.14 2.11 -5.2 0 0 397.80 556.45
  Q 388.92 555.19 379.99 553.37
  C 376.96 552.76 373.64 553.59 370.44 551.51
  C 368.85 550.48 367.44 550.08 365.83 550.85
  Q 359.82 553.73 355.15 555.17
  Q 354.69 555.32 354.31 555.00
  Q 352.50 553.48 353.18 551.45
  Q 354.98 546.17 355.32 543.79
  Q 355.40 543.29 355.77 542.95
  C 358.34 540.58 361.39 534.66 364.93 534.84
  A 2.18 2.16 -73.9 0 0 366.94 533.72
  Q 369.75 528.62 372.67 523.42
  Q 373.11 522.63 374.32 522.29
  C 380.58 520.52 385.78 522.26 392.08 519.47
  A 0.70 0.70 0.0 0 1 392.95 519.73
  C 394.54 522.23 396.53 521.87 398.74 520.23
  C 404.49 515.95 410.15 514.30 417.63 514.25
  C 421.50 514.23 426.77 513.62 430.38 515.00
  C 433.26 516.10 436.25 517.93 439.34 515.73
  Q 445.80 511.13 452.73 507.25
  C 456.65 505.06 455.17 500.42 454.73 496.84
  A 1.14 1.09 59.6 0 1 454.91 496.08
  Q 456.81 493.29 456.13 489.90
  Q 456.03 489.44 455.63 489.21
  L 450.97 486.51
  A 0.67 0.67 0.0 0 1 450.77 485.53
  Q 453.87 481.34 457.83 478.84
  C 464.17 474.82 457.54 464.95 454.08 461.45
  Q 453.71 461.08 453.87 460.58
  C 456.39 452.75 456.81 446.13 467.04 445.35
  Q 468.79 445.22 470.13 443.91
  A 1.23 1.22 68.1 0 0 470.50 443.03
  L 470.50 436.98
  Q 470.50 436.46 470.32 435.98
  L 468.64 431.43
  A 0.92 0.92 0.0 0 1 468.89 430.42
  Q 472.25 427.50 469.12 424.71
  A 1.51 1.51 0.0 0 1 469.27 422.34
  Q 472.38 420.19 476.11 420.50
  A 2.21 2.21 0.0 0 0 478.50 418.30
  L 478.50 413.95
  Q 478.50 413.17 479.24 413.42
  Q 481.81 414.27 482.95 416.74
  Q 483.19 417.27 483.72 417.52
  Q 485.97 418.57 488.52 418.21
  A 1.49 1.48 -5.0 0 1 490.22 419.63
  C 490.33 423.13 490.14 427.75 495.50 424.61
  A 1.47 1.46 -55.3 0 1 496.46 424.43
  Q 502.57 425.47 504.86 419.86
  A 1.78 1.78 0.0 0 1 506.46 418.76
  C 509.30 418.68 510.87 417.87 513.22 415.81
  C 515.73 413.62 518.80 413.23 521.25 411.66
  Q 527.46 407.66 533.72 403.75
  C 536.64 401.92 552.81 398.58 551.20 405.99
  Q 550.57 408.89 550.01 410.65
  Q 549.29 412.91 551.53 413.70
  L 561.96 417.37
  A 0.80 0.80 0.0 0 0 562.73 417.24
  L 567.39 413.57
  Q 567.80 413.25 568.31 413.25
  L 573.99 413.25
  A 1.12 1.12 0.0 0 1 574.94 413.78
  C 577.26 417.45 579.68 421.25 583.78 423.17
  C 590.29 426.22 598.22 430.70 604.99 430.22
  C 608.17 429.99 613.66 436.16 615.50 438.52
  Q 616.45 439.74 617.25 442.31
  Q 619.12 448.38 625.79 449.80
  Q 626.46 449.94 627.04 449.58
  L 630.47 447.49
  A 1.30 1.26 -52.0 0 1 631.50 447.35
  C 637.48 449.08 644.65 450.60 649.83 454.07
  Q 652.81 456.07 655.64 458.20
  A 0.98 0.98 0.0 0 1 655.91 459.45
  C 654.70 461.74 654.11 463.91 652.01 465.62
  C 648.24 468.69 642.80 472.18 644.03 477.46
  A 1.21 1.21 0.0 0 1 642.89 478.95
  L 638.02 479.11
  Q 637.47 479.13 637.31 479.66
  L 633.49 492.31
  A 1.13 1.11 -51.1 0 0 633.57 493.15
  Q 637.77 501.12 644.37 507.22
  Q 644.77 507.58 644.52 508.06
  L 643.87 509.35
  Q 643.48 510.11 642.89 509.49
  C 638.47 504.84 632.45 507.30 627.06 509.86
  A 1.11 1.09 -4.5 0 0 626.47 510.54
  C 625.27 514.37 621.13 513.19 618.94 516.27
  Q 616.75 519.36 620.20 522.15
  Q 620.58 522.45 620.56 522.93
  L 620.32 528.22
  Q 620.30 528.75 620.62 529.18
  L 621.57 530.44
  A 1.33 1.33 0.0 0 1 620.22 532.54
  Q 618.34 532.13 616.84 533.17
  Z"
/>
</svg>
