<?xml version="1.0" encoding="UTF-8" standalone="no"?>
<!DOCTYPE svg PUBLIC "-//W3C//DTD SVG 1.1//EN" "http://www.w3.org/Graphics/SVG/1.1/DTD/svg11.dtd">
<svg xmlns="http://www.w3.org/2000/svg" version="1.1" viewBox="0.00 0.00 1024.00 1024.00">
<path stroke="#808080" stroke-width="2.00" fill="none" stroke-linecap="butt" vector-effect="non-scaling-stroke" d="
  M 390.94 201.92
  L 386.63 207.76
  Q 386.35 208.14 386.55 208.57
  L 387.03 209.57
  Q 387.31 210.15 386.71 210.36
  L 382.86 211.70
  Q 382.31 211.89 381.79 211.62
  Q 379.75 210.57 377.60 211.78
  Q 377.19 212.01 377.23 212.49
  L 377.63 216.97
  A 0.77 0.77 0.0 0 1 377.18 217.73
  Q 375.89 218.31 375.54 219.65
  A 0.64 0.63 -71.7 0 0 375.91 220.39
  L 376.94 220.84
  A 0.62 0.62 0.0 0 1 377.06 221.91
  L 374.65 223.62
  A 0.66 0.65 45.9 0 0 374.64 224.67
  L 375.79 225.53
  A 0.29 0.29 0.0 0 1 375.71 226.04
  L 374.21 226.51
  A 0.63 0.63 0.0 0 0 374.28 227.73
  L 376.34 228.12
  A 0.50 0.50 0.0 0 1 376.63 228.93
  C 373.62 232.59 370.37 235.71 369.50 240.51
  C 368.84 244.13 366.98 245.07 369.30 249.20
  C 371.76 253.56 369.85 259.66 374.96 262.50
  Q 375.34 262.71 375.75 262.58
  Q 376.90 262.21 377.52 263.15
  Q 377.74 263.48 378.12 263.38
  Q 378.34 263.33 378.56 263.30
  Q 378.93 263.25 379.31 263.42
  C 386.67 266.81 390.38 272.10 399.08 266.35
  Q 404.49 262.77 409.98 259.24
  A 0.99 0.98 -15.9 0 0 410.42 258.46
  Q 410.57 254.57 412.74 251.53
  C 415.80 247.21 414.68 240.52 420.97 239.56
  A 1.31 1.28 17.1 0 0 421.67 239.20
  L 422.29 238.58
  A 0.55 0.54 -65.0 0 1 422.69 238.43
  L 428.47 238.70
  A 0.74 0.73 24.5 0 0 428.99 238.51
  C 433.35 234.40 437.69 234.13 443.27 233.31
  C 446.51 232.83 447.84 234.69 450.51 235.12
  Q 452.02 235.36 453.53 235.54
  Q 454.01 235.60 454.43 235.36
  L 466.27 228.56
  Q 466.69 228.32 466.94 228.73
  C 468.57 231.37 470.28 230.08 471.31 227.96
  Q 473.09 224.33 474.70 220.50
  A 1.09 1.09 0.0 0 1 475.47 219.86
  Q 479.55 218.98 480.00 215.01
  A 0.62 0.61 75.8 0 1 480.26 214.57
  L 483.83 212.05
  Q 484.04 211.91 484.27 212.02
  L 485.08 212.42
  Q 485.59 212.67 486.06 212.35
  Q 492.12 208.18 498.11 203.92
  C 502.82 200.57 507.55 199.64 513.06 199.25
  Q 513.56 199.22 513.86 199.61
  C 517.14 203.92 520.89 202.59 524.71 200.15
  Q 525.29 199.77 525.70 200.32
  L 526.85 201.84
  Q 527.19 202.28 527.72 202.42
  Q 530.19 203.03 532.57 201.95
  A 0.97 0.93 -48.1 0 1 533.26 201.90
  Q 536.15 202.78 536.91 200.18
  Q 537.07 199.66 537.43 199.27
  C 540.29 196.15 543.09 192.17 547.33 191.21
  A 1.67 1.67 0.0 0 0 548.42 188.78
  L 546.32 184.93
  A 0.52 0.52 0.0 0 1 546.50 184.24
  L 551.32 181.19
  Q 551.70 180.95 552.05 181.23
  C 556.46 184.77 565.19 177.96 570.28 178.00
  Q 577.68 178.06 585.01 179.28
  C 586.73 179.56 588.07 177.92 588.33 176.19
  Q 589.21 170.18 591.51 164.42
  Q 591.70 163.95 592.09 163.63
  C 597.04 159.52 594.30 154.88 591.71 150.47
  C 590.29 148.07 588.15 146.69 586.42 144.38
  Q 586.08 143.92 585.51 143.88
  L 576.42 143.21
  Q 575.97 143.18 575.77 143.58
  Q 574.97 145.17 572.98 144.28
  C 565.49 140.91 558.00 141.99 549.84 141.95
  C 546.95 141.93 544.71 143.34 542.10 144.39
  A 0.75 0.75 0.0 0 1 541.31 144.25
  L 534.14 137.66
  Q 533.69 137.25 533.09 137.32
  L 525.33 138.23
  Q 524.90 138.28 524.58 138.00
  Q 518.27 132.34 511.57 127.18
  Q 511.06 126.79 509.96 125.22
  Q 509.71 124.86 509.29 124.75
  Q 507.96 124.40 507.16 123.21
  A 0.57 0.57 0.0 0 1 507.27 122.45
  L 508.35 121.56
  Q 509.09 120.95 508.28 120.42
  L 506.81 119.47
  A 0.37 0.28 10.9 0 1 506.73 119.38
  C 505.99 117.83 504.73 115.20 502.58 117.24
  A 0.75 0.74 22.8 0 1 502.11 117.43
  L 499.16 117.54
  Q 498.60 117.56 498.17 117.92
  C 497.10 118.81 497.57 120.72 497.18 120.92
  A 0.43 0.42 68.7 0 1 496.58 120.65
  Q 495.59 116.87 491.82 117.22
  A 1.86 1.86 0.0 0 1 490.72 116.97
  Q 488.64 115.75 488.01 113.40
  A 0.80 0.78 8.7 0 0 487.64 112.91
  L 474.49 105.43
  Q 474.05 105.18 473.56 105.25
  Q 471.98 105.47 470.43 105.11
  Q 464.05 103.65 457.52 104.26
  Q 457.01 104.31 456.58 104.03
  C 449.50 99.41 445.02 97.64 436.72 101.07
  Q 436.32 101.23 435.90 101.15
  L 434.86 100.97
  Q 434.38 100.88 433.98 101.16
  Q 431.17 103.09 430.03 106.24
  Q 429.87 106.70 429.40 106.55
  C 427.42 105.92 426.11 108.61 425.44 110.28
  Q 425.25 110.74 424.83 111.01
  Q 421.56 113.08 420.01 116.47
  C 418.02 120.82 415.86 124.60 413.63 128.71
  A 1.12 1.09 53.0 0 0 413.53 129.52
  Q 414.34 132.60 413.79 135.70
  Q 413.72 136.12 413.32 136.23
  C 409.99 137.16 406.76 143.62 406.53 146.80
  Q 406.39 148.73 406.54 151.51
  Q 406.62 152.96 405.18 153.32
  Q 404.73 153.43 404.42 153.78
  C 403.12 155.27 398.95 157.74 399.57 160.43
  A 1.09 1.08 -33.6 0 1 399.39 161.31
  C 398.45 162.61 396.10 164.04 397.48 165.83
  A 0.90 0.88 -59.7 0 1 397.65 166.51
  L 396.62 173.39
  Q 396.55 173.86 396.27 174.23
  Q 394.25 176.89 396.28 179.71
  Q 396.52 180.04 396.36 180.41
  L 394.33 185.22
  Q 394.11 185.75 393.63 186.06
  Q 392.31 186.92 392.82 188.70
  A 0.92 0.91 -30.7 0 1 392.58 189.62
  L 390.38 191.73
  A 0.71 0.71 0.0 0 0 390.37 192.74
  L 391.15 193.52
  Q 391.49 193.86 391.41 194.33
  Q 390.98 197.06 390.64 199.81
  Q 390.57 200.38 390.73 200.82
  Q 390.83 201.08 390.97 201.32
  Q 391.16 201.63 390.94 201.92"
/>
<path fill="#000000" d="
  M 542.93 139.49
  L 547.19 137.89
  Q 547.75 137.68 548.34 137.71
  C 556.62 138.08 564.47 136.85 572.40 139.69
  Q 572.83 139.85 573.27 139.69
  Q 577.67 138.09 582.04 139.80
  A 1.84 1.80 -39.6 0 0 583.03 139.88
  C 587.58 138.92 589.04 141.30 592.54 144.77
  C 597.90 150.08 600.33 157.60 597.31 164.64
  A 1.49 1.47 -3.2 0 1 596.65 165.37
  Q 594.08 166.83 594.09 169.76
  A 2.07 2.04 -31.1 0 1 593.84 170.74
  C 592.81 172.60 592.98 174.76 592.48 176.39
  C 589.91 184.85 586.03 183.04 578.96 182.55
  C 573.80 182.18 569.81 181.34 564.84 183.55
  C 560.45 185.51 557.23 186.70 552.27 186.06
  A 0.44 0.44 0.0 0 0 551.81 186.68
  Q 553.86 191.07 550.46 194.43
  A 1.54 1.51 18.2 0 1 549.59 194.86
  Q 545.67 195.40 543.79 198.58
  C 542.81 200.25 541.73 201.02 540.58 202.37
  C 539.44 203.70 539.13 205.97 536.48 205.99
  C 532.06 206.01 529.22 207.42 525.06 205.50
  Q 524.61 205.29 524.14 205.47
  Q 517.50 207.96 511.84 203.82
  Q 511.44 203.53 510.94 203.58
  C 502.14 204.50 496.47 210.11 489.80 214.99
  C 488.30 216.09 486.51 216.18 484.75 216.53
  A 1.16 1.15 -82.8 0 0 483.92 217.18
  L 482.49 220.26
  Q 482.26 220.75 481.82 221.07
  C 480.45 222.04 478.94 222.49 477.93 223.76
  C 476.09 226.09 475.19 230.20 474.32 232.59
  A 1.29 1.28 -0.6 0 1 473.58 233.34
  Q 470.40 234.56 467.04 234.00
  Q 466.58 233.92 466.14 234.10
  C 463.87 235.02 462.14 235.43 460.00 236.94
  Q 454.59 240.77 447.89 238.82
  C 446.34 238.36 445.32 236.58 443.28 237.83
  A 1.49 1.48 -57.2 0 1 442.33 238.04
  Q 436.21 237.36 431.67 241.42
  C 431.03 241.99 429.35 242.45 428.26 242.44
  Q 424.26 242.38 420.63 244.13
  Q 420.11 244.38 419.94 244.94
  L 417.52 253.23
  A 1.23 1.22 -9.5 0 1 417.04 253.90
  C 414.75 255.48 414.47 258.35 413.75 260.87
  A 1.53 1.51 77.2 0 1 413.29 261.61
  Q 409.87 264.81 406.05 266.82
  C 402.98 268.44 400.20 271.21 397.23 272.02
  C 392.40 273.33 387.36 273.19 383.15 270.20
  C 376.10 265.21 365.57 266.73 367.05 254.61
  A 1.46 1.44 -58.1 0 0 366.84 253.67
  C 364.12 249.36 363.65 245.91 365.14 240.73
  C 365.91 238.05 366.64 231.82 369.79 231.19
  A 0.60 0.60 0.0 0 0 370.27 230.51
  Q 369.48 225.59 371.67 221.07
  Q 371.90 220.62 371.81 220.12
  Q 371.37 217.46 373.25 215.70
  Q 373.62 215.35 373.50 214.84
  C 372.16 209.17 377.10 206.34 382.10 207.22
  Q 382.59 207.31 382.82 206.86
  C 384.88 202.83 386.48 201.63 386.90 196.82
  Q 386.94 196.32 386.73 195.86
  C 384.77 191.71 387.41 190.00 388.72 187.02
  Q 390.02 184.06 391.44 181.16
  Q 391.67 180.70 391.59 180.19
  C 390.86 175.73 392.79 172.72 392.97 168.96
  Q 393.10 166.06 392.95 163.16
  A 1.07 1.02 -27.7 0 1 393.20 162.41
  Q 395.65 159.46 396.53 155.69
  A 1.30 1.27 -13.7 0 1 396.95 155.02
  L 402.09 150.91
  A 1.03 1.01 69.9 0 0 402.47 150.07
  Q 402.07 140.33 409.17 133.85
  A 1.24 1.24 0.0 0 0 409.58 133.00
  C 409.80 130.19 409.65 128.03 410.73 125.41
  C 412.92 120.09 416.80 114.49 418.64 110.67
  A 1.23 1.21 87.7 0 1 419.12 110.14
  C 421.48 108.69 422.98 106.22 424.36 104.84
  Q 427.97 101.23 431.55 97.60
  Q 431.91 97.24 432.41 97.17
  C 434.17 96.92 435.68 97.13 437.38 96.56
  C 445.01 93.99 449.61 95.61 456.56 99.08
  C 459.28 100.44 461.47 100.01 464.37 99.98
  C 466.99 99.95 469.49 100.91 472.18 101.15
  C 476.49 101.54 479.40 102.77 482.54 105.65
  Q 482.90 105.97 483.37 106.01
  Q 485.11 106.16 486.30 107.40
  Q 486.69 107.80 487.23 107.95
  Q 491.00 109.00 492.17 112.61
  Q 492.34 113.13 492.87 113.26
  Q 497.05 114.27 501.11 113.33
  C 504.66 112.50 507.27 112.21 509.10 115.42
  Q 509.35 115.85 509.78 116.13
  C 512.89 118.16 511.36 120.44 512.77 122.64
  C 513.57 123.89 515.09 124.37 516.02 125.22
  Q 520.68 129.52 525.64 133.50
  Q 526.04 133.82 526.55 133.80
  C 529.71 133.65 532.95 132.90 535.81 134.44
  Q 539.33 136.33 542.06 139.28
  Q 542.43 139.67 542.93 139.49
  Z
  M 390.94 201.92
  L 386.63 207.76
  Q 386.35 208.14 386.55 208.57
  L 387.03 209.57
  Q 387.31 210.15 386.71 210.36
  L 382.86 211.70
  Q 382.31 211.89 381.79 211.62
  Q 379.75 210.57 377.60 211.78
  Q 377.19 212.01 377.23 212.49
  L 377.63 216.97
  A 0.77 0.77 0.0 0 1 377.18 217.73
  Q 375.89 218.31 375.54 219.65
  A 0.64 0.63 -71.7 0 0 375.91 220.39
  L 376.94 220.84
  A 0.62 0.62 0.0 0 1 377.06 221.91
  L 374.65 223.62
  A 0.66 0.65 45.9 0 0 374.64 224.67
  L 375.79 225.53
  A 0.29 0.29 0.0 0 1 375.71 226.04
  L 374.21 226.51
  A 0.63 0.63 0.0 0 0 374.28 227.73
  L 376.34 228.12
  A 0.50 0.50 0.0 0 1 376.63 228.93
  C 373.62 232.59 370.37 235.71 369.50 240.51
  C 368.84 244.13 366.98 245.07 369.30 249.20
  C 371.76 253.56 369.85 259.66 374.96 262.50
  Q 375.34 262.71 375.75 262.58
  Q 376.90 262.21 377.52 263.15
  Q 377.74 263.48 378.12 263.38
  Q 378.34 263.33 378.56 263.30
  Q 378.93 263.25 379.31 263.42
  C 386.67 266.81 390.38 272.10 399.08 266.35
  Q 404.49 262.77 409.98 259.24
  A 0.99 0.98 -15.9 0 0 410.42 258.46
  Q 410.57 254.57 412.74 251.53
  C 415.80 247.21 414.68 240.52 420.97 239.56
  A 1.31 1.28 17.1 0 0 421.67 239.20
  L 422.29 238.58
  A 0.55 0.54 -65.0 0 1 422.69 238.43
  L 428.47 238.70
  A 0.74 0.73 24.5 0 0 428.99 238.51
  C 433.35 234.40 437.69 234.13 443.27 233.31
  C 446.51 232.83 447.84 234.69 450.51 235.12
  Q 452.02 235.36 453.53 235.54
  Q 454.01 235.60 454.43 235.36
  L 466.27 228.56
  Q 466.69 228.32 466.94 228.73
  C 468.57 231.37 470.28 230.08 471.31 227.96
  Q 473.09 224.33 474.70 220.50
  A 1.09 1.09 0.0 0 1 475.47 219.86
  Q 479.55 218.98 480.00 215.01
  A 0.62 0.61 75.8 0 1 480.26 214.57
  L 483.83 212.05
  Q 484.04 211.91 484.27 212.02
  L 485.08 212.42
  Q 485.59 212.67 486.06 212.35
  Q 492.12 208.18 498.11 203.92
  C 502.82 200.57 507.55 199.64 513.06 199.25
  Q 513.56 199.22 513.86 199.61
  C 517.14 203.92 520.89 202.59 524.71 200.15
  Q 525.29 199.77 525.70 200.32
  L 526.85 201.84
  Q 527.19 202.28 527.72 202.42
  Q 530.19 203.03 532.57 201.95
  A 0.97 0.93 -48.1 0 1 533.26 201.90
  Q 536.15 202.78 536.91 200.18
  Q 537.07 199.66 537.43 199.27
  C 540.29 196.15 543.09 192.17 547.33 191.21
  A 1.67 1.67 0.0 0 0 548.42 188.78
  L 546.32 184.93
  A 0.52 0.52 0.0 0 1 546.50 184.24
  L 551.32 181.19
  Q 551.70 180.95 552.05 181.23
  C 556.46 184.77 565.19 177.96 570.28 178.00
  Q 577.68 178.06 585.01 179.28
  C 586.73 179.56 588.07 177.92 588.33 176.19
  Q 589.21 170.18 591.51 164.42
  Q 591.70 163.95 592.09 163.63
  C 597.04 159.52 594.30 154.88 591.71 150.47
  C 590.29 148.07 588.15 146.69 586.42 144.38
  Q 586.08 143.92 585.51 143.88
  L 576.42 143.21
  Q 575.97 143.18 575.77 143.58
  Q 574.97 145.17 572.98 144.28
  C 565.49 140.91 558.00 141.99 549.84 141.95
  C 546.95 141.93 544.71 143.34 542.10 144.39
  A 0.75 0.75 0.0 0 1 541.31 144.25
  L 534.14 137.66
  Q 533.69 137.25 533.09 137.32
  L 525.33 138.23
  Q 524.90 138.28 524.58 138.00
  Q 518.27 132.34 511.57 127.18
  Q 511.06 126.79 509.96 125.22
  Q 509.71 124.86 509.29 124.75
  Q 507.96 124.40 507.16 123.21
  A 0.57 0.57 0.0 0 1 507.27 122.45
  L 508.35 121.56
  Q 509.09 120.95 508.28 120.42
  L 506.81 119.47
  A 0.37 0.28 10.9 0 1 506.73 119.38
  C 505.99 117.83 504.73 115.20 502.58 117.24
  A 0.75 0.74 22.8 0 1 502.11 117.43
  L 499.16 117.54
  Q 498.60 117.56 498.17 117.92
  C 497.10 118.81 497.57 120.72 497.18 120.92
  A 0.43 0.42 68.7 0 1 496.58 120.65
  Q 495.59 116.87 491.82 117.22
  A 1.86 1.86 0.0 0 1 490.72 116.97
  Q 488.64 115.75 488.01 113.40
  A 0.80 0.78 8.7 0 0 487.64 112.91
  L 474.49 105.43
  Q 474.05 105.18 473.56 105.25
  Q 471.98 105.47 470.43 105.11
  Q 464.05 103.65 457.52 104.26
  Q 457.01 104.31 456.58 104.03
  C 449.50 99.41 445.02 97.64 436.72 101.07
  Q 436.32 101.23 435.90 101.15
  L 434.86 100.97
  Q 434.38 100.88 433.98 101.16
  Q 431.17 103.09 430.03 106.24
  Q 429.87 106.70 429.40 106.55
  C 427.42 105.92 426.11 108.61 425.44 110.28
  Q 425.25 110.74 424.83 111.01
  Q 421.56 113.08 420.01 116.47
  C 418.02 120.82 415.86 124.60 413.63 128.71
  A 1.12 1.09 53.0 0 0 413.53 129.52
  Q 414.34 132.60 413.79 135.70
  Q 413.72 136.12 413.32 136.23
  C 409.99 137.16 406.76 143.62 406.53 146.80
  Q 406.39 148.73 406.54 151.51
  Q 406.62 152.96 405.18 153.32
  Q 404.73 153.43 404.42 153.78
  C 403.12 155.27 398.95 157.74 399.57 160.43
  A 1.09 1.08 -33.6 0 1 399.39 161.31
  C 398.45 162.61 396.10 164.04 397.48 165.83
  A 0.90 0.88 -59.7 0 1 397.65 166.51
  L 396.62 173.39
  Q 396.55 173.86 396.27 174.23
  Q 394.25 176.89 396.28 179.71
  Q 396.52 180.04 396.36 180.41
  L 394.33 185.22
  Q 394.11 185.75 393.63 186.06
  Q 392.31 186.92 392.82 188.70
  A 0.92 0.91 -30.7 0 1 392.58 189.62
  L 390.38 191.73
  A 0.71 0.71 0.0 0 0 390.37 192.74
  L 391.15 193.52
  Q 391.49 193.86 391.41 194.33
  Q 390.98 197.06 390.64 199.81
  Q 390.57 200.38 390.73 200.82
  Q 390.83 201.08 390.97 201.32
  Q 391.16 201.63 390.94 201.92
  Z"
/>
<path fill="#ffffff" d="
  M 390.97 201.32
  Q 390.83 201.08 390.73 200.82
  Q 390.57 200.38 390.64 199.81
  Q 390.98 197.06 391.41 194.33
  Q 391.49 193.86 391.15 193.52
  L 390.37 192.74
  A 0.71 0.71 0.0 0 1 390.38 191.73
  L 392.58 189.62
  A 0.92 0.91 -30.7 0 0 392.82 188.70
  Q 392.31 186.92 393.63 186.06
  Q 394.11 185.75 394.33 185.22
  L 396.36 180.41
  Q 396.52 180.04 396.28 179.71
  Q 394.25 176.89 396.27 174.23
  Q 396.55 173.86 396.62 173.39
  L 397.65 166.51
  A 0.90 0.88 -59.7 0 0 397.48 165.83
  C 396.10 164.04 398.45 162.61 399.39 161.31
  A 1.09 1.08 -33.6 0 0 399.57 160.43
  C 398.95 157.74 403.12 155.27 404.42 153.78
  Q 404.73 153.43 405.18 153.32
  Q 406.62 152.96 406.54 151.51
  Q 406.39 148.73 406.53 146.80
  C 406.76 143.62 409.99 137.16 413.32 136.23
  Q 413.72 136.12 413.79 135.70
  Q 414.34 132.60 413.53 129.52
  A 1.12 1.09 53.0 0 1 413.63 128.71
  C 415.86 124.60 418.02 120.82 420.01 116.47
  Q 421.56 113.08 424.83 111.01
  Q 425.25 110.74 425.44 110.28
  C 426.11 108.61 427.42 105.92 429.40 106.55
  Q 429.87 106.70 430.03 106.24
  Q 431.17 103.09 433.98 101.16
  Q 434.38 100.88 434.86 100.97
  L 435.90 101.15
  Q 436.32 101.23 436.72 101.07
  C 445.02 97.64 449.50 99.41 456.58 104.03
  Q 457.01 104.31 457.52 104.26
  Q 464.05 103.65 470.43 105.11
  Q 471.98 105.47 473.56 105.25
  Q 474.05 105.18 474.49 105.43
  L 487.64 112.91
  A 0.80 0.78 8.7 0 1 488.01 113.40
  Q 488.64 115.75 490.72 116.97
  A 1.86 1.86 0.0 0 0 491.82 117.22
  Q 495.59 116.87 496.58 120.65
  A 0.43 0.42 68.7 0 0 497.18 120.92
  C 497.57 120.72 497.10 118.81 498.17 117.92
  Q 498.60 117.56 499.16 117.54
  L 502.11 117.43
  A 0.75 0.74 22.8 0 0 502.58 117.24
  C 504.73 115.20 505.99 117.83 506.73 119.38
  A 0.37 0.28 10.9 0 0 506.81 119.47
  L 508.28 120.42
  Q 509.09 120.95 508.35 121.56
  L 507.27 122.45
  A 0.57 0.57 0.0 0 0 507.16 123.21
  Q 507.96 124.40 509.29 124.75
  Q 509.71 124.86 509.96 125.22
  Q 511.06 126.79 511.57 127.18
  Q 518.27 132.34 524.58 138.00
  Q 524.90 138.28 525.33 138.23
  L 533.09 137.32
  Q 533.69 137.25 534.14 137.66
  L 541.31 144.25
  A 0.75 0.75 0.0 0 0 542.10 144.39
  C 544.71 143.34 546.95 141.93 549.84 141.95
  C 558.00 141.99 565.49 140.91 572.98 144.28
  Q 574.97 145.17 575.77 143.58
  Q 575.97 143.18 576.42 143.21
  L 585.51 143.88
  Q 586.08 143.92 586.42 144.38
  C 588.15 146.69 590.29 148.07 591.71 150.47
  C 594.30 154.88 597.04 159.52 592.09 163.63
  Q 591.70 163.95 591.51 164.42
  Q 589.21 170.18 588.33 176.19
  C 588.07 177.92 586.73 179.56 585.01 179.28
  Q 577.68 178.06 570.28 178.00
  C 565.19 177.96 556.46 184.77 552.05 181.23
  Q 551.70 180.95 551.32 181.19
  L 546.50 184.24
  A 0.52 0.52 0.0 0 0 546.32 184.93
  L 548.42 188.78
  A 1.67 1.67 0.0 0 1 547.33 191.21
  C 543.09 192.17 540.29 196.15 537.43 199.27
  Q 537.07 199.66 536.91 200.18
  Q 536.15 202.78 533.26 201.90
  A 0.97 0.93 -48.1 0 0 532.57 201.95
  Q 530.19 203.03 527.72 202.42
  Q 527.19 202.28 526.85 201.84
  L 525.70 200.32
  Q 525.29 199.77 524.71 200.15
  C 520.89 202.59 517.14 203.92 513.86 199.61
  Q 513.56 199.22 513.06 199.25
  C 507.55 199.64 502.82 200.57 498.11 203.92
  Q 492.12 208.18 486.06 212.35
  Q 485.59 212.67 485.08 212.42
  L 484.27 212.02
  Q 484.04 211.91 483.83 212.05
  L 480.26 214.57
  A 0.62 0.61 75.8 0 0 480.00 215.01
  Q 479.55 218.98 475.47 219.86
  A 1.09 1.09 0.0 0 0 474.70 220.50
  Q 473.09 224.33 471.31 227.96
  C 470.28 230.08 468.57 231.37 466.94 228.73
  Q 466.69 228.32 466.27 228.56
  L 454.43 235.36
  Q 454.01 235.60 453.53 235.54
  Q 452.02 235.36 450.51 235.12
  C 447.84 234.69 446.51 232.83 443.27 233.31
  C 437.69 234.13 433.35 234.40 428.99 238.51
  A 0.74 0.73 24.5 0 1 428.47 238.70
  L 422.69 238.43
  A 0.55 0.54 -65.0 0 0 422.29 238.58
  L 421.67 239.20
  A 1.31 1.28 17.1 0 1 420.97 239.56
  C 414.68 240.52 415.80 247.21 412.74 251.53
  Q 410.57 254.57 410.42 258.46
  A 0.99 0.98 -15.9 0 1 409.98 259.24
  Q 404.49 262.77 399.08 266.35
  C 390.38 272.10 386.67 266.81 379.31 263.42
  Q 378.93 263.25 378.56 263.30
  Q 378.34 263.33 378.12 263.38
  Q 377.74 263.48 377.52 263.15
  Q 376.90 262.21 375.75 262.58
  Q 375.34 262.71 374.96 262.50
  C 369.85 259.66 371.76 253.56 369.30 249.20
  C 366.98 245.07 368.84 244.13 369.50 240.51
  C 370.37 235.71 373.62 232.59 376.63 228.93
  A 0.50 0.50 0.0 0 0 376.34 228.12
  L 374.28 227.73
  A 0.63 0.63 0.0 0 1 374.21 226.51
  L 375.71 226.04
  A 0.29 0.29 0.0 0 0 375.79 225.53
  L 374.64 224.67
  A 0.66 0.65 45.9 0 1 374.65 223.62
  L 377.06 221.91
  A 0.62 0.62 0.0 0 0 376.94 220.84
  L 375.91 220.39
  A 0.64 0.63 -71.7 0 1 375.54 219.65
  Q 375.89 218.31 377.18 217.73
  A 0.77 0.77 0.0 0 0 377.63 216.97
  L 377.23 212.49
  Q 377.19 212.01 377.60 211.78
  Q 379.75 210.57 381.79 211.62
  Q 382.31 211.89 382.86 211.70
  L 386.71 210.36
  Q 387.31 210.15 387.03 209.57
  L 386.55 208.57
  Q 386.35 208.14 386.63 207.76
  L 390.94 201.92
  Q 391.16 201.63 390.97 201.32
  Z"
/>
</svg>
