<?xml version="1.0" encoding="UTF-8" standalone="no"?>
<!DOCTYPE svg PUBLIC "-//W3C//DTD SVG 1.1//EN" "http://www.w3.org/Graphics/SVG/1.1/DTD/svg11.dtd">
<svg xmlns="http://www.w3.org/2000/svg" version="1.1" viewBox="0.00 0.00 1024.00 1024.00">
<path stroke="#808080" stroke-width="2.00" fill="none" stroke-linecap="butt" vector-effect="non-scaling-stroke" d="
  M 608.94 322.54
  C 611.85 320.36 613.14 318.36 613.74 314.51
  C 614.56 309.31 618.15 308.37 622.44 306.58
  A 1.01 1.01 0.0 0 0 623.02 305.92
  L 624.43 300.74
  A 2.41 2.41 0.0 0 0 621.54 297.76
  L 611.43 300.21
  A 1.59 1.58 64.4 0 1 609.80 299.63
  L 598.56 284.94
  Q 598.25 284.54 598.25 284.04
  L 598.25 281.49
  Q 598.25 280.89 597.67 280.74
  C 589.58 278.65 593.17 274.80 597.79 272.05
  A 0.97 0.95 -14.9 0 0 598.25 271.27
  Q 598.47 265.03 600.59 259.18
  C 601.31 257.17 601.08 255.43 601.71 253.41
  Q 601.85 252.96 601.72 252.51
  Q 600.55 248.26 601.21 242.49
  C 602.19 234.05 592.63 234.41 589.40 228.58
  Q 589.16 228.15 588.66 228.19
  C 583.76 228.55 581.92 227.48 577.82 225.20
  Q 577.38 224.96 576.99 225.27
  L 572.66 228.67
  A 0.27 0.27 0.0 0 0 572.82 229.15
  Q 580.02 229.17 584.12 234.71
  C 585.71 236.86 585.07 238.92 583.15 240.47
  A 0.72 0.71 60.1 0 0 582.93 241.30
  Q 584.12 244.20 582.00 246.56
  Q 581.62 246.97 581.76 247.51
  Q 582.12 248.90 581.28 250.12
  A 0.41 0.41 0.0 0 1 581.15 250.25
  L 579.36 251.46
  A 0.75 0.75 0.0 0 0 579.06 252.30
  C 580.36 256.63 573.10 257.13 571.97 261.83
  A 1.65 1.62 76.3 0 1 571.49 262.64
  C 567.15 266.70 560.66 266.44 557.90 271.60
  Q 557.68 272.00 557.73 272.45
  Q 558.31 278.91 554.39 284.01
  A 2.66 2.65 41.3 0 0 554.62 287.50
  L 557.80 290.67
  A 1.27 1.25 21.6 0 1 558.17 291.51
  Q 558.49 297.78 557.42 299.92
  C 554.14 306.51 550.81 315.11 546.34 320.82
  A 1.08 1.08 0.0 0 1 545.55 321.24
  C 542.13 321.45 534.26 331.08 534.53 334.45
  A 1.85 1.78 -36.5 0 1 534.38 335.34
  Q 528.67 348.31 523.33 361.44
  C 522.67 363.05 521.32 363.64 521.08 365.50
  Q 520.57 369.58 520.21 373.67
  C 519.79 378.43 518.14 382.75 517.13 387.47
  Q 517.03 387.93 517.47 388.10
  Q 518.67 388.55 518.56 390.00
  C 518.37 392.50 517.87 393.92 518.34 396.64
  C 518.98 400.28 517.31 402.27 519.10 406.89
  Q 519.22 407.21 519.52 407.04
  L 533.93 398.84
  A 1.27 1.27 0.0 0 1 534.70 398.69
  Q 537.29 398.99 539.74 398.26
  Q 547.28 396.02 553.66 400.34
  C 555.73 401.74 555.09 406.76 554.88 410.17
  Q 554.86 410.56 555.23 410.67
  L 561.71 412.55
  A 0.76 0.73 -54.0 0 0 562.33 412.44
  L 565.43 410.23
  Q 565.86 409.92 566.38 409.84
  C 568.96 409.46 578.72 408.35 579.21 412.60
  Q 579.27 413.14 579.74 413.40
  Q 581.61 414.41 582.22 416.41
  Q 582.37 416.92 582.81 417.23
  C 589.23 421.82 595.03 422.84 600.70 425.83
  Q 601.19 426.09 601.75 426.04
  Q 607.17 425.49 612.04 427.92
  A 0.62 0.61 -52.9 0 0 612.72 427.82
  L 617.67 423.19
  A 1.08 1.08 0.0 0 1 618.28 422.91
  L 625.97 422.13
  A 2.65 2.65 0.0 0 0 627.66 417.71
  L 624.76 414.53
  A 0.97 0.97 0.0 0 1 624.50 413.87
  C 624.50 409.21 623.22 404.06 628.23 401.45
  A 0.71 0.70 -50.5 0 0 628.11 400.15
  Q 626.27 399.61 626.54 397.84
  C 626.78 396.23 628.59 394.75 629.69 393.47
  A 0.81 0.81 0.0 0 0 629.17 392.13
  C 616.02 390.56 618.70 382.89 625.09 375.39
  A 1.58 1.58 0.0 0 0 625.47 374.51
  C 626.30 367.24 633.21 364.66 638.89 361.39
  A 0.37 0.37 0.0 0 0 638.77 360.70
  Q 634.97 360.04 632.19 357.37
  A 1.35 1.32 64.9 0 0 631.20 357.00
  Q 628.58 357.16 626.18 356.06
  A 0.99 0.97 -89.5 0 1 625.66 355.52
  Q 622.89 348.58 617.76 343.21
  A 0.73 0.73 0.0 0 1 617.77 342.20
  L 620.61 339.22
  A 0.70 0.70 0.0 0 0 620.49 338.15
  L 614.65 334.34
  A 0.88 0.86 17.2 0 1 614.26 333.62
  L 614.24 328.65
  A 0.65 0.65 0.0 0 0 613.59 328.00
  L 610.02 328.00
  Q 609.51 328.00 609.27 327.55
  Q 608.12 325.47 608.58 323.10
  A 0.91 0.91 0.0 0 1 608.94 322.54"
/>
<path fill="#000000" d="
  M 513.95 389.80
  L 513.43 389.55
  A 0.48 0.47 18.5 0 1 513.16 389.02
  C 514.55 382.40 516.99 376.18 516.43 369.06
  Q 516.38 368.50 516.66 368.01
  Q 517.76 366.04 517.45 363.71
  Q 517.38 363.19 517.75 362.81
  C 521.05 359.49 522.29 354.34 524.11 350.11
  Q 524.31 349.65 524.23 349.15
  Q 524.10 348.30 525.03 348.24
  A 0.56 0.56 0.0 0 0 525.51 347.47
  Q 524.10 343.99 527.06 341.86
  Q 527.48 341.55 527.71 341.09
  Q 528.80 338.90 529.84 336.73
  C 531.03 334.25 531.24 331.31 532.39 328.62
  A 1.49 1.49 0.0 0 1 533.00 327.92
  C 534.68 326.89 534.83 325.33 536.00 324.14
  C 537.69 322.43 541.54 317.66 543.91 317.75
  Q 544.41 317.77 544.63 317.32
  C 547.46 311.56 555.40 298.97 554.66 292.95
  Q 554.60 292.47 554.23 292.16
  Q 547.60 286.55 552.68 279.56
  C 555.61 275.54 552.86 271.49 556.49 267.57
  C 560.16 263.59 564.13 263.82 568.09 261.11
  Q 568.52 260.82 568.69 260.32
  C 570.33 255.42 572.65 256.00 575.46 252.66
  Q 575.71 252.36 575.71 251.97
  Q 575.75 249.54 577.89 248.30
  A 1.00 0.98 78.5 0 0 578.39 247.53
  Q 578.57 245.36 579.52 243.40
  Q 579.75 242.93 579.66 242.42
  Q 579.19 239.62 580.67 237.20
  A 0.65 0.64 -49.9 0 0 580.61 236.45
  C 577.88 233.28 574.86 232.73 571.23 232.12
  A 1.18 1.18 0.0 0 1 570.41 231.56
  C 567.51 226.64 571.25 225.23 574.39 222.78
  C 577.37 220.47 580.25 222.28 583.44 223.95
  C 585.72 225.13 587.63 224.74 590.07 224.75
  A 1.32 1.32 0.0 0 1 590.95 225.11
  L 595.35 229.45
  A 1.20 1.12 -10.1 0 0 595.75 229.71
  C 602.54 232.26 605.01 237.26 604.42 244.21
  C 604.14 247.56 605.36 251.05 605.21 253.92
  C 604.94 259.14 602.58 263.16 602.21 268.14
  C 601.99 270.97 601.23 275.49 597.78 275.95
  A 0.43 0.42 -40.3 0 0 597.71 276.78
  Q 602.25 278.14 601.54 283.02
  A 0.99 0.95 -64.1 0 0 601.80 283.82
  C 605.66 287.83 608.49 291.81 611.89 296.16
  A 0.73 0.73 0.0 0 0 612.72 296.39
  C 617.63 294.56 626.12 292.38 627.70 298.94
  C 628.20 301.03 627.04 306.39 625.65 308.14
  C 624.07 310.15 621.13 311.19 618.77 312.34
  Q 618.33 312.55 618.14 313.01
  C 616.35 317.46 616.77 320.51 612.49 324.07
  Q 611.88 324.58 612.65 324.75
  C 613.50 324.93 614.81 323.41 615.94 323.10
  Q 616.37 322.98 616.42 323.42
  Q 616.98 327.75 617.41 332.05
  Q 617.55 333.49 619.37 333.18
  A 0.61 0.61 0.0 0 1 620.03 333.54
  Q 620.79 335.30 622.61 335.33
  A 0.90 0.90 0.0 0 1 623.43 335.90
  Q 624.84 339.57 622.28 342.02
  Q 621.81 342.47 622.26 342.94
  Q 623.98 344.69 624.80 347.15
  Q 624.96 347.64 625.32 348.00
  Q 627.26 349.91 627.85 352.63
  A 0.96 0.93 8.6 0 0 628.34 353.27
  Q 630.63 354.51 633.28 354.21
  A 0.77 0.75 -17.2 0 1 634.02 354.59
  C 635.10 356.44 638.64 357.40 641.16 358.68
  Q 641.62 358.92 641.70 359.43
  C 642.71 365.71 639.82 363.92 636.59 366.72
  C 634.97 368.12 632.86 368.47 631.42 369.83
  C 629.50 371.65 629.23 373.71 628.01 375.75
  Q 627.79 376.12 627.79 376.55
  Q 627.79 378.24 626.21 378.99
  A 0.80 0.78 -14.4 0 0 625.75 379.75
  Q 625.81 380.87 624.86 381.35
  A 3.48 3.10 -28.8 0 0 623.23 385.95
  Q 624.56 388.09 626.94 388.34
  Q 627.53 388.41 628.06 388.69
  Q 629.64 389.55 631.49 389.21
  A 0.49 0.48 70.2 0 1 632.01 389.46
  Q 634.38 394.09 630.91 397.40
  Q 630.53 397.75 630.53 398.27
  Q 630.51 399.35 631.39 399.82
  A 0.68 0.68 0.0 0 1 631.47 400.96
  Q 630.51 401.67 630.76 402.93
  Q 630.89 403.55 630.42 403.98
  L 628.00 406.14
  Q 627.66 406.45 627.67 406.91
  L 627.79 413.01
  Q 627.80 413.51 628.16 413.85
  L 630.42 416.01
  A 1.02 1.00 21.8 0 1 630.73 416.71
  C 630.80 419.18 631.56 423.58 628.44 424.64
  Q 625.14 425.77 620.21 425.73
  Q 619.70 425.73 619.29 426.05
  Q 616.21 428.45 614.53 431.88
  Q 614.28 432.40 613.70 432.33
  Q 609.79 431.87 606.32 429.96
  Q 605.94 429.75 605.51 429.79
  C 597.89 430.37 591.85 426.13 583.81 422.68
  C 579.87 420.99 577.23 416.66 575.02 413.19
  Q 574.73 412.75 574.20 412.75
  L 567.94 412.75
  Q 567.40 412.75 567.02 413.13
  C 565.18 414.95 562.87 417.52 559.96 416.27
  C 557.48 415.20 549.07 413.75 550.52 410.08
  C 551.44 407.77 551.58 406.21 551.50 403.82
  Q 551.48 403.32 551.09 403.02
  C 546.03 398.98 541.75 401.66 536.22 401.78
  Q 535.72 401.79 535.31 402.06
  Q 523.13 410.07 519.23 412.23
  Q 517.25 413.33 515.56 411.83
  Q 515.17 411.49 515.15 410.98
  L 514.25 390.23
  Q 514.23 389.93 513.95 389.80
  Z
  M 608.94 322.54
  C 611.85 320.36 613.14 318.36 613.74 314.51
  C 614.56 309.31 618.15 308.37 622.44 306.58
  A 1.01 1.01 0.0 0 0 623.02 305.92
  L 624.43 300.74
  A 2.41 2.41 0.0 0 0 621.54 297.76
  L 611.43 300.21
  A 1.59 1.58 64.4 0 1 609.80 299.63
  L 598.56 284.94
  Q 598.25 284.54 598.25 284.04
  L 598.25 281.49
  Q 598.25 280.89 597.67 280.74
  C 589.58 278.65 593.17 274.80 597.79 272.05
  A 0.97 0.95 -14.9 0 0 598.25 271.27
  Q 598.47 265.03 600.59 259.18
  C 601.31 257.17 601.08 255.43 601.71 253.41
  Q 601.85 252.96 601.72 252.51
  Q 600.55 248.26 601.21 242.49
  C 602.19 234.05 592.63 234.41 589.40 228.58
  Q 589.16 228.15 588.66 228.19
  C 583.76 228.55 581.92 227.48 577.82 225.20
  Q 577.38 224.96 576.99 225.27
  L 572.66 228.67
  A 0.27 0.27 0.0 0 0 572.82 229.15
  Q 580.02 229.17 584.12 234.71
  C 585.71 236.86 585.07 238.92 583.15 240.47
  A 0.72 0.71 60.1 0 0 582.93 241.30
  Q 584.12 244.20 582.00 246.56
  Q 581.62 246.97 581.76 247.51
  Q 582.12 248.90 581.28 250.12
  A 0.41 0.41 0.0 0 1 581.15 250.25
  L 579.36 251.46
  A 0.75 0.75 0.0 0 0 579.06 252.30
  C 580.36 256.63 573.10 257.13 571.97 261.83
  A 1.65 1.62 76.3 0 1 571.49 262.64
  C 567.15 266.70 560.66 266.44 557.90 271.60
  Q 557.68 272.00 557.73 272.45
  Q 558.31 278.91 554.39 284.01
  A 2.66 2.65 41.3 0 0 554.62 287.50
  L 557.80 290.67
  A 1.27 1.25 21.6 0 1 558.17 291.51
  Q 558.49 297.78 557.42 299.92
  C 554.14 306.51 550.81 315.11 546.34 320.82
  A 1.08 1.08 0.0 0 1 545.55 321.24
  C 542.13 321.45 534.26 331.08 534.53 334.45
  A 1.85 1.78 -36.5 0 1 534.38 335.34
  Q 528.67 348.31 523.33 361.44
  C 522.67 363.05 521.32 363.64 521.08 365.50
  Q 520.57 369.58 520.21 373.67
  C 519.79 378.43 518.14 382.75 517.13 387.47
  Q 517.03 387.93 517.47 388.10
  Q 518.67 388.55 518.56 390.00
  C 518.37 392.50 517.87 393.92 518.34 396.64
  C 518.98 400.28 517.31 402.27 519.10 406.89
  Q 519.22 407.21 519.52 407.04
  L 533.93 398.84
  A 1.27 1.27 0.0 0 1 534.70 398.69
  Q 537.29 398.99 539.74 398.26
  Q 547.28 396.02 553.66 400.34
  C 555.73 401.74 555.09 406.76 554.88 410.17
  Q 554.86 410.56 555.23 410.67
  L 561.71 412.55
  A 0.76 0.73 -54.0 0 0 562.33 412.44
  L 565.43 410.23
  Q 565.86 409.92 566.38 409.84
  C 568.96 409.46 578.72 408.35 579.21 412.60
  Q 579.27 413.14 579.74 413.40
  Q 581.61 414.41 582.22 416.41
  Q 582.37 416.92 582.81 417.23
  C 589.23 421.82 595.03 422.84 600.70 425.83
  Q 601.19 426.09 601.75 426.04
  Q 607.17 425.49 612.04 427.92
  A 0.62 0.61 -52.9 0 0 612.72 427.82
  L 617.67 423.19
  A 1.08 1.08 0.0 0 1 618.28 422.91
  L 625.97 422.13
  A 2.65 2.65 0.0 0 0 627.66 417.71
  L 624.76 414.53
  A 0.97 0.97 0.0 0 1 624.50 413.87
  C 624.50 409.21 623.22 404.06 628.23 401.45
  A 0.71 0.70 -50.5 0 0 628.11 400.15
  Q 626.27 399.61 626.54 397.84
  C 626.78 396.23 628.59 394.75 629.69 393.47
  A 0.81 0.81 0.0 0 0 629.17 392.13
  C 616.02 390.56 618.70 382.89 625.09 375.39
  A 1.58 1.58 0.0 0 0 625.47 374.51
  C 626.30 367.24 633.21 364.66 638.89 361.39
  A 0.37 0.37 0.0 0 0 638.77 360.70
  Q 634.97 360.04 632.19 357.37
  A 1.35 1.32 64.9 0 0 631.20 357.00
  Q 628.58 357.16 626.18 356.06
  A 0.99 0.97 -89.5 0 1 625.66 355.52
  Q 622.89 348.58 617.76 343.21
  A 0.73 0.73 0.0 0 1 617.77 342.20
  L 620.61 339.22
  A 0.70 0.70 0.0 0 0 620.49 338.15
  L 614.65 334.34
  A 0.88 0.86 17.2 0 1 614.26 333.62
  L 614.24 328.65
  A 0.65 0.65 0.0 0 0 613.59 328.00
  L 610.02 328.00
  Q 609.51 328.00 609.27 327.55
  Q 608.12 325.47 608.58 323.10
  A 0.91 0.91 0.0 0 1 608.94 322.54
  Z"
/>
<path fill="#ffffff" d="
  M 608.58 323.10
  Q 608.12 325.47 609.27 327.55
  Q 609.51 328.00 610.02 328.00
  L 613.59 328.00
  A 0.65 0.65 0.0 0 1 614.24 328.65
  L 614.26 333.62
  A 0.88 0.86 17.2 0 0 614.65 334.34
  L 620.49 338.15
  A 0.70 0.70 0.0 0 1 620.61 339.22
  L 617.77 342.20
  A 0.73 0.73 0.0 0 0 617.76 343.21
  Q 622.89 348.58 625.66 355.52
  A 0.99 0.97 -89.5 0 0 626.18 356.06
  Q 628.58 357.16 631.20 357.00
  A 1.35 1.32 64.9 0 1 632.19 357.37
  Q 634.97 360.04 638.77 360.70
  A 0.37 0.37 0.0 0 1 638.89 361.39
  C 633.21 364.66 626.30 367.24 625.47 374.51
  A 1.58 1.58 0.0 0 1 625.09 375.39
  C 618.70 382.89 616.02 390.56 629.17 392.13
  A 0.81 0.81 0.0 0 1 629.69 393.47
  C 628.59 394.75 626.78 396.23 626.54 397.84
  Q 626.27 399.61 628.11 400.15
  A 0.71 0.70 -50.5 0 1 628.23 401.45
  C 623.22 404.06 624.50 409.21 624.50 413.87
  A 0.97 0.97 0.0 0 0 624.76 414.53
  L 627.66 417.71
  A 2.65 2.65 0.0 0 1 625.97 422.13
  L 618.28 422.91
  A 1.08 1.08 0.0 0 0 617.67 423.19
  L 612.72 427.82
  A 0.62 0.61 -52.9 0 1 612.04 427.92
  Q 607.17 425.49 601.75 426.04
  Q 601.19 426.09 600.70 425.83
  C 595.03 422.84 589.23 421.82 582.81 417.23
  Q 582.37 416.92 582.22 416.41
  Q 581.61 414.41 579.74 413.40
  Q 579.27 413.14 579.21 412.60
  C 578.72 408.35 568.96 409.46 566.38 409.84
  Q 565.86 409.92 565.43 410.23
  L 562.33 412.44
  A 0.76 0.73 -54.0 0 1 561.71 412.55
  L 555.23 410.67
  Q 554.86 410.56 554.88 410.17
  C 555.09 406.76 555.73 401.74 553.66 400.34
  Q 547.28 396.02 539.74 398.26
  Q 537.29 398.99 534.70 398.69
  A 1.27 1.27 0.0 0 0 533.93 398.84
  L 519.52 407.04
  Q 519.22 407.21 519.10 406.89
  C 517.31 402.27 518.98 400.28 518.34 396.64
  C 517.87 393.92 518.37 392.50 518.56 390.00
  Q 518.67 388.55 517.47 388.10
  Q 517.03 387.93 517.13 387.47
  C 518.14 382.75 519.79 378.43 520.21 373.67
  Q 520.57 369.58 521.08 365.50
  C 521.32 363.64 522.67 363.05 523.33 361.44
  Q 528.67 348.31 534.38 335.34
  A 1.85 1.78 -36.5 0 0 534.53 334.45
  C 534.26 331.08 542.13 321.45 545.55 321.24
  A 1.08 1.08 0.0 0 0 546.34 320.82
  C 550.81 315.11 554.14 306.51 557.42 299.92
  Q 558.49 297.78 558.17 291.51
  A 1.27 1.25 21.6 0 0 557.80 290.67
  L 554.62 287.50
  A 2.66 2.65 41.3 0 1 554.39 284.01
  Q 558.31 278.91 557.73 272.45
  Q 557.68 272.00 557.90 271.60
  C 560.66 266.44 567.15 266.70 571.49 262.64
  A 1.65 1.62 76.3 0 0 571.97 261.83
  C 573.10 257.13 580.36 256.63 579.06 252.30
  A 0.75 0.75 0.0 0 1 579.36 251.46
  L 581.15 250.25
  A 0.41 0.41 0.0 0 0 581.28 250.12
  Q 582.12 248.90 581.76 247.51
  Q 581.62 246.97 582.00 246.56
  Q 584.12 244.20 582.93 241.30
  A 0.72 0.71 60.1 0 1 583.15 240.47
  C 585.07 238.92 585.71 236.86 584.12 234.71
  Q 580.02 229.17 572.82 229.15
  A 0.27 0.27 0.0 0 1 572.66 228.67
  L 576.99 225.27
  Q 577.38 224.96 577.82 225.20
  C 581.92 227.48 583.76 228.55 588.66 228.19
  Q 589.16 228.15 589.40 228.58
  C 592.63 234.41 602.19 234.05 601.21 242.49
  Q 600.55 248.26 601.72 252.51
  Q 601.85 252.96 601.71 253.41
  C 601.08 255.43 601.31 257.17 600.59 259.18
  Q 598.47 265.03 598.25 271.27
  A 0.97 0.95 -14.9 0 1 597.79 272.05
  C 593.17 274.80 589.58 278.65 597.67 280.74
  Q 598.25 280.89 598.25 281.49
  L 598.25 284.04
  Q 598.25 284.54 598.56 284.94
  L 609.80 299.63
  A 1.59 1.58 64.4 0 0 611.43 300.21
  L 621.54 297.76
  A 2.41 2.41 0.0 0 1 624.43 300.74
  L 623.02 305.92
  A 1.01 1.01 0.0 0 1 622.44 306.58
  C 618.15 308.37 614.56 309.31 613.74 314.51
  C 613.14 318.36 611.85 320.36 608.94 322.54
  A 0.91 0.91 0.0 0 0 608.58 323.10
  Z"
/>
</svg>
