<?xml version="1.0" encoding="UTF-8" standalone="no"?>
<!DOCTYPE svg PUBLIC "-//W3C//DTD SVG 1.1//EN" "http://www.w3.org/Graphics/SVG/1.1/DTD/svg11.dtd">
<svg xmlns="http://www.w3.org/2000/svg" version="1.1" viewBox="0.00 0.00 1024.00 1024.00">
<path stroke="#808080" stroke-width="2.00" fill="none" stroke-linecap="butt" vector-effect="non-scaling-stroke" d="
  M 256.48 532.42
  C 260.33 536.93 254.18 544.35 250.23 542.62
  Q 249.69 542.38 249.52 542.95
  Q 248.24 547.15 244.23 548.97
  Q 243.69 549.21 243.13 549.01
  L 237.74 547.01
  Q 237.29 546.84 236.81 546.88
  Q 234.08 547.10 231.33 546.75
  Q 230.81 546.69 230.44 546.31
  L 228.92 544.79
  A 0.51 0.50 -54.6 0 0 228.11 544.93
  L 227.16 546.88
  Q 226.94 547.34 226.97 547.86
  C 227.40 553.67 222.68 554.59 218.34 556.11
  C 213.97 557.64 208.82 556.98 204.24 557.01
  C 202.22 557.03 201.26 556.38 200.06 554.93
  Q 199.72 554.51 199.25 554.79
  Q 196.29 556.60 197.06 560.15
  A 0.86 0.85 -28.9 0 1 196.82 560.96
  L 194.11 563.59
  A 0.59 0.55 -20.1 0 0 193.93 563.95
  C 193.59 566.44 191.72 566.54 190.43 567.62
  Q 187.30 570.24 183.94 572.64
  Q 183.53 572.94 183.02 572.95
  Q 179.72 573.01 176.61 574.00
  C 173.87 574.88 170.47 577.99 166.99 578.03
  Q 164.30 578.06 163.00 578.05
  Q 162.13 578.04 162.69 578.71
  Q 165.12 581.66 163.10 585.03
  A 1.40 1.39 -35.0 0 0 162.92 586.04
  Q 163.67 590.02 160.57 592.29
  Q 158.79 593.59 160.95 594.03
  Q 162.40 594.33 163.23 595.35
  Q 163.57 595.76 163.96 595.41
  Q 167.71 592.05 170.31 587.78
  C 171.69 585.50 171.26 582.64 175.42 583.03
  A 0.82 0.80 25.5 0 0 176.04 582.82
  Q 184.45 575.17 192.90 582.57
  Q 193.28 582.91 193.79 582.96
  C 197.45 583.33 199.96 585.41 203.29 586.30
  C 205.15 586.80 209.01 588.87 210.44 586.58
  A 0.89 0.87 -75.4 0 1 211.12 586.17
  L 215.14 585.92
  A 0.70 0.69 -79.8 0 0 215.72 585.51
  C 216.70 583.24 219.47 577.14 222.52 577.10
  Q 228.91 577.01 235.42 576.98
  A 1.09 1.07 -20.4 0 1 236.23 577.34
  Q 237.69 579.01 239.78 579.74
  Q 240.30 579.91 240.61 579.47
  C 241.96 577.58 243.47 578.10 245.18 577.74
  C 249.88 576.77 274.27 575.33 279.42 579.63
  C 288.43 587.18 284.49 596.73 273.65 598.87
  A 0.41 0.41 0.0 0 0 273.52 599.62
  L 279.07 603.05
  Q 279.56 603.35 279.65 603.92
  C 280.50 609.52 281.28 616.93 274.51 617.05
  Q 272.25 617.10 270.40 618.45
  A 0.48 0.48 0.0 0 0 270.27 619.09
  L 272.41 622.53
  Q 272.66 622.95 273.03 622.62
  C 275.90 620.08 277.45 617.31 281.87 618.24
  Q 282.38 618.35 282.80 618.04
  Q 287.55 614.56 287.06 608.65
  Q 287.01 608.09 287.43 607.70
  C 292.47 603.03 297.55 593.32 305.56 596.38
  C 317.42 600.90 311.63 618.08 305.15 624.51
  Q 303.33 626.32 301.72 628.38
  Q 301.43 628.77 301.60 629.22
  Q 302.96 632.76 300.51 635.52
  Q 300.13 635.94 300.03 636.50
  Q 299.30 640.56 295.03 639.93
  A 1.29 1.25 -58.4 0 0 294.08 640.17
  Q 290.28 643.02 285.51 643.05
  Q 285.08 643.05 285.05 643.47
  Q 284.81 647.17 288.40 647.11
  A 1.37 1.35 67.2 0 1 289.36 647.51
  C 294.37 652.59 300.56 653.09 305.45 658.61
  Q 305.77 658.97 306.26 659.00
  C 309.41 659.18 312.76 660.01 314.18 663.14
  C 315.37 665.75 316.02 671.60 311.68 671.91
  C 308.65 672.13 305.81 672.77 302.79 673.23
  Q 302.24 673.31 302.44 673.82
  Q 302.90 675.05 304.13 675.43
  Q 304.60 675.57 304.90 675.96
  Q 306.33 677.77 305.98 680.08
  Q 305.91 680.57 306.37 680.75
  Q 312.74 683.19 313.49 690.75
  Q 313.68 692.66 315.83 693.30
  Q 316.32 693.44 316.68 693.81
  L 319.70 696.82
  A 1.71 1.66 73.5 0 0 320.50 697.27
  Q 322.19 697.67 322.67 699.30
  Q 322.83 699.83 323.27 700.17
  Q 342.18 714.86 360.55 730.22
  C 369.41 737.63 376.99 746.95 385.29 755.20
  Q 391.69 761.57 410.57 784.57
  C 411.99 786.30 412.61 788.53 415.39 789.62
  Q 415.85 789.81 416.11 790.23
  Q 420.58 797.57 425.80 804.41
  C 429.73 809.57 435.53 815.64 438.16 821.47
  A 1.47 1.47 0.0 0 0 440.63 821.80
  C 442.15 819.96 445.52 815.32 448.32 816.23
  Q 448.84 816.40 449.19 815.97
  Q 451.48 813.19 454.91 812.06
  Q 455.38 811.91 455.85 812.05
  Q 460.71 813.50 463.02 818.03
  Q 463.29 818.56 463.68 818.10
  C 470.53 809.89 483.84 805.55 493.97 801.80
  C 499.24 799.84 503.49 794.95 507.28 790.98
  C 509.07 789.09 511.29 787.88 513.40 786.45
  Q 514.40 785.78 515.00 786.05
  A 1.41 1.34 10.0 0 0 517.00 784.73
  Q 516.62 781.32 519.72 780.04
  Q 520.22 779.84 520.53 779.40
  Q 521.66 777.77 523.51 777.19
  A 0.77 0.77 0.0 0 0 524.04 776.47
  Q 524.06 774.48 525.74 773.56
  A 0.69 0.69 0.0 0 0 526.08 772.81
  Q 525.50 770.04 527.14 767.87
  A 0.77 0.75 49.7 0 0 527.20 767.04
  Q 525.75 764.40 526.17 761.46
  A 1.67 1.63 71.7 0 1 526.60 760.58
  C 528.47 758.57 530.65 755.78 533.33 755.01
  Q 533.78 754.88 533.75 754.41
  Q 533.47 750.00 537.47 748.21
  Q 538.02 747.96 538.21 747.39
  Q 538.49 746.54 539.14 745.97
  A 0.73 0.71 -15.6 0 0 539.35 745.61
  L 541.96 734.84
  Q 542.07 734.41 542.00 733.97
  Q 541.48 730.17 545.06 729.04
  Q 545.65 728.85 545.41 728.28
  Q 544.33 725.65 543.36 722.96
  C 543.00 721.96 543.29 720.69 542.00 719.88
  A 0.69 0.63 -87.7 0 1 541.77 719.61
  L 540.33 716.62
  Q 540.11 716.15 540.08 715.63
  C 539.72 708.35 540.73 702.67 542.33 694.84
  A 0.61 0.60 -70.6 0 0 542.02 694.18
  Q 538.61 692.39 536.82 688.98
  Q 536.59 688.56 536.17 688.32
  C 533.42 686.75 532.21 684.40 529.24 683.25
  Q 528.74 683.06 528.57 682.54
  C 527.89 680.43 527.17 675.23 529.52 673.68
  Q 529.92 673.41 529.75 672.96
  L 519.84 647.39
  Q 519.66 646.91 519.20 646.70
  C 517.30 645.82 517.06 643.90 515.76 642.72
  Q 514.06 641.16 512.08 639.91
  A 1.33 1.30 7.1 0 1 511.53 639.22
  Q 510.96 637.60 509.65 636.56
  Q 509.23 636.23 508.72 636.35
  Q 506.53 636.85 504.36 637.44
  C 500.62 638.46 496.42 637.95 492.54 638.02
  Q 492.10 638.03 492.07 638.47
  L 491.86 641.46
  Q 491.81 642.15 491.20 642.49
  Q 481.97 647.54 472.22 643.66
  A 1.23 1.22 -87.5 0 1 471.50 642.87
  L 468.68 633.37
  Q 468.50 632.75 467.88 632.59
  C 462.19 631.06 462.61 626.84 463.82 621.81
  Q 465.14 616.32 465.04 610.62
  Q 465.03 610.17 465.27 609.78
  L 467.92 605.34
  Q 468.22 604.83 467.84 604.37
  L 465.51 601.55
  Q 465.21 601.19 464.74 601.21
  C 460.78 601.42 456.22 602.08 454.04 597.77
  C 451.42 592.61 449.34 584.52 451.97 579.05
  A 0.75 0.74 31.7 0 0 451.75 578.14
  L 450.44 577.10
  Q 450.00 576.75 450.00 576.20
  L 450.00 568.72
  Q 450.00 568.22 449.58 567.94
  Q 446.98 566.24 445.65 563.50
  Q 445.40 562.98 444.83 562.98
  Q 443.29 562.97 440.50 563.23
  Q 419.86 565.14 413.16 565.91
  A 1.48 1.44 18.3 0 0 412.28 566.34
  C 409.42 569.24 404.13 568.29 400.40 568.22
  A 2.34 2.33 -11.3 0 1 398.31 566.83
  L 395.42 560.18
  Q 395.26 559.82 394.87 559.75
  Q 381.82 557.43 368.69 555.84
  Q 368.04 555.76 367.51 555.08
  Q 367.20 554.69 366.70 554.76
  Q 365.36 554.98 364.68 556.11
  Q 364.41 556.56 363.91 556.74
  C 359.76 558.23 348.34 561.30 349.85 552.23
  A 0.89 0.88 89.6 0 0 348.82 551.21
  Q 339.28 553.02 336.61 544.29
  Q 336.43 543.70 335.88 543.44
  L 321.17 536.44
  A 2.24 2.23 11.6 0 1 319.91 534.53
  Q 319.66 528.68 318.58 522.28
  Q 317.74 517.26 321.40 514.76
  A 1.81 1.81 0.0 0 0 320.37 511.46
  Q 301.31 511.56 280.99 511.54
  Q 277.15 511.53 276.25 507.85
  A 0.31 0.30 81.2 0 0 275.93 507.61
  L 266.67 508.12
  Q 266.30 508.14 266.28 508.51
  Q 265.99 512.28 262.46 513.82
  Q 261.98 514.03 262.00 514.55
  Q 262.15 518.98 257.76 519.00
  Q 257.12 519.00 257.37 519.59
  C 259.84 525.47 254.95 527.01 256.05 531.57
  Q 256.16 532.05 256.48 532.42"
/>
<path fill="#000000" d="
  M 342.42 547.29
  Q 342.97 547.12 343.62 547.51
  Q 343.91 547.69 343.77 548.00
  Q 343.69 548.16 343.66 548.24
  Q 343.53 548.60 343.92 548.59
  L 351.15 548.32
  Q 351.71 548.30 352.03 548.77
  C 353.60 551.04 351.50 554.26 354.34 555.65
  Q 354.76 555.85 355.21 555.71
  Q 360.29 554.15 364.98 551.78
  C 368.22 550.14 369.55 551.64 372.02 552.93
  C 374.07 554.00 377.91 553.48 380.34 553.77
  Q 380.83 553.82 381.24 554.10
  C 382.59 555.02 383.66 554.43 384.95 554.75
  Q 390.79 556.18 396.47 556.69
  A 3.22 3.22 0.0 0 1 399.20 558.77
  L 401.75 565.53
  Q 401.93 566.01 402.34 565.70
  Q 404.32 564.20 406.23 565.47
  Q 406.74 565.80 407.17 565.37
  C 408.66 563.88 409.66 562.82 411.88 562.53
  Q 428.15 560.40 444.50 559.22
  Q 446.16 559.10 447.71 559.56
  A 1.28 1.26 -4.6 0 1 448.45 560.18
  C 450.16 563.53 453.26 564.80 454.09 568.68
  Q 454.20 569.18 453.99 569.65
  Q 453.04 571.86 453.67 574.32
  A 1.00 0.96 -88.1 0 0 454.30 575.02
  C 457.17 576.02 457.00 578.24 455.63 580.60
  Q 453.00 585.15 455.07 589.49
  C 456.60 592.67 457.22 595.52 459.21 597.94
  Q 459.54 598.35 460.05 598.24
  Q 468.24 596.48 472.55 603.74
  A 0.69 0.69 0.0 0 1 472.52 604.48
  Q 467.74 611.14 468.60 619.45
  A 0.99 0.98 -30.0 0 1 468.41 620.14
  L 467.93 620.80
  Q 467.59 621.27 467.72 621.83
  Q 468.12 623.54 466.92 624.72
  A 1.06 1.06 0.0 0 0 466.65 625.76
  C 467.77 629.72 471.89 630.16 473.24 634.75
  Q 473.92 637.09 474.53 640.71
  Q 474.61 641.15 475.04 641.29
  Q 477.71 642.15 480.56 642.26
  C 482.53 642.34 483.90 641.11 486.24 641.56
  A 0.79 0.79 0.0 0 0 487.03 641.26
  C 488.80 638.95 487.52 636.53 489.32 634.71
  A 1.15 1.15 0.0 0 1 490.26 634.38
  Q 499.85 635.39 508.72 631.69
  A 2.41 2.39 55.7 0 1 511.32 632.19
  C 515.64 636.43 522.16 642.13 524.37 647.83
  Q 529.98 662.32 535.56 676.45
  Q 535.91 677.34 534.96 677.43
  Q 533.17 677.60 532.74 678.34
  Q 532.36 678.99 533.36 680.02
  Q 540.49 687.31 547.81 694.37
  Q 548.22 694.76 547.94 695.24
  L 545.44 699.62
  A 1.34 1.30 60.5 0 0 545.27 700.27
  C 545.28 703.57 543.97 707.22 544.90 710.29
  Q 545.06 710.80 544.83 711.28
  Q 543.83 713.40 544.67 715.56
  Q 544.86 716.04 545.29 716.33
  L 547.29 717.67
  Q 547.80 718.01 547.66 718.60
  C 546.48 723.49 550.25 727.12 550.61 731.71
  A 0.75 0.74 -6.7 0 1 549.98 732.50
  L 547.40 732.91
  Q 546.77 733.00 546.62 733.62
  L 542.40 750.86
  A 1.60 1.59 11.2 0 1 540.62 752.05
  Q 538.35 751.70 537.87 753.52
  C 537.32 755.56 539.77 757.30 537.28 759.33
  Q 536.89 759.64 536.38 759.65
  C 533.61 759.68 529.36 762.38 530.70 765.61
  Q 531.08 766.52 531.91 766.23
  A 1.09 1.08 -78.5 0 1 533.07 767.99
  L 530.40 770.87
  A 0.96 0.94 65.5 0 0 530.16 771.53
  Q 530.31 777.53 525.93 780.65
  C 521.70 783.67 521.17 785.12 519.74 789.59
  A 1.01 1.00 -89.4 0 1 519.06 790.26
  C 515.08 791.46 512.12 791.76 508.98 795.22
  C 505.71 798.83 501.08 804.44 496.44 806.01
  C 482.77 810.60 469.79 815.61 460.76 827.59
  Q 457.27 832.22 453.08 836.26
  A 0.57 0.56 -25.7 0 1 452.13 835.93
  L 450.87 826.36
  Q 450.77 825.66 451.45 825.43
  Q 455.67 824.03 458.52 820.60
  A 0.59 0.58 47.3 0 0 458.54 819.87
  L 456.16 816.70
  A 0.71 0.71 0.0 0 0 455.06 816.66
  Q 451.76 820.42 446.77 821.11
  A 0.79 0.78 8.4 0 0 446.17 821.55
  Q 444.55 825.13 441.14 827.04
  A 1.13 1.10 -88.5 0 0 440.70 827.47
  L 439.54 829.48
  A 0.78 0.78 0.0 0 1 438.18 829.46
  Q 435.01 823.68 431.26 818.48
  Q 400.46 775.76 363.11 738.63
  Q 358.33 733.88 353.08 729.65
  Q 332.62 713.20 312.31 696.57
  C 309.49 694.27 310.21 691.13 308.45 688.34
  Q 307.69 687.14 306.76 686.05
  Q 306.45 685.68 305.97 685.61
  Q 300.35 684.69 302.06 679.06
  A 0.49 0.49 0.0 0 0 301.47 678.45
  L 300.50 678.70
  A 0.80 0.80 0.0 0 1 299.53 678.15
  Q 298.10 673.38 293.19 673.41
  Q 292.51 673.41 292.30 672.77
  L 291.61 670.70
  Q 291.42 670.13 292.01 670.05
  L 309.76 667.58
  A 1.56 1.56 0.0 0 0 309.62 664.48
  C 303.35 664.15 301.62 660.80 297.36 657.01
  Q 296.97 656.67 296.46 656.74
  Q 294.94 656.93 293.81 655.93
  Q 293.43 655.60 292.94 655.52
  Q 289.73 655.01 286.69 656.24
  A 0.68 0.68 0.0 0 1 285.90 656.02
  Q 285.63 655.66 285.54 655.25
  Q 285.45 654.84 285.71 654.50
  L 287.17 652.64
  A 0.63 0.63 0.0 0 0 286.96 651.69
  L 282.95 649.64
  A 0.80 0.78 -84.4 0 1 282.53 649.12
  Q 281.40 644.64 277.70 642.37
  C 275.24 640.85 271.91 641.29 268.86 640.27
  A 0.96 0.95 -84.6 0 1 268.22 639.49
  Q 267.82 636.29 264.52 635.89
  A 0.92 0.89 -11.1 0 1 263.87 635.47
  Q 262.93 633.98 264.27 633.12
  Q 264.57 632.93 264.92 632.98
  Q 268.71 633.54 270.42 636.86
  A 0.84 0.84 0.0 0 0 271.30 637.30
  Q 274.61 636.76 277.07 638.94
  Q 277.49 639.31 278.05 639.25
  C 281.00 638.94 283.66 639.22 286.49 638.29
  C 292.03 636.48 294.58 636.72 297.64 631.16
  A 1.19 1.19 0.0 0 0 295.94 629.59
  Q 294.63 630.45 293.41 629.61
  A 0.60 0.60 0.0 0 1 293.40 628.62
  C 295.90 626.83 298.41 625.99 300.29 623.56
  C 305.05 617.41 307.42 614.10 308.11 607.39
  Q 308.45 604.12 307.17 602.43
  C 302.64 596.43 295.26 605.28 292.81 608.75
  C 290.73 611.69 291.05 615.63 289.03 619.05
  A 1.73 1.71 3.7 0 1 288.21 619.76
  Q 285.05 621.10 283.50 624.16
  A 1.08 1.08 0.0 0 1 281.60 624.20
  Q 281.00 623.12 279.87 622.58
  A 0.92 0.90 -58.9 0 0 278.75 622.87
  Q 275.92 626.73 271.54 629.03
  A 1.30 1.30 0.0 0 1 269.70 628.28
  Q 268.52 624.55 266.06 621.47
  Q 265.75 621.09 265.71 620.60
  C 265.18 614.22 269.28 613.20 274.41 612.23
  Q 274.94 612.13 275.21 611.65
  Q 276.61 609.17 275.80 606.44
  A 2.05 2.05 0.0 0 0 273.25 605.05
  L 266.70 606.98
  A 0.77 0.77 0.0 0 1 265.79 605.90
  C 267.35 602.78 269.06 601.97 268.75 598.02
  Q 268.63 596.59 270.05 595.32
  C 273.65 592.09 278.24 595.06 280.35 589.32
  Q 280.51 588.87 280.34 588.43
  C 277.92 582.14 272.59 581.09 266.56 581.26
  Q 255.92 581.56 245.59 581.95
  A 2.21 2.21 0.0 0 0 243.52 583.68
  L 242.87 586.60
  Q 242.71 587.32 242.09 586.92
  L 233.71 581.45
  A 1.04 1.04 0.0 0 0 233.14 581.28
  Q 227.97 581.17 225.82 581.32
  C 222.81 581.52 221.99 584.51 220.15 586.31
  Q 219.81 586.64 219.79 587.10
  L 219.68 589.20
  Q 219.65 589.89 218.97 590.01
  C 215.13 590.72 210.15 592.62 206.37 591.72
  Q 195.43 589.13 185.80 583.28
  A 0.76 0.76 0.0 0 0 184.84 583.42
  L 183.82 584.58
  Q 183.52 584.91 183.08 584.97
  Q 178.85 585.54 175.25 587.86
  Q 174.80 588.15 174.60 588.63
  Q 171.49 595.99 165.19 600.88
  A 2.15 2.15 0.0 0 1 162.38 600.73
  L 160.86 599.27
  A 0.69 0.67 66.1 0 0 160.39 599.08
  L 156.51 599.02
  Q 156.04 599.01 155.78 598.63
  Q 153.64 595.55 155.00 593.27
  Q 157.80 588.59 159.79 583.50
  Q 159.97 583.02 159.67 582.61
  L 157.96 580.31
  Q 157.69 579.95 157.68 579.50
  Q 157.58 577.09 156.26 575.07
  A 0.60 0.60 0.0 0 1 156.71 574.15
  L 169.20 573.11
  A 1.35 1.33 15.3 0 0 170.18 572.56
  C 172.64 569.19 177.17 569.19 182.15 568.50
  Q 182.60 568.44 182.96 568.16
  L 189.86 562.76
  Q 190.25 562.46 190.25 561.96
  L 190.25 560.00
  Q 190.25 559.53 190.62 559.23
  L 192.36 557.82
  A 0.51 0.51 0.0 0 0 192.52 557.24
  L 189.80 550.33
  A 0.68 0.68 0.0 0 1 190.85 549.54
  L 194.36 552.27
  A 1.29 1.29 0.0 0 0 195.98 552.24
  L 198.59 550.06
  Q 199.11 549.62 199.69 549.96
  L 204.18 552.57
  A 1.05 1.05 0.0 0 0 204.74 552.71
  L 214.79 552.37
  Q 215.29 552.36 215.41 551.88
  L 215.81 550.29
  A 0.49 0.49 0.0 0 1 216.53 549.99
  L 217.49 550.57
  Q 217.91 550.83 218.40 550.74
  L 222.32 550.06
  A 0.53 0.53 0.0 0 0 222.73 549.37
  C 221.12 544.33 226.69 540.40 230.54 538.30
  A 1.10 1.09 -21.1 0 1 232.13 539.00
  L 232.86 542.01
  A 0.83 0.83 0.0 0 0 233.99 542.58
  L 236.96 541.33
  A 0.82 0.79 80.8 0 0 237.45 540.63
  C 237.68 536.67 235.54 533.43 238.85 530.00
  A 1.49 1.49 0.0 0 1 241.18 530.24
  C 243.67 534.22 242.11 538.52 241.31 542.62
  A 1.74 1.74 0.0 0 0 244.58 543.70
  L 248.08 536.33
  A 0.36 0.36 0.0 0 1 248.68 536.26
  L 250.10 537.99
  A 0.51 0.50 54.8 0 0 250.75 538.11
  L 253.29 536.65
  A 0.49 0.49 0.0 0 0 253.48 536.02
  C 252.54 534.09 249.13 530.89 251.61 528.96
  A 0.79 0.79 0.0 0 0 251.87 528.04
  Q 250.89 525.45 253.16 525.17
  Q 253.70 525.10 253.71 524.56
  C 253.75 522.20 253.56 521.58 252.08 519.48
  Q 250.77 517.61 251.90 515.12
  Q 252.10 514.69 252.58 514.64
  Q 254.25 514.46 256.09 514.68
  A 1.83 1.82 59.6 0 0 257.00 511.18
  Q 254.87 510.31 253.82 508.34
  A 0.97 0.96 82.5 0 1 254.89 506.94
  Q 257.78 507.63 260.29 509.17
  A 1.32 1.32 0.0 0 0 262.30 508.04
  L 262.26 503.02
  A 0.55 0.54 3.3 0 1 262.87 502.48
  C 265.03 502.73 266.82 503.59 268.98 503.25
  C 272.57 502.67 278.44 501.23 278.48 505.77
  Q 278.49 506.37 279.08 506.50
  Q 279.89 506.68 279.36 507.79
  A 0.50 0.49 -77.1 0 0 279.80 508.50
  L 322.27 508.50
  A 2.12 2.10 -7.0 0 1 324.32 510.09
  Q 325.31 513.99 322.94 518.15
  Q 322.56 518.81 321.96 518.70
  Q 321.58 518.63 321.52 519.02
  Q 321.25 521.03 322.03 523.95
  Q 322.74 526.62 322.42 532.93
  Q 322.40 533.41 322.86 533.56
  Q 324.51 534.06 325.91 534.96
  Q 326.25 535.18 326.64 535.26
  Q 327.26 535.38 327.77 535.88
  Q 328.10 536.21 328.57 536.27
  Q 329.31 536.38 329.57 537.04
  Q 329.75 537.50 330.25 537.50
  L 331.25 537.50
  A 0.38 0.38 0.0 0 1 331.58 538.07
  Q 331.50 538.21 331.47 538.36
  A 0.13 0.13 0.0 0 0 331.62 538.51
  L 332.72 538.25
  A 0.63 0.62 81.2 0 1 333.48 538.81
  L 333.51 539.27
  Q 333.55 539.77 334.03 539.60
  Q 335.60 539.05 336.68 540.27
  Q 336.93 540.55 337.30 540.50
  L 337.91 540.42
  Q 338.44 540.35 338.71 540.82
  Q 339.53 542.28 339.54 543.92
  A 0.67 0.63 27.4 0 0 339.68 544.32
  L 341.89 547.13
  Q 342.10 547.39 342.42 547.29
  Z
  M 256.48 532.42
  C 260.33 536.93 254.18 544.35 250.23 542.62
  Q 249.69 542.38 249.52 542.95
  Q 248.24 547.15 244.23 548.97
  Q 243.69 549.21 243.13 549.01
  L 237.74 547.01
  Q 237.29 546.84 236.81 546.88
  Q 234.08 547.10 231.33 546.75
  Q 230.81 546.69 230.44 546.31
  L 228.92 544.79
  A 0.51 0.50 -54.6 0 0 228.11 544.93
  L 227.16 546.88
  Q 226.94 547.34 226.97 547.86
  C 227.40 553.67 222.68 554.59 218.34 556.11
  C 213.97 557.64 208.82 556.98 204.24 557.01
  C 202.22 557.03 201.26 556.38 200.06 554.93
  Q 199.72 554.51 199.25 554.79
  Q 196.29 556.60 197.06 560.15
  A 0.86 0.85 -28.9 0 1 196.82 560.96
  L 194.11 563.59
  A 0.59 0.55 -20.1 0 0 193.93 563.95
  C 193.59 566.44 191.72 566.54 190.43 567.62
  Q 187.30 570.24 183.94 572.64
  Q 183.53 572.94 183.02 572.95
  Q 179.72 573.01 176.61 574.00
  C 173.87 574.88 170.47 577.99 166.99 578.03
  Q 164.30 578.06 163.00 578.05
  Q 162.13 578.04 162.69 578.71
  Q 165.12 581.66 163.10 585.03
  A 1.40 1.39 -35.0 0 0 162.92 586.04
  Q 163.67 590.02 160.57 592.29
  Q 158.79 593.59 160.95 594.03
  Q 162.40 594.33 163.23 595.35
  Q 163.57 595.76 163.96 595.41
  Q 167.71 592.05 170.31 587.78
  C 171.69 585.50 171.26 582.64 175.42 583.03
  A 0.82 0.80 25.5 0 0 176.04 582.82
  Q 184.45 575.17 192.90 582.57
  Q 193.28 582.91 193.79 582.96
  C 197.45 583.33 199.96 585.41 203.29 586.30
  C 205.15 586.80 209.01 588.87 210.44 586.58
  A 0.89 0.87 -75.4 0 1 211.12 586.17
  L 215.14 585.92
  A 0.70 0.69 -79.8 0 0 215.72 585.51
  C 216.70 583.24 219.47 577.14 222.52 577.10
  Q 228.91 577.01 235.42 576.98
  A 1.09 1.07 -20.4 0 1 236.23 577.34
  Q 237.69 579.01 239.78 579.74
  Q 240.30 579.91 240.61 579.47
  C 241.96 577.58 243.47 578.10 245.18 577.74
  C 249.88 576.77 274.27 575.33 279.42 579.63
  C 288.43 587.18 284.49 596.73 273.65 598.87
  A 0.41 0.41 0.0 0 0 273.52 599.62
  L 279.07 603.05
  Q 279.56 603.35 279.65 603.92
  C 280.50 609.52 281.28 616.93 274.51 617.05
  Q 272.25 617.10 270.40 618.45
  A 0.48 0.48 0.0 0 0 270.27 619.09
  L 272.41 622.53
  Q 272.66 622.95 273.03 622.62
  C 275.90 620.08 277.45 617.31 281.87 618.24
  Q 282.38 618.35 282.80 618.04
  Q 287.55 614.56 287.06 608.65
  Q 287.01 608.09 287.43 607.70
  C 292.47 603.03 297.55 593.32 305.56 596.38
  C 317.42 600.90 311.63 618.08 305.15 624.51
  Q 303.33 626.32 301.72 628.38
  Q 301.43 628.77 301.60 629.22
  Q 302.96 632.76 300.51 635.52
  Q 300.13 635.94 300.03 636.50
  Q 299.30 640.56 295.03 639.93
  A 1.29 1.25 -58.4 0 0 294.08 640.17
  Q 290.28 643.02 285.51 643.05
  Q 285.08 643.05 285.05 643.47
  Q 284.81 647.17 288.40 647.11
  A 1.37 1.35 67.2 0 1 289.36 647.51
  C 294.37 652.59 300.56 653.09 305.45 658.61
  Q 305.77 658.97 306.26 659.00
  C 309.41 659.18 312.76 660.01 314.18 663.14
  C 315.37 665.75 316.02 671.60 311.68 671.91
  C 308.65 672.13 305.81 672.77 302.79 673.23
  Q 302.24 673.31 302.44 673.82
  Q 302.90 675.05 304.13 675.43
  Q 304.60 675.57 304.90 675.96
  Q 306.33 677.77 305.98 680.08
  Q 305.91 680.57 306.37 680.75
  Q 312.74 683.19 313.49 690.75
  Q 313.68 692.66 315.83 693.30
  Q 316.32 693.44 316.68 693.81
  L 319.70 696.82
  A 1.71 1.66 73.5 0 0 320.50 697.27
  Q 322.19 697.67 322.67 699.30
  Q 322.83 699.83 323.27 700.17
  Q 342.18 714.86 360.55 730.22
  C 369.41 737.63 376.99 746.95 385.29 755.20
  Q 391.69 761.57 410.57 784.57
  C 411.99 786.30 412.61 788.53 415.39 789.62
  Q 415.85 789.81 416.11 790.23
  Q 420.58 797.57 425.80 804.41
  C 429.73 809.57 435.53 815.64 438.16 821.47
  A 1.47 1.47 0.0 0 0 440.63 821.80
  C 442.15 819.96 445.52 815.32 448.32 816.23
  Q 448.84 816.40 449.19 815.97
  Q 451.48 813.19 454.91 812.06
  Q 455.38 811.91 455.85 812.05
  Q 460.71 813.50 463.02 818.03
  Q 463.29 818.56 463.68 818.10
  C 470.53 809.89 483.84 805.55 493.97 801.80
  C 499.24 799.84 503.49 794.95 507.28 790.98
  C 509.07 789.09 511.29 787.88 513.40 786.45
  Q 514.40 785.78 515.00 786.05
  A 1.41 1.34 10.0 0 0 517.00 784.73
  Q 516.62 781.32 519.72 780.04
  Q 520.22 779.84 520.53 779.40
  Q 521.66 777.77 523.51 777.19
  A 0.77 0.77 0.0 0 0 524.04 776.47
  Q 524.06 774.48 525.74 773.56
  A 0.69 0.69 0.0 0 0 526.08 772.81
  Q 525.50 770.04 527.14 767.87
  A 0.77 0.75 49.7 0 0 527.20 767.04
  Q 525.75 764.40 526.17 761.46
  A 1.67 1.63 71.7 0 1 526.60 760.58
  C 528.47 758.57 530.65 755.78 533.33 755.01
  Q 533.78 754.88 533.75 754.41
  Q 533.47 750.00 537.47 748.21
  Q 538.02 747.96 538.21 747.39
  Q 538.49 746.54 539.14 745.97
  A 0.73 0.71 -15.6 0 0 539.35 745.61
  L 541.96 734.84
  Q 542.07 734.41 542.00 733.97
  Q 541.48 730.17 545.06 729.04
  Q 545.65 728.85 545.41 728.28
  Q 544.33 725.65 543.36 722.96
  C 543.00 721.96 543.29 720.69 542.00 719.88
  A 0.69 0.63 -87.7 0 1 541.77 719.61
  L 540.33 716.62
  Q 540.11 716.15 540.08 715.63
  C 539.72 708.35 540.73 702.67 542.33 694.84
  A 0.61 0.60 -70.6 0 0 542.02 694.18
  Q 538.61 692.39 536.82 688.98
  Q 536.59 688.56 536.17 688.32
  C 533.42 686.75 532.21 684.40 529.24 683.25
  Q 528.74 683.06 528.57 682.54
  C 527.89 680.43 527.17 675.23 529.52 673.68
  Q 529.92 673.41 529.75 672.96
  L 519.84 647.39
  Q 519.66 646.91 519.20 646.70
  C 517.30 645.82 517.06 643.90 515.76 642.72
  Q 514.06 641.16 512.08 639.91
  A 1.33 1.30 7.1 0 1 511.53 639.22
  Q 510.96 637.60 509.65 636.56
  Q 509.23 636.23 508.72 636.35
  Q 506.53 636.85 504.36 637.44
  C 500.62 638.46 496.42 637.95 492.54 638.02
  Q 492.10 638.03 492.07 638.47
  L 491.86 641.46
  Q 491.81 642.15 491.20 642.49
  Q 481.97 647.54 472.22 643.66
  A 1.23 1.22 -87.5 0 1 471.50 642.87
  L 468.68 633.37
  Q 468.50 632.75 467.88 632.59
  C 462.19 631.06 462.61 626.84 463.82 621.81
  Q 465.14 616.32 465.04 610.62
  Q 465.03 610.17 465.27 609.78
  L 467.92 605.34
  Q 468.22 604.83 467.84 604.37
  L 465.51 601.55
  Q 465.21 601.19 464.74 601.21
  C 460.78 601.42 456.22 602.08 454.04 597.77
  C 451.42 592.61 449.34 584.52 451.97 579.05
  A 0.75 0.74 31.7 0 0 451.75 578.14
  L 450.44 577.10
  Q 450.00 576.75 450.00 576.20
  L 450.00 568.72
  Q 450.00 568.22 449.58 567.94
  Q 446.98 566.24 445.65 563.50
  Q 445.40 562.98 444.83 562.98
  Q 443.29 562.97 440.50 563.23
  Q 419.86 565.14 413.16 565.91
  A 1.48 1.44 18.3 0 0 412.28 566.34
  C 409.42 569.24 404.13 568.29 400.40 568.22
  A 2.34 2.33 -11.3 0 1 398.31 566.83
  L 395.42 560.18
  Q 395.26 559.82 394.87 559.75
  Q 381.82 557.43 368.69 555.84
  Q 368.04 555.76 367.51 555.08
  Q 367.20 554.69 366.70 554.76
  Q 365.36 554.98 364.68 556.11
  Q 364.41 556.56 363.91 556.74
  C 359.76 558.23 348.34 561.30 349.85 552.23
  A 0.89 0.88 89.6 0 0 348.82 551.21
  Q 339.28 553.02 336.61 544.29
  Q 336.43 543.70 335.88 543.44
  L 321.17 536.44
  A 2.24 2.23 11.6 0 1 319.91 534.53
  Q 319.66 528.68 318.58 522.28
  Q 317.74 517.26 321.40 514.76
  A 1.81 1.81 0.0 0 0 320.37 511.46
  Q 301.31 511.56 280.99 511.54
  Q 277.15 511.53 276.25 507.85
  A 0.31 0.30 81.2 0 0 275.93 507.61
  L 266.67 508.12
  Q 266.30 508.14 266.28 508.51
  Q 265.99 512.28 262.46 513.82
  Q 261.98 514.03 262.00 514.55
  Q 262.15 518.98 257.76 519.00
  Q 257.12 519.00 257.37 519.59
  C 259.84 525.47 254.95 527.01 256.05 531.57
  Q 256.16 532.05 256.48 532.42
  Z"
/>
<path fill="#ffffff" d="
  M 250.23 542.62
  C 254.18 544.35 260.33 536.93 256.48 532.42
  Q 256.16 532.05 256.05 531.57
  C 254.95 527.01 259.84 525.47 257.37 519.59
  Q 257.12 519.00 257.76 519.00
  Q 262.15 518.98 262.00 514.55
  Q 261.98 514.03 262.46 513.82
  Q 265.99 512.28 266.28 508.51
  Q 266.30 508.14 266.67 508.12
  L 275.93 507.61
  A 0.31 0.30 81.2 0 1 276.25 507.85
  Q 277.15 511.53 280.99 511.54
  Q 301.31 511.56 320.37 511.46
  A 1.81 1.81 0.0 0 1 321.40 514.76
  Q 317.74 517.26 318.58 522.28
  Q 319.66 528.68 319.91 534.53
  A 2.24 2.23 11.6 0 0 321.17 536.44
  L 335.88 543.44
  Q 336.43 543.70 336.61 544.29
  Q 339.28 553.02 348.82 551.21
  A 0.89 0.88 89.6 0 1 349.85 552.23
  C 348.34 561.30 359.76 558.23 363.91 556.74
  Q 364.41 556.56 364.68 556.11
  Q 365.36 554.98 366.70 554.76
  Q 367.20 554.69 367.51 555.08
  Q 368.04 555.76 368.69 555.84
  Q 381.82 557.43 394.87 559.75
  Q 395.26 559.82 395.42 560.18
  L 398.31 566.83
  A 2.34 2.33 -11.3 0 0 400.40 568.22
  C 404.13 568.29 409.42 569.24 412.28 566.34
  A 1.48 1.44 18.3 0 1 413.16 565.91
  Q 419.86 565.14 440.50 563.23
  Q 443.29 562.97 444.83 562.98
  Q 445.40 562.98 445.65 563.50
  Q 446.98 566.24 449.58 567.94
  Q 450.00 568.22 450.00 568.72
  L 450.00 576.20
  Q 450.00 576.75 450.44 577.10
  L 451.75 578.14
  A 0.75 0.74 31.7 0 1 451.97 579.05
  C 449.34 584.52 451.42 592.61 454.04 597.77
  C 456.22 602.08 460.78 601.42 464.74 601.21
  Q 465.21 601.19 465.51 601.55
  L 467.84 604.37
  Q 468.22 604.83 467.92 605.34
  L 465.27 609.78
  Q 465.03 610.17 465.04 610.62
  Q 465.14 616.32 463.82 621.81
  C 462.61 626.84 462.19 631.06 467.88 632.59
  Q 468.50 632.75 468.68 633.37
  L 471.50 642.87
  A 1.23 1.22 -87.5 0 0 472.22 643.66
  Q 481.97 647.54 491.20 642.49
  Q 491.81 642.15 491.86 641.46
  L 492.07 638.47
  Q 492.10 638.03 492.54 638.02
  C 496.42 637.95 500.62 638.46 504.36 637.44
  Q 506.53 636.85 508.72 636.35
  Q 509.23 636.23 509.65 636.56
  Q 510.96 637.60 511.53 639.22
  A 1.33 1.30 7.1 0 0 512.08 639.91
  Q 514.06 641.16 515.76 642.72
  C 517.06 643.90 517.30 645.82 519.20 646.70
  Q 519.66 646.91 519.84 647.39
  L 529.75 672.96
  Q 529.92 673.41 529.52 673.68
  C 527.17 675.23 527.89 680.43 528.57 682.54
  Q 528.74 683.06 529.24 683.25
  C 532.21 684.40 533.42 686.75 536.17 688.32
  Q 536.59 688.56 536.82 688.98
  Q 538.61 692.39 542.02 694.18
  A 0.61 0.60 -70.6 0 1 542.33 694.84
  C 540.73 702.67 539.72 708.35 540.08 715.63
  Q 540.11 716.15 540.33 716.62
  L 541.77 719.61
  A 0.69 0.63 -87.7 0 0 542.00 719.88
  C 543.29 720.69 543.00 721.96 543.36 722.96
  Q 544.33 725.65 545.41 728.28
  Q 545.65 728.85 545.06 729.04
  Q 541.48 730.17 542.00 733.97
  Q 542.07 734.41 541.96 734.84
  L 539.35 745.61
  A 0.73 0.71 -15.6 0 1 539.14 745.97
  Q 538.49 746.54 538.21 747.39
  Q 538.02 747.96 537.47 748.21
  Q 533.47 750.00 533.75 754.41
  Q 533.78 754.88 533.33 755.01
  C 530.65 755.78 528.47 758.57 526.60 760.58
  A 1.67 1.63 71.7 0 0 526.17 761.46
  Q 525.75 764.40 527.20 767.04
  A 0.77 0.75 49.7 0 1 527.14 767.87
  Q 525.50 770.04 526.08 772.81
  A 0.69 0.69 0.0 0 1 525.74 773.56
  Q 524.06 774.48 524.04 776.47
  A 0.77 0.77 0.0 0 1 523.51 777.19
  Q 521.66 777.77 520.53 779.40
  Q 520.22 779.84 519.72 780.04
  Q 516.62 781.32 517.00 784.73
  A 1.41 1.34 10.0 0 1 515.00 786.05
  Q 514.40 785.78 513.40 786.45
  C 511.29 787.88 509.07 789.09 507.28 790.98
  C 503.49 794.95 499.24 799.84 493.97 801.80
  C 483.84 805.55 470.53 809.89 463.68 818.10
  Q 463.29 818.56 463.02 818.03
  Q 460.71 813.50 455.85 812.05
  Q 455.38 811.91 454.91 812.06
  Q 451.48 813.19 449.19 815.97
  Q 448.84 816.40 448.32 816.23
  C 445.52 815.32 442.15 819.96 440.63 821.80
  A 1.47 1.47 0.0 0 1 438.16 821.47
  C 435.53 815.64 429.73 809.57 425.80 804.41
  Q 420.58 797.57 416.11 790.23
  Q 415.85 789.81 415.39 789.62
  C 412.61 788.53 411.99 786.30 410.57 784.57
  Q 391.69 761.57 385.29 755.20
  C 376.99 746.95 369.41 737.63 360.55 730.22
  Q 342.18 714.86 323.27 700.17
  Q 322.83 699.83 322.67 699.30
  Q 322.19 697.67 320.50 697.27
  A 1.71 1.66 73.5 0 1 319.70 696.82
  L 316.68 693.81
  Q 316.32 693.44 315.83 693.30
  Q 313.68 692.66 313.49 690.75
  Q 312.74 683.19 306.37 680.75
  Q 305.91 680.57 305.98 680.08
  Q 306.33 677.77 304.90 675.96
  Q 304.60 675.57 304.13 675.43
  Q 302.90 675.05 302.44 673.82
  Q 302.24 673.31 302.79 673.23
  C 305.81 672.77 308.65 672.13 311.68 671.91
  C 316.02 671.60 315.37 665.75 314.18 663.14
  C 312.76 660.01 309.41 659.18 306.26 659.00
  Q 305.77 658.97 305.45 658.61
  C 300.56 653.09 294.37 652.59 289.36 647.51
  A 1.37 1.35 67.2 0 0 288.40 647.11
  Q 284.81 647.17 285.05 643.47
  Q 285.08 643.05 285.51 643.05
  Q 290.28 643.02 294.08 640.17
  A 1.29 1.25 -58.4 0 1 295.03 639.93
  Q 299.30 640.56 300.03 636.50
  Q 300.13 635.94 300.51 635.52
  Q 302.96 632.76 301.60 629.22
  Q 301.43 628.77 301.72 628.38
  Q 303.33 626.32 305.15 624.51
  C 311.63 618.08 317.42 600.90 305.56 596.38
  C 297.55 593.32 292.47 603.03 287.43 607.70
  Q 287.01 608.09 287.06 608.65
  Q 287.55 614.56 282.80 618.04
  Q 282.38 618.35 281.87 618.24
  C 277.45 617.31 275.90 620.08 273.03 622.62
  Q 272.66 622.95 272.41 622.53
  L 270.27 619.09
  A 0.48 0.48 0.0 0 1 270.40 618.45
  Q 272.25 617.10 274.51 617.05
  C 281.28 616.93 280.50 609.52 279.65 603.92
  Q 279.56 603.35 279.07 603.05
  L 273.52 599.62
  A 0.41 0.41 0.0 0 1 273.65 598.87
  C 284.49 596.73 288.43 587.18 279.42 579.63
  C 274.27 575.33 249.88 576.77 245.18 577.74
  C 243.47 578.10 241.96 577.58 240.61 579.47
  Q 240.30 579.91 239.78 579.74
  Q 237.69 579.01 236.23 577.34
  A 1.09 1.07 -20.4 0 0 235.42 576.98
  Q 228.91 577.01 222.52 577.10
  C 219.47 577.14 216.70 583.24 215.72 585.51
  A 0.70 0.69 -79.8 0 1 215.14 585.92
  L 211.12 586.17
  A 0.89 0.87 -75.4 0 0 210.44 586.58
  C 209.01 588.87 205.15 586.80 203.29 586.30
  C 199.96 585.41 197.45 583.33 193.79 582.96
  Q 193.28 582.91 192.90 582.57
  Q 184.45 575.17 176.04 582.82
  A 0.82 0.80 25.5 0 1 175.42 583.03
  C 171.26 582.64 171.69 585.50 170.31 587.78
  Q 167.71 592.05 163.96 595.41
  Q 163.57 595.76 163.23 595.35
  Q 162.40 594.33 160.95 594.03
  Q 158.79 593.59 160.57 592.29
  Q 163.67 590.02 162.92 586.04
  A 1.40 1.39 -35.0 0 1 163.10 585.03
  Q 165.12 581.66 162.69 578.71
  Q 162.13 578.04 163.00 578.05
  Q 164.30 578.06 166.99 578.03
  C 170.47 577.99 173.87 574.88 176.61 574.00
  Q 179.72 573.01 183.02 572.95
  Q 183.53 572.94 183.94 572.64
  Q 187.30 570.24 190.43 567.62
  C 191.72 566.54 193.59 566.44 193.93 563.95
  A 0.59 0.55 -20.1 0 1 194.11 563.59
  L 196.82 560.96
  A 0.86 0.85 -28.9 0 0 197.06 560.15
  Q 196.29 556.60 199.25 554.79
  Q 199.72 554.51 200.06 554.93
  C 201.26 556.38 202.22 557.03 204.24 557.01
  C 208.82 556.98 213.97 557.64 218.34 556.11
  C 222.68 554.59 227.40 553.67 226.97 547.86
  Q 226.94 547.34 227.16 546.88
  L 228.11 544.93
  A 0.51 0.50 -54.6 0 1 228.92 544.79
  L 230.44 546.31
  Q 230.81 546.69 231.33 546.75
  Q 234.08 547.10 236.81 546.88
  Q 237.29 546.84 237.74 547.01
  L 243.13 549.01
  Q 243.69 549.21 244.23 548.97
  Q 248.24 547.15 249.52 542.95
  Q 249.69 542.38 250.23 542.62
  Z"
/>
</svg>
